<?xml version="1.0" encoding="UTF-8"?>
<svg viewBox="0 0 800 600" xmlns="http://www.w3.org/2000/svg">
  <path d="M 26.18,289.99 L 33.54,295.88 L 39.73,291.17 L 42.67,290.58 L 45.91,291.46 L 48.56,292.93 L 57.98,301.18 L 61.22,306.48 L 62.99,313.25 L 69.17,326.50 L 82.12,333.56 L 98.32,340.93 L 99.50,342.10 L 102.15,342.40 L 125.11,336.80 L 133.94,339.16 L 140.72,344.16 L 141.89,345.05 L 145.43,351.52 L 146.01,356.24 L 145.43,357.12 L 143.36,358.59 L 131.00,357.12 L 127.76,357.71 L 123.34,359.77 L 123.34,360.36 L 129.53,368.90 L 130.41,369.48 L 130.12,370.96 L 125.99,378.32 L 120.69,382.15 L 117.46,383.62 L 116.57,384.21 L 117.75,385.38 L 126.29,388.03 L 114.81,390.98 L 108.62,395.10 L 97.43,400.69 L 96.26,402.46 L 95.67,405.99 L 94.78,407.47 L 94.78,407.76 L 94.78,408.64 L 97.43,413.06 L 98.91,422.19 L 100.08,425.13 L 105.68,422.48 L 118.63,428.81 L 131.59,435.14 L 138.07,449.86 L 138.65,455.46 L 138.95,455.75 L 140.13,455.75 L 144.84,447.80 L 146.60,447.51 L 147.78,456.64 L 149.25,459.87 L 151.90,462.52 L 154.26,462.82 L 159.85,458.40 L 161.91,457.22 L 164.86,462.23 L 165.74,468.12 L 168.39,474.01 L 171.92,475.77 L 173.69,477.83 L 193.56,484.75 L 213.44,491.67 L 215.79,493.14 L 218.15,497.56 L 219.62,497.56 L 223.45,496.97 L 231.69,496.97 L 252.01,497.27 L 255.25,498.15 L 262.02,498.74 L 262.90,500.50 L 262.61,505.80 L 264.96,512.58 L 267.32,515.23 L 270.26,516.40 L 271.74,519.94 L 274.68,524.35 L 276.74,524.65 L 277.03,524.35 L 276.74,519.35 L 278.51,517.88 L 285.28,526.41 L 298.53,537.90 L 298.82,538.19 L 302.94,538.78 L 306.77,536.72 L 308.24,534.66 L 309.72,534.36 L 313.25,535.84 L 320.61,541.43 L 334.15,535.84 L 342.69,534.07 L 343.58,532.89 L 342.99,525.83 L 344.46,524.94 L 348.58,524.65 L 350.64,522.59 L 353.29,522.29 L 359.47,526.41 L 366.25,527.59 L 371.55,524.65 L 376.85,524.65 L 379.20,522.88 L 380.97,522.88 L 382.73,521.70 L 385.68,516.40 L 387.44,514.64 L 387.74,514.64 L 390.68,516.11 L 392.16,518.76 L 391.57,521.70 L 392.16,524.65 L 394.22,528.48 L 395.69,527.59 L 398.34,527.59 L 401.87,529.65 L 402.75,531.71 L 406.88,535.84 L 409.53,536.13 L 410.70,537.01 L 412.77,537.01 L 417.48,539.07 L 421.30,538.78 L 423.36,539.66 L 423.36,546.73 L 424.84,547.61 L 427.78,545.55 L 431.02,548.50 L 436.03,551.74 L 434.55,555.56 L 434.85,557.92 L 443.09,571.46 L 446.92,580.00 L 452.51,572.34 L 456.34,569.11 L 472.24,562.19 L 488.14,555.27 L 494.91,550.56 L 506.25,541.72 L 517.58,532.89 L 534.95,520.53 L 539.07,519.64 L 546.44,519.94 L 549.67,518.76 L 550.26,517.29 L 551.44,510.81 L 552.91,508.45 L 552.32,507.87 L 551.74,502.57 L 553.21,498.44 L 561.75,489.02 L 568.22,484.90 L 572.93,484.31 L 575.29,483.43 L 575.58,482.84 L 575.29,472.24 L 576.76,470.18 L 589.13,461.35 L 591.48,458.40 L 592.37,456.34 L 591.19,439.26 L 592.95,431.61 L 597.37,423.66 L 598.55,422.48 L 600.90,421.30 L 605.62,420.72 L 614.15,417.77 L 612.39,415.12 L 613.56,392.74 L 615.63,386.56 L 615.33,383.91 L 613.27,376.55 L 613.86,373.31 L 613.56,370.37 L 613.86,368.31 L 612.68,364.48 L 613.56,359.18 L 613.27,353.88 L 613.86,353.29 L 613.86,350.94 L 613.27,348.29 L 608.26,342.69 L 605.62,336.80 L 605.62,333.86 L 607.09,331.50 L 608.26,328.56 L 606.20,324.14 L 605.91,321.20 L 606.79,320.02 L 605.91,318.25 L 606.50,315.02 L 606.20,311.78 L 607.38,309.13 L 612.09,306.77 L 616.80,306.48 L 619.16,305.01 L 639.18,303.53 L 638.59,299.12 L 642.12,294.11 L 644.48,292.64 L 651.55,283.81 L 652.13,276.74 L 653.31,274.68 L 655.37,273.21 L 662.44,271.44 L 663.91,270.26 L 663.91,263.49 L 663.03,262.31 L 663.32,259.37 L 675.39,248.48 L 676.87,242.88 L 675.98,241.70 L 666.27,248.48 L 658.91,251.13 L 658.02,251.13 L 658.02,249.06 L 662.44,242.88 L 662.73,235.23 L 665.97,227.87 L 668.03,226.10 L 669.21,221.68 L 669.21,214.91 L 669.80,212.56 L 674.81,206.96 L 675.98,205.19 L 675.98,204.61 L 674.51,204.31 L 670.98,206.96 L 665.97,208.14 L 663.03,209.91 L 654.20,216.97 L 650.37,221.98 L 645.66,226.10 L 644.19,226.39 L 640.65,226.39 L 640.06,226.39 L 640.06,226.10 L 645.66,220.80 L 648.01,210.49 L 649.78,206.96 L 657.73,196.36 L 657.73,195.48 L 657.73,194.89 L 656.85,194.01 L 655.37,194.30 L 650.37,199.31 L 646.25,201.37 L 639.77,202.25 L 634.17,202.25 L 630.94,201.37 L 631.52,200.19 L 632.41,200.19 L 633.00,200.19 L 633.00,201.07 L 636.82,199.01 L 640.65,195.77 L 640.36,195.18 L 636.24,194.60 L 636.53,190.18 L 632.11,188.12 L 631.82,187.53 L 633.00,183.11 L 632.70,182.52 L 631.23,181.93 L 621.81,181.35 L 621.81,180.76 L 624.46,178.11 L 615.63,175.75 L 615.92,174.87 L 617.98,173.69 L 618.57,167.21 L 627.11,157.79 L 627.70,153.08 L 627.40,147.78 L 628.29,146.01 L 630.05,143.66 L 644.19,135.71 L 646.25,133.94 L 647.42,133.94 L 648.01,132.77 L 648.01,132.18 L 645.66,132.47 L 640.95,133.94 L 636.82,134.83 L 625.64,133.65 L 623.58,135.12 L 609.15,148.66 L 607.68,148.66 L 607.38,146.90 L 607.97,143.66 L 607.38,139.24 L 608.56,136.00 L 611.50,132.18 L 610.62,130.41 L 608.56,130.41 L 598.84,123.05 L 611.50,110.98 L 614.15,110.39 L 620.34,110.98 L 624.46,110.09 L 629.46,105.68 L 638.00,95.37 L 638.00,94.49 L 638.00,94.20 L 636.53,93.61 L 630.94,96.55 L 626.52,97.14 L 616.80,96.26 L 613.56,93.61 L 611.21,88.60 L 612.68,83.30 L 615.33,77.71 L 617.98,74.76 L 607.68,63.87 L 597.37,44.44 L 591.48,40.90 L 575.88,35.90 L 560.27,30.89 L 558.80,30.01 L 557.92,27.95 L 553.21,32.95 L 545.85,36.19 L 535.25,38.84 L 528.48,38.25 L 516.11,30.30 L 511.69,30.89 L 505.51,28.83 L 503.15,27.36 L 501.39,24.71 L 499.62,23.24 L 495.79,20.00 L 494.32,20.00 L 484.90,26.18 L 479.89,32.95 L 473.12,33.54 L 456.05,40.02 L 443.97,42.08 L 443.68,44.73 L 447.51,49.44 L 452.81,55.92 L 453.69,66.23 L 452.22,68.58 L 441.62,78.30 L 431.02,88.01 L 420.72,93.90 L 403.93,113.33 L 404.23,113.04 L 401.28,118.63 L 400.11,124.23 L 401.58,130.12 L 405.40,135.12 L 420.13,143.95 L 422.19,146.31 L 424.25,151.02 L 423.95,156.03 L 415.42,180.17 L 413.06,185.47 L 404.82,198.72 L 399.81,202.84 L 393.04,207.26 L 393.33,206.96 L 377.43,211.67 L 364.04,216.24 L 350.64,220.80 L 331.80,226.39 L 308.93,234.54 L 286.06,242.68 L 263.20,250.83 L 259.96,249.65 L 245.24,235.81 L 242.59,234.64 L 240.82,234.64 L 236.11,235.52 L 220.80,248.48 L 217.27,251.13 L 211.97,251.71 L 209.02,250.24 L 196.36,238.91 L 183.70,227.57 L 177.22,224.33 L 171.04,223.45 L 168.98,223.45 L 166.33,224.63 L 155.14,233.46 L 150.43,235.52 L 133.50,239.35 L 116.57,243.18 L 100.67,247.30 L 90.96,251.42 L 85.07,252.89 L 66.23,254.66 L 59.16,256.72 L 50.91,260.84 L 33.25,271.15 L 20.00,280.27" fill="none" stroke="#d4df00" stroke-width="2" stroke-linecap="round" stroke-linejoin="round"/>
</svg>