<svg preserveAspectRatio="none" width="100%" height="100%" overflow="visible" style="display: block;" viewBox="0 0 24 19.5" fill="none" xmlns="http://www.w3.org/2000/svg">
<path id="Vector" d="M2.25 0C1.80499 0 1.36998 0.13196 0.999968 0.379193C0.629957 0.626427 0.341569 0.977829 0.171272 1.38896C0.000974893 1.8001 -0.0435826 2.2525 0.0432341 2.68895C0.130051 3.12541 0.344343 3.52632 0.659011 3.84099C0.973679 4.15566 1.37459 4.36995 1.81105 4.45677C2.24751 4.54358 2.69991 4.49903 3.11104 4.32873C3.52217 4.15843 3.87357 3.87004 4.12081 3.50003C4.36804 3.13002 4.5 2.69501 4.5 2.25C4.5 1.65326 4.26295 1.08097 3.84099 0.65901C3.41903 0.237053 2.84674 0 2.25 0ZM2.25 7.5C1.80499 7.5 1.36998 7.63196 0.999968 7.87919C0.629957 8.12643 0.341569 8.47783 0.171272 8.88896C0.000974893 9.3001 -0.0435826 9.7525 0.0432341 10.189C0.130051 10.6254 0.344343 11.0263 0.659011 11.341C0.973679 11.6557 1.37459 11.87 1.81105 11.9568C2.24751 12.0436 2.69991 11.999 3.11104 11.8287C3.52217 11.6584 3.87357 11.37 4.12081 11C4.36804 10.63 4.5 10.195 4.5 9.75C4.5 9.15326 4.26295 8.58097 3.84099 8.15901C3.41903 7.73705 2.84674 7.5 2.25 7.5ZM2.25 15C1.80499 15 1.36998 15.132 0.999968 15.3792C0.629957 15.6264 0.341569 15.9778 0.171272 16.389C0.000974893 16.8001 -0.0435826 17.2525 0.0432341 17.689C0.130051 18.1254 0.344343 18.5263 0.659011 18.841C0.973679 19.1557 1.37459 19.37 1.81105 19.4568C2.24751 19.5436 2.69991 19.499 3.11104 19.3287C3.52217 19.1584 3.87357 18.87 4.12081 18.5C4.36804 18.13 4.5 17.695 4.5 17.25C4.5 16.6533 4.26295 16.081 3.84099 15.659C3.41903 15.2371 2.84674 15 2.25 15ZM23.25 15.75H8.25C8.05109 15.75 7.86032 15.829 7.71967 15.9697C7.57902 16.1103 7.5 16.3011 7.5 16.5V18C7.5 18.1989 7.57902 18.3897 7.71967 18.5303C7.86032 18.671 8.05109 18.75 8.25 18.75H23.25C23.4489 18.75 23.6397 18.671 23.7803 18.5303C23.921 18.3897 24 18.1989 24 18V16.5C24 16.3011 23.921 16.1103 23.7803 15.9697C23.6397 15.829 23.4489 15.75 23.25 15.75ZM23.25 0.75H8.25C8.05109 0.75 7.86032 0.829018 7.71967 0.96967C7.57902 1.11032 7.5 1.30109 7.5 1.5V3C7.5 3.19891 7.57902 3.38968 7.71967 3.53033C7.86032 3.67098 8.05109 3.75 8.25 3.75H23.25C23.4489 3.75 23.6397 3.67098 23.7803 3.53033C23.921 3.38968 24 3.19891 24 3V1.5C24 1.30109 23.921 1.11032 23.7803 0.96967C23.6397 0.829018 23.4489 0.75 23.25 0.75ZM23.25 8.25H8.25C8.05109 8.25 7.86032 8.32902 7.71967 8.46967C7.57902 8.61032 7.5 8.80109 7.5 9V10.5C7.5 10.6989 7.57902 10.8897 7.71967 11.0303C7.86032 11.171 8.05109 11.25 8.25 11.25H23.25C23.4489 11.25 23.6397 11.171 23.7803 11.0303C23.921 10.8897 24 10.6989 24 10.5V9C24 8.80109 23.921 8.61032 23.7803 8.46967C23.6397 8.32902 23.4489 8.25 23.25 8.25Z" fill="var(--fill-0, #E5E7EB)"/>
</svg>
