<svg preserveAspectRatio="none" width="100%" height="100%" overflow="visible" style="display: block;" viewBox="0 0 2.51223 5.44998" fill="none" xmlns="http://www.w3.org/2000/svg">
<path id="Vector" d="M0.849894 0.287493L1.09988 0.787485L1.47483 1.28748V1.47501L1.22484 1.59998V1.91248V2.10001L1.28732 2.22498H1.41235L1.53731 2.41251L1.84977 2.66249L1.91225 2.97499L1.97481 3.16248L2.09976 3.28749L1.97481 3.41249L2.16224 3.59999L2.09976 3.66251L2.16224 3.97501L2.03729 4.09998L2.22472 4.28751L2.28727 4.60001L2.41223 4.91251V5.28749L2.34975 5.34998L2.16224 5.16249L1.97481 4.84999V4.66249L1.7873 4.41248L1.53731 4.22499L1.34987 4.03749L1.0374 3.66251L0.787416 3.47498L0.599905 2.9125L0.474948 2.2875L0.349916 1.84999V1.53749L0.287437 1.28748L0.537427 1.0375L0.474948 0.850008L0.162481 0.412501L0.100003 0.225008L0.162481 0.162485L0.41247 0.225008L0.537427 0.287493L0.724937 0.100001L0.849894 0.287493Z" fill="var(--fill-0, #E5E7EB)" stroke="var(--stroke-0, #2A3038)" stroke-width="0.2" stroke-linecap="round" stroke-linejoin="round"/>
</svg>
