<svg preserveAspectRatio="none" width="100%" height="100%" overflow="visible" style="display: block;" viewBox="0 0 19.575 23.075" fill="none" xmlns="http://www.w3.org/2000/svg">
<path id="UG" d="M15.725 0.100001L17.4125 2.9125L17.85 4.91251L19.475 9.5375L18.1625 12.475L16.4125 15.1L15.4125 16.725V16.9125L15.2875 16.6625L13.4125 15.85L11.9125 16.85L9.66253 17.4125L8.03747 19.725L8.225 21.2875L4.35003 21.225L3.10003 21.725L0.975015 22.975L0.1 22.5375L0.162485 19.5375L0.975015 17.975L1.16247 14.7875L1.91252 12.9125L3.28748 10.85L4.59997 9.725L5.78748 8.35001L4.35003 7.78749L4.53748 3.09999L5.97502 1.975L8.225 2.9125L11.0375 1.975H13.5375L15.725 0.100001Z" fill="var(--fill-0, #E5E7EB)" stroke="var(--stroke-0, #2A3038)" stroke-width="0.2" stroke-linecap="round" stroke-linejoin="round"/>
</svg>
