<svg preserveAspectRatio="none" width="100%" height="100%" overflow="visible" style="display: block;" viewBox="0 0 21.575 25.0125" fill="none" xmlns="http://www.w3.org/2000/svg">
<path id="CI" d="M11.475 0.662515L13.0375 1.53751L13.6625 2.9125L15.225 3.72501L16.475 2.72501L18.1 2.6L20.5375 3.6L21.475 9.35001L19.975 12.6625L19.0375 17.225L20.5375 20.6625L20.4125 22.2875H18.7875L16.35 21.5375H14.0375L9.84999 22.2875L7.41251 23.4125L3.91249 24.9125L3.225 24.7875L3.47498 21.475L3.85 20.975L3.72499 19.4125L2.22498 17.725L1.09999 17.475L0.100002 16.35L0.850009 14.5375L0.537509 12.6L0.662479 11.475H1.22499L1.47501 9.72502L1.22499 8.9125L1.53749 8.35001L2.84998 7.9125L1.975 4.66251L1.16251 3.03751L1.47501 1.6625L2.16249 1.35L2.66249 0.975015L3.59999 1.60002H6.35L6.975 0.475004L7.6 0.537508L8.59999 0.1L9.1625 1.78751L9.97499 1.28752L11.475 0.662515Z" fill="var(--fill-0, #E5E7EB)" stroke="var(--stroke-0, #2A3038)" stroke-width="0.2" stroke-linecap="round" stroke-linejoin="round"/>
</svg>
