<svg preserveAspectRatio="none" width="100%" height="100%" overflow="visible" style="display: block;" viewBox="0 0 17.2 24.1375" fill="none" xmlns="http://www.w3.org/2000/svg">
<path id="Vector" d="M3.66247 0.1L6.0375 1.2875L6.91252 0.225008L7.41247 1.22499L7.16254 2.9125L8.78752 5.7875L8.41254 9.1L6.60002 10.4125L6.53754 13.6625L7.78754 16.85L9.66254 17.2875L11.1625 16.85L15.85 19.0375L15.7875 21.225L17.1 22.225L16.9125 24.0375L13.975 22.1L12.4125 19.975L11.6625 21.475L9.1625 19.0375L6.0375 19.6625L4.1625 18.7875L4.10002 17.1L5.1 16.1L3.91249 15.1625L3.66247 16.6L1.60002 14.2875L0.78749 12.5375L0.100005 8.72499L1.72499 10.0375L1.0375 3.72499L1.53754 0.1H3.66247Z" fill="var(--fill-0, #E5E7EB)" stroke="var(--stroke-0, #2A3038)" stroke-width="0.2" stroke-linecap="round" stroke-linejoin="round"/>
</svg>
