<svg preserveAspectRatio="none" width="100%" height="100%" overflow="visible" style="display: block;" viewBox="0 0 6.0744 3.6375" fill="none" xmlns="http://www.w3.org/2000/svg">
<path id="Vector" d="M5.53698 0.412503L5.28699 0.662518L4.78701 1.35L4.59958 1.41249L4.16208 1.6625L4.03712 2.03749L3.78713 2.1625L3.66217 2.34999L3.5997 2.475L3.78713 2.53752L4.16208 2.34999L4.22463 2.2875L4.41207 2.10001L4.5371 1.91252L4.91204 1.72499L5.09948 1.5375L5.4745 1.35V1.5375L5.16203 1.975L5.037 2.03749L5.09948 2.41251L4.91204 2.6L4.72453 2.41251H4.47454L4.16208 2.475L3.91216 2.66249L3.47466 2.72501H2.84973L3.1622 2.41251L2.91221 2.2875L2.53726 2.41251L2.28727 2.53752V2.66249L2.09984 2.72501L1.9748 2.7875L1.91233 3.03751L1.78737 3.225L1.59986 3.16252V3.03751L1.34987 2.97499L1.09996 3.1L0.974924 3.4125L0.787489 3.5375H0.599978V3.35001V3.1L0.475022 2.85002L0.5375 2.72501L0.475022 2.66249L0.1 2.7875V2.53752L0.349989 2.34999H0.412467L0.349989 2.03749L0.5375 1.975L0.849968 2.1625L1.22491 1.91252H1.34987L1.53738 1.72499H1.66234L1.84985 1.5375V1.41249L2.34983 1.35L2.91221 1.16251L3.09972 1.09999L3.34971 1.16251L3.66217 1.0375L3.78713 0.787488H3.91216L4.03712 0.537511L4.28711 0.599995L4.34959 0.474988L4.47454 0.537511L5.09948 0.225011L5.16203 0.412503L5.28699 0.350018L5.41195 0.412503L5.59946 0.225011L5.91192 0.100003L5.9744 0.162488L5.66193 0.412503H5.53698Z" fill="var(--fill-0, #E5E7EB)" stroke="var(--stroke-0, #2A3038)" stroke-width="0.2" stroke-linecap="round" stroke-linejoin="round"/>
</svg>
