<svg preserveAspectRatio="none" width="100%" height="100%" overflow="visible" style="display: block;" viewBox="0 0 35.075 33.45" fill="none" xmlns="http://www.w3.org/2000/svg">
<path id="IQ" d="M17.9125 0.975015L20.85 5.725L23.225 6.975L23.7875 9.28751L22.35 10.6625L22.0375 13.7875L24.9125 17.6L29.35 19.85L31.5375 22.85L31.4125 25.7875H32.475L32.7875 27.9125L34.975 30.0375L32.9125 29.85L30.6 29.475L28.5375 33.35L22.1625 33.0375L11.6625 24.975L6.28753 22.1625L2.0375 21.0375L0.100012 16.1625L6.97501 11.975L7.60001 7.16251L6.85004 4.225L8.53751 3.225L9.85 0.725L11.1625 0.1L15.1 0.662515L16.4125 1.6625L17.9125 0.975015Z" fill="var(--fill-0, #E5E7EB)" stroke="var(--stroke-0, #2A3038)" stroke-width="0.2" stroke-linecap="round" stroke-linejoin="round"/>
</svg>
