<svg preserveAspectRatio="none" width="100%" height="100%" overflow="visible" style="display: block;" viewBox="0 0 44.5125 52.825" fill="none" xmlns="http://www.w3.org/2000/svg">
<path id="BO" d="M42.725 41.9125L42.5375 40.6625L39.1625 38.6L35.9125 38.5375L29.9125 39.725L28.6 43.225L28.725 45.4125L27.7875 50.225L27.1625 49.35L23.1625 49.1625L22.1625 52.4125L19.85 49.5375L15.1625 48.5375L12.6625 52.1625L10.225 52.725L8.28752 47.1625L5.97502 42.6625L6.6625 38.7875L4.66249 37.1L3.91252 34.225L1.91252 31.475L3.72499 27.1625L1.91252 23.7875L2.6 22.4125L1.84999 20.9125L3.03751 18.9125L2.85002 15.5375V12.6625L3.5375 11.35L0.1 4.84999L2.72501 5.22501L4.53752 5.1L5.22501 3.91249L8.225 2.2875L10.0375 0.787486L14.6 0.100001L14.35 3.09999L14.9125 4.66249L14.725 7.34999L18.7875 10.9125L22.7875 11.6L24.225 13.1L26.6625 13.9125L28.225 15.0375H30.4125L32.5375 16.225L32.85 18.5375L33.6 19.725L33.7875 21.4125L32.725 21.475L34.475 26.1625L41.1625 26.35L40.85 28.6625L41.35 30.225L43.35 31.35L44.4125 33.85L44.0375 37.0375L43.225 38.7875L43.725 41.0375L42.725 41.9125Z" fill="var(--fill-0, #E5E7EB)" stroke="var(--stroke-0, #2A3038)" stroke-width="0.2" stroke-linecap="round" stroke-linejoin="round"/>
</svg>
