<svg preserveAspectRatio="none" width="100%" height="100%" overflow="visible" style="display: block;" viewBox="0 0 3.51211 2.76252" fill="none" xmlns="http://www.w3.org/2000/svg">
<path id="Vector" d="M0.349989 0.162523L0.537424 0.1L0.91237 0.287492L1.22484 0.599992L1.41235 0.787523H1.5373L1.66234 0.912492H1.78729L1.9748 1.10002L2.16224 1.0375L2.41223 1.10002L2.53726 1.22499H2.78717L2.97468 1.16251L3.09964 1.35L3.22467 1.84999L3.41211 2.03752V2.35002L3.28715 2.47499L3.34963 2.66252L3.09964 2.53752L2.91221 2.66252L2.7247 2.6L2.41223 2.41251H2.28727L1.91233 2.2875L1.66234 2.22502L1.5373 2.03752L1.34987 1.91252L1.16236 1.84999L1.0374 1.6625L0.787413 1.53749L0.91237 1.28752L0.849891 1.0375V0.787523L0.724935 0.725L0.349989 0.599992L0.162478 0.662515L0.1 0.537508L0.162478 0.350015L0.224957 0.162523H0.349989Z" fill="var(--fill-0, #E5E7EB)" stroke="var(--stroke-0, #2A3038)" stroke-width="0.2" stroke-linecap="round" stroke-linejoin="round"/>
</svg>
