<svg preserveAspectRatio="none" width="100%" height="100%" overflow="visible" style="display: block;" viewBox="0 0 47.95 46.1375" fill="none" xmlns="http://www.w3.org/2000/svg">
<path id="VE" d="M47.85 15.35L44.9125 17.725L44.6 19.1625L45.725 20.6625L44.85 21.4125L42.6625 22.0375V23.9125L41.6625 25.0375L43.975 28.0375L44.4125 29.1625L43.1 30.725L39.1 32.225L36.5375 32.85L35.475 33.7875L32.6625 32.7875L30.1 32.2875L29.4125 32.6625L30.975 33.6625L30.7875 36.35L31.225 38.9125L34.225 39.225L34.4125 40.1L31.85 41.225L31.4125 42.9125L29.9125 43.6L27.2875 44.5375L26.6 45.7875L23.85 46.0375L21.9125 43.9125L20.9125 39.9125L19.975 38.475L18.725 37.6L20.5375 35.6L20.4125 34.725L19.475 33.5375L18.7875 30.85L19.1625 27.975L19.975 26.6L20.725 24.475L19.475 23.7875L17.475 24.225L14.9125 24.0375L13.475 24.475L11.1 20.975L9.03749 20.475L4.475 20.85L3.72499 19.475L2.85002 19.1625L2.78749 18.2875L3.225 16.7875L3.03751 15.225L2.2875 14.2875L1.91252 12.475L0.1 12.225L1.22499 9.84999L1.78751 6.975L2.9125 5.47499L4.34999 4.34999L5.35002 2.34999L7.66252 1.6625L7.53752 2.6L5.4125 3.09999L6.47501 4.91249L6.28752 7.03749L4.60001 9.34999L5.78752 12.5375L7.35002 12.2875L8.28752 9.34999L7.22502 7.97499V4.91249L11.725 3.28749L11.35 1.41249L12.6625 0.100002L13.725 2.97499L16.225 3.03749L18.35 5.22499L18.475 6.6H21.6L25.4125 6.22499L27.35 7.97499L29.975 8.475L32.0375 7.225L32.1 6.22499L36.5375 5.975L40.725 5.91249L37.6625 7.09999L38.7875 9.03749L41.6 9.28749L44.225 11.2875L44.6625 14.475L46.475 14.4125L47.85 15.35Z" fill="var(--fill-0, #E5E7EB)" stroke="var(--stroke-0, #2A3038)" stroke-width="0.2" stroke-linecap="round" stroke-linejoin="round"/>
</svg>
