<svg preserveAspectRatio="none" width="100%" height="100%" overflow="visible" style="display: block;" viewBox="0 0 93.7625 73.2" fill="none" xmlns="http://www.w3.org/2000/svg">
<path id="MX" d="M59.475 27.725L60.85 27.6L58.85 31.1625L57.725 34.0375L56.6 39.4125L55.9125 41.35L56.1625 43.5375L56.975 45.5375L57.225 48.6L59.1 51.6L59.6 53.9125L60.6625 55.85L64.225 56.9125L65.4125 58.6L68.6625 57.475L71.35 57.1L74.1 56.35L76.35 55.6625L78.7875 54.0375L79.9125 51.725L80.6625 48.35L81.4125 47.1625L83.9125 46.1L87.725 45.1625L90.7875 45.35L92.9125 44.975L93.6625 45.85L93.2875 47.7875L91.1 50.1625L89.975 52.6L90.5375 53.2875L89.7875 55.0375L88.475 58.1625L87.725 57.1L87.0375 57.1625L86.35 57.225L84.7875 59.6625L84.225 59.1625L83.7875 59.35L83.725 59.975L80.475 59.9125H77.225L76.9125 62.1625L75.35 62.225L76.475 63.5375L77.6625 64.475L77.975 65.35L78.475 65.6L78.225 66.975H73.725L71.6625 70.225L72.1 70.975L71.6 71.9125L71.35 73.1L67.85 68.7875L66.225 67.475L63.475 66.4125L61.475 66.725L58.475 68.225L56.6625 68.6L54.35 67.5375L51.7875 66.7875L48.7875 64.975L46.225 64.4125L42.5375 62.5375L39.85 60.6L39.1625 59.5375L37.225 59.2875L33.85 58.0375L32.6625 56.225L29.2875 53.9125L27.9125 51.4125L27.4125 49.4125L28.6 49.0375L28.4125 47.9125L29.4125 46.85L29.6625 45.475L28.725 43.6625V42.1L27.9125 40.0375L25.5375 36.0375L22.6625 32.9125L21.475 30.4125L18.9125 28.7875L18.475 27.7875L19.5375 25.35L18.0375 24.4125L16.475 22.4125L16.35 19.6625L14.6 19.2875L13.1625 17.225L12.1 15.225L12.2875 13.975L11.35 10.975L11.1625 7.9125L11.6625 6.35L9.72502 4.725L8.5375 4.91249L7.0375 3.85L5.91251 5.47499L5.85001 7.34999L5.22501 10.4125L5.85001 12.0375L7.6 14.7875L7.85002 15.7875L8.2875 16.0375L8.35001 17.4125L8.97501 17.35V19.975L9.7875 20.975L10.1 22.4125L11.7875 24.4125L12.0375 28.1625L12.6625 29.9125L13.225 31.7875L13.0375 33.9125L14.6625 34.0375L15.6625 35.85L16.6 37.6625L16.4125 38.4125L14.6625 39.85H14.0375L13.6 37.4125L11.7875 35.1L9.66251 33.1625L8.10001 32.1625L8.85 29.225L8.78752 27.0375L7.47501 25.7875L5.53751 24.0375L4.97501 24.5375L4.35001 23.475L2.47501 22.5375L1.1 20.1625L1.4125 19.9125L2.72501 20.1L4.41252 18.6L5.03752 16.7875L3.225 13.9125L1.60002 12.85L1.1 10.35L0.725001 7.66249L0.225009 4.475L0.100001 0.84999L4.03751 0.53749L8.47502 0.100002L7.9125 0.912494L12.2875 2.85L19.1 5.6625H25.85H28.5375L29.0375 3.97499H34.9125L35.725 5.4125L37.0375 6.72499L38.5375 8.475L39.0375 10.5375L39.2875 12.7875L40.725 13.975L43.225 15.1625L46.225 12.0375L49.0375 11.9125L51.0375 13.5375L52.0375 16.2875L52.6 18.6625L54.1 20.9125L54.225 23.725L54.7875 25.6L57.225 26.85L59.475 27.725Z" fill="var(--fill-0, #E5E7EB)" stroke="var(--stroke-0, #2A3038)" stroke-width="0.2" stroke-linecap="round" stroke-linejoin="round"/>
</svg>
