<svg preserveAspectRatio="none" width="100%" height="100%" overflow="visible" style="display: block;" viewBox="0 0 42.5125 51.5125" fill="none" xmlns="http://www.w3.org/2000/svg">
<path id="MR" d="M42.4125 9.85001L37.1 9.91251L38.6 27.225L40.1625 44.5375L40.7875 45.0375L39.975 47.85L25.9125 47.9125L25.35 48.7875L24.0375 48.5375L22.0375 49.35L19.6 48.225L18.475 48.2875L17.85 50.6625L16.6625 51.4125L14.4125 48.6625L12.2875 45.6625L10.0375 44.6L8.35001 43.475H6.41249L4.66249 44.35L2.97499 44.0375L1.72499 45.2875L1.47501 43.1625L2.47499 41.1625L2.97499 37.4125L2.72501 33.4125L2.34999 31.4125L2.72501 29.4125L1.84999 27.5375L0.100002 25.7875L0.912494 24.475H14.475L13.9125 18.6625L14.85 16.6L18.1 16.2875L18.225 5.975L29.475 6.22501L29.6 0.100001L42.4125 9.85001Z" fill="var(--fill-0, #E5E7EB)" stroke="var(--stroke-0, #2A3038)" stroke-width="0.2" stroke-linecap="round" stroke-linejoin="round"/>
</svg>
