<svg preserveAspectRatio="none" width="100%" height="100%" overflow="visible" style="display: block;" viewBox="0 0 97.95 110.7" fill="none" xmlns="http://www.w3.org/2000/svg">
<path id="IN" d="M40.1625 21.4125L38.4125 23.2875L37.85 27.0375L41.475 28.5375L45.1 30.475L49.975 32.725L54.7875 33.2875L57.1625 35.2875L59.85 35.6625L64.1625 36.6L67.0375 36.5375L67.1 34.975L66.1625 32.4125L66.0375 30.725L67.975 29.85L68.9125 33.0375L69.1625 33.7875L72.6 35.35L74.6 34.725L77.5375 34.975L80.35 34.85L80.0375 32.4125L78.4125 31.1L81.0375 30.6L83.475 27.6L86.85 25.1L89.9125 26.0375L91.9125 24.35L94.1625 26.85L93.4125 28.5375L97.225 29.1625L97.85 30.6625L96.7875 31.4125L97.6625 33.85L95.0375 33.1625L91.1625 35.9125L91.725 38.225L90.475 41.6L90.6625 43.5375L89.6625 46.85L86.7875 45.9125L87.35 50.1L86.725 51.475L87.35 53.1625L85.7875 54.1L83.0375 47.725H82.1L81.9125 50.35L79.6625 48.225L80.4125 45.975L81.9125 45.725L82.9125 42.35L80.7875 41.6625L77.6 41.725L74.225 41.1625L73.475 38.35L71.7875 38.1625L68.725 36.4125L67.975 39.1625L70.85 41.2875L68.975 42.7875L68.4125 44.225L70.725 45.2875L70.5375 47.725L72.1625 50.725L73.1625 54.0375L72.85 55.5375L70.475 55.475L66.35 56.2875L66.9125 59.2875L65.4125 61.6625L60.725 64.4125L57.4125 69.1L55.0375 71.6625L51.9125 74.2875L52.1 76.1L50.475 77.1L47.475 78.5375L45.85 78.725L45.1 81.7875L46.2875 87.0375L46.725 90.35L45.5375 94.1625L45.975 100.975L44.1625 101.163L42.725 104.225L43.9125 105.6L40.725 106.725L39.6625 109.412L38.2875 110.6L34.7875 106.85L32.85 101.225L31.2875 97.1625L29.9125 95.2875L27.7875 91.4125L26.5375 86.4125L25.6625 83.9125L21.975 78.4125L19.7875 70.6L18.1625 65.475L17.6625 60.6L16.6 56.85L11.7875 59.2875L9.28747 58.7875L4.22499 53.9125L5.72501 52.475L4.53749 50.9125L0.100005 47.475L2.09997 44.7875H9.66254L8.53751 41.35L6.35001 39.35L5.47499 36.225L2.97499 34.475L6.03751 30.225L10.1 30.5375L12.9125 26.35L14.2875 22.2875L16.725 18.225L16.1 15.35L18.475 13.0375L15.2875 11.1L13.475 8.35001L11.4125 4.85L12.6625 3.10001L17.975 4.1L21.5375 3.475L23.9125 0.1L28.725 4.85L29.225 8.10001L31.1 10.1625L31.475 12.225L28.9125 11.6625L30.9125 16.1L34.7875 18.6L40.1625 21.4125Z" fill="var(--fill-0, #E5E7EB)" stroke="var(--stroke-0, #2A3038)" stroke-width="0.2" stroke-linecap="round" stroke-linejoin="round"/>
</svg>
