<svg preserveAspectRatio="none" width="100%" height="100%" overflow="visible" style="display: block;" viewBox="0 0 57.8875 59.8875" fill="none" xmlns="http://www.w3.org/2000/svg">
<path id="ML" d="M57.725 23.4125L57.7875 32.6625L55.85 35.35L55.6 37.85L52.475 38.475L47.6625 38.7875L46.4125 40.225L44.1625 40.4125H41.9125L41.0375 39.6625L39.1 40.225L35.7875 41.9125L35.1 43.1625L32.4125 44.9125L31.9125 45.975L30.4125 46.7875L28.725 46.225L27.7875 47.225L27.225 49.975L24.4125 53.2875L24.5375 54.6625L23.5375 56.35L23.7875 58.6625L22.2875 59.2875L21.475 59.7875L20.9125 58.1L19.9125 58.5375L19.2875 58.475L18.6625 59.6H15.9125L14.975 58.975L14.475 59.35L13.4125 58.1625L13.6 56.975L13.1625 56.5375L12.4125 56.9125L12.6 55.6L13.2875 54.6L11.85 52.9125L11.475 51.7875L10.6625 50.9125L9.97499 50.7875L9.1625 51.35L7.97499 51.9125L7.03749 52.7875L5.53751 52.475L4.53749 51.4125L3.97501 51.2875L3.03751 51.85H2.47499L2.2875 50.35L2.47499 49.1L2.16249 47.6L0.912493 46.475L0.225008 44.1625L0.1 41.6625L1.28752 40.9125L1.91252 38.5375L3.03751 38.475L5.47499 39.6L7.47499 38.7875L8.78752 39.0375L9.34999 38.1625L23.4125 38.1L24.225 35.2875L23.6 34.7875L22.0375 17.475L20.5375 0.162504L25.85 0.1L37.475 8.85L49.1625 17.6L49.975 19.475L52.1625 20.6L53.7875 21.2875L53.85 23.85L57.725 23.4125Z" fill="var(--fill-0, #E5E7EB)" stroke="var(--stroke-0, #2A3038)" stroke-width="0.2" stroke-linecap="round" stroke-linejoin="round"/>
</svg>
