<svg preserveAspectRatio="none" width="100%" height="100%" overflow="visible" style="display: block;" viewBox="0 0 10.7 30.575" fill="none" xmlns="http://www.w3.org/2000/svg">
<path id="MW" d="M7.72506 17.475H7.975L9.16251 18.7875L10.5376 21.6625L10.6 26.85L9.03754 27.6625L7.85003 30.475L5.66253 27.975L5.53756 25.1625L6.35001 23.2875L6.22504 21.6625L4.85 20.6625L3.9125 21.0375L1.91253 19.1L0.100013 18.1L1.35001 14.35L2.47504 12.975L1.91253 9.60001L2.72506 6.35001L3.35006 5.28754L2.53753 1.91252L0.912543 0.100007L4.35004 0.850014L4.97504 1.91252L4.91256 2.41251L6.03751 4.97504L6.16256 9.78751L5.03753 12.0375L6.03751 14.975L5.91254 16.725L6.66251 17.9125L6.60003 19.4125L7.16254 20.2875L7.78754 19.2875L8.97506 20.85L9.10003 20.35L8.47503 18.225L7.78754 18.0375L7.72506 17.475Z" fill="var(--fill-0, #E5E7EB)" stroke="var(--stroke-0, #2A3038)" stroke-width="0.2" stroke-linecap="round" stroke-linejoin="round"/>
</svg>
