<svg preserveAspectRatio="none" width="100%" height="100%" overflow="visible" style="display: block;" viewBox="0 0 33.325 24.95" fill="none" xmlns="http://www.w3.org/2000/svg">
<path id="Vector" d="M28.9125 11.35L25.7875 10.6625H21.725L20.6625 15.225L19.35 16.6L17.725 22.1625L14.85 23.0375L11.475 21.9125L9.7875 22.2875L7.72497 24.2875L5.47499 24.0375L3.16252 24.85L0.725004 22.5375L0.100004 19.85L2.72497 21.225L5.4125 20.475L6.0375 17.1L7.53752 16.35L11.7875 15.475L14.1625 12.2875L15.7875 9.7875L17.5375 11.85L18.225 10.475L19.9125 10.6L19.975 8.03751L20.0375 6.0375L22.6 3.2875L24.225 0.162504L25.6625 0.1L27.6 2.16251L27.85 3.9125L30.225 5.03751L33.225 6.22501L33.1 7.78751L30.725 7.975L31.4125 9.97501L28.9125 11.35Z" fill="var(--fill-0, #E5E7EB)" stroke="var(--stroke-0, #2A3038)" stroke-width="0.2" stroke-linecap="round" stroke-linejoin="round"/>
</svg>
