<svg preserveAspectRatio="none" width="100%" height="100%" overflow="visible" style="display: block;" viewBox="0 0 32.0125 16.2" fill="none" xmlns="http://www.w3.org/2000/svg">
<path id="KG" d="M31.9125 3.91249L31.7875 4.7875L27.475 6.9125L26.85 8.5375L22.85 8.975L22.475 11.5375L18.85 10.975L16.85 11.7875L14.2875 13.6625L15.0375 14.6L14.35 15.475L8.35005 16.1L3.91249 14.7875L0.474986 15.1L0.100001 12.85L3.85 13.475L4.72502 12.2875L7.2875 12.6625L10.6 9.7875L6.09999 7.6625L4.10002 8.6625L1.22503 7.16249L3.10003 4.6L2.03749 4.22499L2.22502 2.47499L4.1625 1.9125L9.91255 3.28749L9.60005 0.974996L11.1625 0.1L16.2875 1.7875L17.2875 1.35L22.6625 1.475L27.6 1.84999L29.725 3.28749L31.9125 3.91249Z" fill="var(--fill-0, #E5E7EB)" stroke="var(--stroke-0, #2A3038)" stroke-width="0.2" stroke-linecap="round" stroke-linejoin="round"/>
</svg>
