<svg preserveAspectRatio="none" width="100%" height="100%" overflow="visible" style="display: block;" viewBox="0 0 2.51223 2.7" fill="none" xmlns="http://www.w3.org/2000/svg">
<path id="Vector" d="M1.59986 1.0375L1.5373 1.22499H1.66234H1.9748L2.22479 1.6625V1.78747L2.34975 1.975L2.41223 2.2875L2.28727 2.41247V2.6L1.91233 2.47499L1.78729 2.34998H1.59986L1.34987 2.16249L1.28739 2.03748L1.22484 1.84999L1.47483 1.91248L1.28739 1.41248L1.22484 1.28748L0.912369 1.35L0.787413 1.41248H0.537424L0.349989 1.6625L0.1 1.53749V1.16247L0.224956 1.0375H0.474946V0.787485L0.724935 0.4125L0.974924 0.22497L1.16236 0.1L1.41235 0.287492L1.5373 0.53747L1.47483 0.974977L1.59986 1.0375Z" fill="var(--fill-0, #E5E7EB)" stroke="var(--stroke-0, #2A3038)" stroke-width="0.2" stroke-linecap="round" stroke-linejoin="round"/>
</svg>
