<svg preserveAspectRatio="none" width="100%" height="100%" overflow="visible" style="display: block;" viewBox="0 0 38.5125 144.325" fill="none" xmlns="http://www.w3.org/2000/svg">
<path id="Vector" d="M13.2875 20.7875L13.85 21.7875L13.1 25.975L9.60002 27.9125L10.6 34.6L10.1 35.9125L11.35 37.475L9.28752 39.975L7.66253 43.725L7.10002 47.4125L8.16252 51.2875L6.85 55.4125L9.91252 62.35L10.9125 63.1L11.7875 66.7875L10.7875 70.6625L11.6625 74.0375L9.78751 76.6625L10.7875 80.2875L12.85 84.225L11.2875 85.6625L11.4125 89.225L11.9125 93.2875L13.975 98.1625L12.9125 98.975L15.225 103.538L17.1625 105.037L16.6625 106.725L18.4125 107.475L19.2875 108.975L18.1625 109.725L19.2875 112.037L19.975 117.225L19.5375 120.6L20.6625 122.6L20.6 125.037L18.9125 126.788L20.85 130.85L22.475 132.288L24.4125 132.037L25.6 134.913L27.7875 137.162L35.35 137.662L38.4125 138.287H35.725L34.6625 139.225L32.5375 140.6L33.6 144.163L32.4125 144.225L28.475 143.038L23.7875 140.35L19.0375 138.162L17.0375 135.725L16.85 133.475L14.225 130.85L11.1 124.225L10.975 120.475L13.1 117.475L7.91251 116.287L9.60002 112.85L8.35002 106.287L12.4125 107.662L11.2875 99.475L8.78752 98.4125L9.41252 103.35L7.22502 102.787L6.28752 97.1625L5.03752 89.7875L5.72501 87.0375L3.66252 83.1625L2.1625 78.6625L3.53751 78.475L3.91253 72.0375L4.6625 65.6L4.72502 59.6625L2.66253 53.6L3.03752 50.2875L1.72503 45.35L2.85002 40.475L2.28751 32.725V24.35L2.35003 15.4125L1.41253 8.85L0.100008 3.16248L1.85 2.16249L2.53752 0.100003L4.53753 2.84998L5.2875 5.725L7.28751 7.41251L6.60002 11.2875L8.91253 15.7875L10.85 21.35L13.2875 20.7875Z" fill="var(--fill-0, #E5E7EB)" stroke="var(--stroke-0, #2A3038)" stroke-width="0.2" stroke-linecap="round" stroke-linejoin="round"/>
</svg>
