<svg preserveAspectRatio="none" width="100%" height="100%" overflow="visible" style="display: block;" viewBox="0 0 20.4499 21.825" fill="none" xmlns="http://www.w3.org/2000/svg">
<path id="Vector" d="M18.9125 4.1L16.9124 3.975L15.225 3.6L11.35 4.6L13.85 6.85L12.2875 7.5375H10.475L8.5375 5.475L7.97499 6.35L8.97497 8.725L10.7875 10.6L9.59997 11.475L11.5999 13.2875L13.35 14.475L13.6 16.725L10.475 15.6625L11.5999 17.725L9.53749 18.1L11.1 21.6625L8.91249 21.725L6.0375 19.975L4.53749 16.7875L3.72495 14.1L2.2875 12.2875L0.412501 9.975L0.100001 8.85L1.47497 6.9125L1.53745 5.6L2.6 5.0375L2.53744 3.975L4.66245 3.6625L5.78749 2.7875L7.53744 2.85L8.03747 2.1625L8.66247 2.0375L11.0375 2.1625L13.5375 1.0375L15.9749 2.475L18.85 2.1L18.6625 0.1L20.3499 1.1625L19.6625 3.6625L18.9125 4.1Z" fill="var(--fill-0, #E5E7EB)" stroke="var(--stroke-0, #2A3038)" stroke-width="0.2" stroke-linecap="round" stroke-linejoin="round"/>
</svg>
