<svg preserveAspectRatio="none" width="100%" height="100%" overflow="visible" style="display: block;" viewBox="0 0 29.2625 34.6375" fill="none" xmlns="http://www.w3.org/2000/svg">
<path id="LA" d="M29.0375 33.225L25.725 31.7875L24.475 34.5375L21.35 32.975L22.2875 31.1625L22.0375 27.7875L18.725 24.2875L17.9125 20.2875L14.7875 17.0375L12.1 16.7875L11.6 18.1625L9.59998 18.2875L8.41254 17.6L5.10001 19.975L4.47501 16.35L4.72502 12.1625L2.34999 11.975L1.78748 9.53751L0.100007 8.28751L0.600037 6.85L3.16252 4.22501L3.66248 5.16251L5.53748 5.2875L4.28748 0.662502L5.97502 0.100006L8.47502 3.28751L10.6625 6.9125H14.9125L16.7875 10.4125L14.725 11.475L13.975 12.9125L18.5375 15.35L22.1 20.1L24.85 23.6L27.9125 26.4125L29.1625 29.225L29.0375 33.225Z" fill="var(--fill-0, #E5E7EB)" stroke="var(--stroke-0, #2A3038)" stroke-width="0.2" stroke-linecap="round" stroke-linejoin="round"/>
</svg>
