<svg preserveAspectRatio="none" width="100%" height="100%" overflow="visible" style="display: block;" viewBox="0 0 55.2 54.575" fill="none" xmlns="http://www.w3.org/2000/svg">
<path id="LY" d="M53.225 6.35L52.1625 8.2875L52.7875 10.0375L52.1 12.475L53.35 15.725L54.1625 29.975L54.7875 44.7875L55.1 52.7875H51.1V54.475L36.975 46.7875L22.9125 39.1L19.475 41.2875L17.1 42.7875L15.1 40.6L9.60005 38.85L8.03755 36.35L5.22505 34.475L3.66255 35.225L2.34998 32.975L2.22502 31.2875L0.1 28.35L1.47505 26.6625L1.09998 24.1625L1.47505 21.975L1.22503 20.1L1.72498 16.85L1.47505 14.975L0.287531 11.4125L1.91252 10.5375L2.16253 8.7875L1.78755 7.16249L4.03753 5.59999L5.03752 4.28749L6.6625 3.1625L6.72498 0.100001L10.725 1.47499L12.1625 1.1L14.975 1.78749L19.5375 3.6L21.2875 7.16249L24.35 7.9125L29.225 9.59999L32.975 11.6L34.5375 10.5375L36.1 8.72499L35.1 5.6625L36.0375 3.66249L38.35 1.78749L40.6625 1.2875L45.2875 2.09999L46.5375 3.85L47.7875 3.9125L48.9125 4.59999L52.2875 5.0375L53.225 6.35Z" fill="var(--fill-0, #E5E7EB)" stroke="var(--stroke-0, #2A3038)" stroke-width="0.2" stroke-linecap="round" stroke-linejoin="round"/>
</svg>
