<svg preserveAspectRatio="none" width="100%" height="100%" overflow="visible" style="display: block;" viewBox="0 0 14.5125 15.7" fill="none" xmlns="http://www.w3.org/2000/svg">
<path id="RS" d="M12.9125 7.725L12.225 8.6L12.6625 10.1L14.4125 11.7875L13.2875 13.0375L12.9125 14.2875L13.2875 14.7875L12.85 15.2875L11.35 15.4125L10.2875 15.6L10.1 15.2875L10.475 14.85L10.725 13.85L10.2875 13.9125L9.59997 13.1625L9.03753 12.975L8.5375 12.35L7.9125 12.1L7.41247 11.5375L6.85003 11.7875L6.53753 13.1L5.78749 13.35L6.0375 13.0375L4.72502 12.225L3.66247 11.7875L3.10003 11.225L2.22502 10.5375L2.9125 10.35L3.225 8.5375L1.53753 6.975L2.22502 5.225L1.0375 5.2875L2.09997 3.7875L1.0375 2.6625L0.1 1.1L2.41247 0.1L4.41252 0.287502L6.28752 1.7875L6.78747 3.1L8.78752 3.975L9.22499 5.6L11.1625 6.7875L12.1 5.9125L12.9125 6.35L12.2875 7.0375L12.9125 7.725Z" fill="var(--fill-0, #E5E7EB)" stroke="var(--stroke-0, #2A3038)" stroke-width="0.2" stroke-linecap="round" stroke-linejoin="round"/>
</svg>
