<svg preserveAspectRatio="none" width="100%" height="100%" overflow="visible" style="display: block;" viewBox="0 0 18.325 16.075" fill="none" xmlns="http://www.w3.org/2000/svg">
<path id="HR" d="M16.225 2.41251L17.1625 3.97501L18.225 5.1L17.1625 6.60001L15.6625 5.725L13.475 5.7875L10.6625 5.1L9.22506 5.1625L8.60006 6.0375L7.35006 5.1L6.85003 6.725L8.5375 8.6L9.35003 9.7875L10.9125 11.2875L12.225 12.1625L13.5375 13.85L16.5375 15.35L16.225 15.975L13.1 14.5375L11.1001 13.1L8.10003 11.9125L5.16256 9.0375L5.78756 8.725L4.22506 7.0375L4.03753 5.725L1.975 5.1L1.10006 6.78751L0.1 5.475V4.10001L0.162561 4.0375L2.41255 4.1625L2.9125 3.5375L4.03753 4.1625L5.28753 4.225L5.22505 3.16251L6.28752 2.72501L6.47505 1.16251L8.91256 0.1L9.91255 0.600002L12.4125 2.2875L15.1 3.03751L16.225 2.41251Z" fill="var(--fill-0, #E5E7EB)" stroke="var(--stroke-0, #2A3038)" stroke-width="0.2" stroke-linecap="round" stroke-linejoin="round"/>
</svg>
