<svg preserveAspectRatio="none" width="100%" height="100%" overflow="visible" style="display: block;" viewBox="0 0 4.82446 4.32499" fill="none" xmlns="http://www.w3.org/2000/svg">
<path id="Vector" d="M0.537424 0.287493L0.66238 0.225008L0.974848 0.4125L1.16236 0.474985L1.28732 0.599993L1.47483 0.912493L1.66234 0.974977L1.84977 1.16251V1.35L2.16224 1.41249V1.59998L2.34975 1.6625L2.53718 1.59998L2.59974 1.6625L2.84965 1.78751L2.91221 1.91248L3.09964 1.84999L3.28715 1.91248L3.34963 2.10001L3.59962 2.2875L3.78705 2.47499L4.03704 2.66249L4.66198 3.28749L4.47454 3.5375L4.66198 3.85L4.72446 4.22499L4.53702 4.1625L4.34951 3.91249L3.91209 3.41249L3.6621 3.35001L3.34963 3.09999L2.97468 3.03751L2.91221 2.84998L2.53718 2.72501L2.22472 2.41251H2.09976L1.59978 2.03749L1.28732 1.84999V1.72499L1.0374 1.59998L0.912369 1.47501L0.787413 1.22499L0.537424 1.0375L0.474946 0.912493V0.662477L0.224956 0.349977L0.1 0.287493V0.1L0.537424 0.287493Z" fill="var(--fill-0, #E5E7EB)" stroke="var(--stroke-0, #2A3038)" stroke-width="0.2" stroke-linecap="round" stroke-linejoin="round"/>
</svg>
