<svg preserveAspectRatio="none" width="100%" height="100%" overflow="visible" style="display: block;" viewBox="0 0 54.5125 47.6375" fill="none" xmlns="http://www.w3.org/2000/svg">
<path id="NE" d="M50.475 2.5375L51.475 8.7875L52.85 9.85L52.9125 11.1L54.4125 12.475L53.6625 14.225L52.5375 22.35L52.4125 27.6L48.0375 31.35L46.6 36.6625L48.1 38.1625V40.725L50.4125 40.7875L50.0375 42.725L49.1 42.9125L48.975 44.225L48.35 44.2875L45.9125 39.9125L45.0375 39.725L42.35 41.975L39.6 40.7875L37.725 40.6L36.725 41.1625L34.6625 41.0375L32.6 42.725L30.7875 42.85L26.5375 40.7875L24.85 41.725L23.0375 41.6625L21.725 40.1625L18.225 38.6625L14.4125 39.1625L13.5375 39.975L13.0375 42.2875L12.0375 43.9125L11.7875 47.5375L9.10002 45.225H7.85002L6.6625 46.4125L6.72498 43.6625L2.66248 42.725L2.53752 40.7875L0.599992 38.1625L0.1 36.35L0.4125 34.4125L2.66248 34.225L3.91248 32.7875L8.72499 32.475L11.85 31.85L12.1 29.35L14.0375 26.6625L13.975 17.4125L18.85 15.6625L28.85 7.78749L40.6 0.1L46.1 1.84999L48.1 4.03749L50.475 2.5375Z" fill="var(--fill-0, #E5E7EB)" stroke="var(--stroke-0, #2A3038)" stroke-width="0.2" stroke-linecap="round" stroke-linejoin="round"/>
</svg>
