<svg preserveAspectRatio="none" width="100%" height="100%" overflow="visible" style="display: block;" viewBox="0 0 13.6375 28.3875" fill="none" xmlns="http://www.w3.org/2000/svg">
<path id="TN" d="M13.5375 16.975L13.475 20.0375L11.85 21.1625L10.85 22.475L8.60006 24.0375L8.97505 25.6625L8.72503 27.4125L7.10005 28.2875L5.47506 21.1L3.35005 19.475L3.28756 18.5375L0.475062 16.1L0.100001 13.1L2.10005 10.85L2.78753 7.5375L2.16253 3.72499L2.78753 1.6625L6.35 0.1L8.66255 0.537489V2.6L11.4126 1.1L11.6625 1.84999L10.1 3.85L10.1626 5.6625L11.35 6.6625L11.0375 10.1625L8.85 12.1625L9.60005 14.35L11.35 14.4125L12.225 16.35L13.5375 16.975Z" fill="var(--fill-0, #E5E7EB)" stroke="var(--stroke-0, #2A3038)" stroke-width="0.2" stroke-linecap="round" stroke-linejoin="round"/>
</svg>
