<svg preserveAspectRatio="none" width="100%" height="100%" overflow="visible" style="display: block;" viewBox="0 0 20 20" fill="none" xmlns="http://www.w3.org/2000/svg">
<g id="Layer_18">
<path id="Shape" fill-rule="evenodd" clip-rule="evenodd" d="M10 20C4.47715 20 0 15.5228 0 10C0 4.47715 4.47715 0 10 0C12.6522 0 15.1957 1.05357 17.0711 2.92893C18.9464 4.8043 20 7.34784 20 10C20 15.5228 15.5228 20 10 20ZM12.7 9.29C12.8893 9.47777 12.9958 9.73336 12.9958 10C12.9958 10.2666 12.8893 10.5222 12.7 10.71L8.7 14.71C8.51374 14.8947 8.26234 14.9989 8 15C7.7342 15.0015 7.47872 14.8972 7.29 14.71C7.10069 14.5222 6.9942 14.2666 6.9942 14C6.9942 13.7334 7.10069 13.4778 7.29 13.29L10.58 10L7.31 6.71C7.05634 6.45634 6.95728 6.08663 7.05012 5.74012C7.14297 5.39362 7.41362 5.12297 7.76012 5.03012C8.10663 4.93728 8.47634 5.03634 8.73 5.29L12.7 9.29ZM10 2C14.4183 2 18 5.58172 18 10C18 12.1217 17.1571 14.1566 15.6569 15.6569C14.1566 17.1571 12.1217 18 10 18C5.58172 18 2 14.4183 2 10C2 5.58172 5.58172 2 10 2Z" fill="var(--fill-0, #E5E7EB)"/>
</g>
</svg>
