<svg preserveAspectRatio="none" width="100%" height="100%" overflow="visible" style="display: block;" viewBox="0 0 5.19948 4.07497" fill="none" xmlns="http://www.w3.org/2000/svg">
<path id="Vector" d="M4.28703 0.287493L4.22455 0.537471L4.41207 0.662478L4.47454 0.849971L4.66198 1.09999L4.84949 1.16247L4.91197 1.35H5.037L5.09948 1.59998L4.91197 1.91248L4.97445 2.03749L5.037 2.34999L4.84949 2.47499V2.78749H4.97445L5.037 3.09999L4.84949 3.28749L4.47454 3.41249L4.41207 3.28749L4.22455 3.34997L4.16208 3.47498L3.97457 3.28749L3.47466 3.47498L2.97469 3.91249L2.78717 3.85L2.53726 3.97497L2.34975 3.91249L1.9748 3.97497L1.78729 3.85L1.22484 3.66247L1.0374 3.59999L0.662457 3.5375L0.537424 3.47498L0.224957 3.34997L0.1 2.72497L0.287435 2.2875H0.474946L0.662457 2.22498L0.724935 1.91248L0.91237 1.84999L0.974924 1.59998L0.849891 1.47497L1.22484 1.22499L1.47483 0.912493L1.5373 0.974978L1.91233 0.662478H2.03728L2.59974 0.412501L2.97469 0.537471L3.1622 0.474986L3.47466 0.349978L3.84961 0.287493L4.03704 0.100001L4.28703 0.287493Z" fill="var(--fill-0, #E5E7EB)" stroke="var(--stroke-0, #2A3038)" stroke-width="0.2" stroke-linecap="round" stroke-linejoin="round"/>
</svg>
