<svg preserveAspectRatio="none" width="100%" height="100%" overflow="visible" style="display: block;" viewBox="0 0 71.5125 72.7" fill="none" xmlns="http://www.w3.org/2000/svg">
<path id="DZ" d="M57.7875 0.787504L57.1625 2.85L57.7875 6.6625L57.1 9.97499L55.1 12.225L55.475 15.225L58.2875 17.6625L58.35 18.6L60.475 20.225L62.1 27.4125L63.2875 30.975L63.5375 32.85L63.0375 36.1L63.2875 37.975L62.9125 40.1625L63.2875 42.6625L61.9125 44.35L64.0375 47.2875L64.1625 48.975L65.475 51.225L67.0375 50.475L69.85 52.35L71.4125 54.85L59.6625 62.5375L49.6625 70.4125L44.7875 72.1625L40.9125 72.6L40.85 70.0375L39.225 69.35L37.0375 68.225L36.225 66.35L24.5375 57.6L12.9125 48.85L0.100001 39.1L0.162486 38.35L0.225008 38.1L0.287493 33.35L5.85001 30.35L9.22499 29.725L12.0375 28.6625L13.35 26.6625L17.35 25.1L17.5375 22.1L19.475 21.725L21.0375 20.2875L25.475 19.6L26.1 18.0375L25.225 17.1625L24.0375 12.9125L23.85 10.475L22.6625 7.9125L25.85 5.725L29.475 5.0375L31.5375 3.41249L34.725 2.16249L40.35 1.47501L45.85 1.16251L47.5375 1.725L50.6 0.162504L54.1625 0.1L55.5375 1.0375L57.7875 0.787504Z" fill="var(--fill-0, #E5E7EB)" stroke="var(--stroke-0, #2A3038)" stroke-width="0.2" stroke-linecap="round" stroke-linejoin="round"/>
</svg>
