<svg preserveAspectRatio="none" width="100%" height="100%" overflow="visible" style="display: block;" viewBox="0 0 54.95 121.512" fill="none" xmlns="http://www.w3.org/2000/svg">
<path id="Vector" d="M21.6625 1.78751L28.725 8.28749L31.6 8.91249L36.1625 11.9125L39.85 13.475L40.5375 15.225L37.9125 21.35L41.5375 22.4125L45.475 23.0375L48.1 22.4125L50.7875 19.2875L50.975 15.7875L52.6 14.975L54.6 17.35L54.85 20.5375L52.225 22.725L50.1625 24.35L46.85 28.2875L43.1 33.725L42.7875 36.975L42.5375 41.1L43.2875 45.1L42.725 45.975L42.975 48.5375L43.1625 50.6625L48.0375 54.1L48.1625 56.85L50.6 58.6L50.7875 60.5375L48.725 65.6625L44.35 67.85L37.975 68.6625L34.225 68.225L35.5375 70.6625L35.6 73.6L36.725 75.6L35.1625 77.0375L31.975 77.6L28.475 76.1L27.5375 77.1625L29.1 81.1L31.6 82.2875L33.0375 81.0375L34.6 83.1L31.975 84.35L30.1625 86.85L30.9125 90.7875L30.85 92.9125H27.85L25.975 94.9125L26.0375 97.9125L30.1 100.787L33.35 101.537L33.475 105.1L30.6 107.288L30.225 111.85L28.0375 113.35L27.475 115.162L30.1 119.225L32.975 121.412L31.6625 121.225L28.6 120.6L21.0375 120.1L18.85 117.85L17.6625 114.975L15.725 115.225L14.1 113.788L12.1625 109.725L13.85 107.975L13.9125 105.538L12.7875 103.538L13.225 100.162L12.5375 94.975L11.4125 92.6625L12.5375 91.9125L11.6625 90.4125L9.91251 89.6625L10.4125 87.975L8.47502 86.475L6.16251 81.9125L7.22502 81.1L5.16252 76.225L4.66253 72.1625L4.53752 68.6L6.10002 67.1625L4.03753 63.225L3.03751 59.6L4.91251 56.975L4.03753 53.6L5.03752 49.725L4.1625 46.0375L3.16252 45.2875L0.1 38.35L1.41252 34.225L0.350015 30.35L0.912531 26.6625L2.53752 22.9125L4.60001 20.4125L3.35001 18.85L3.85 17.5375L2.85002 10.85L6.35 8.91249L7.10001 4.72502L6.53753 3.725L9.03753 0.100005L13.725 1.09999L16.0375 3.97501L17.0375 0.725005L21.0375 0.912497L21.6625 1.78751Z" fill="var(--fill-0, #E5E7EB)" stroke="var(--stroke-0, #2A3038)" stroke-width="0.2" stroke-linecap="round" stroke-linejoin="round"/>
</svg>
