<svg preserveAspectRatio="none" width="100%" height="100%" overflow="visible" style="display: block;" viewBox="0 0 6.0119 2.57501" fill="none" xmlns="http://www.w3.org/2000/svg">
<path id="Vector" d="M1.03741 0.162504L1.41236 0.225008H1.78734L1.97482 0.287512L2.34976 0.225008L2.53723 0.287512L2.78722 0.225008L2.91222 0.287512L3.22468 0.225008L3.47464 0.287512H3.66215L4.16209 0.4125V0.287512L4.53703 0.4125L4.59955 0.349996L5.09949 0.4125L5.22448 0.537508H5.34944L5.72442 0.725L5.84942 0.662496L5.7869 1.1L5.9119 1.2875L5.34944 1.47501L5.16197 1.725L4.97449 2.10001L4.78702 2.225L4.59955 2.2875H4.34956L3.97461 2.35L3.7871 2.47501L3.34968 2.41251L3.22468 2.2875L2.91222 2.41251L2.72474 2.225L2.28728 2.35L1.72483 2.2875L1.53735 2.35L1.16241 2.41251L1.03741 2.47501L0.912418 2.35L0.662429 2.2875L0.474956 2.41251L0.100011 2.35L0.287483 1.9125V1.6625L0.412478 1.4125L0.287483 1.0375L0.162489 0.974996L0.100011 0.725L0.349962 0.600012L0.474956 0.537508V0.225008L0.724945 0.1L1.03741 0.162504Z" fill="var(--fill-0, #E5E7EB)" stroke="var(--stroke-0, #2A3038)" stroke-width="0.2" stroke-linecap="round" stroke-linejoin="round"/>
</svg>
