<svg preserveAspectRatio="none" width="100%" height="100%" overflow="visible" style="display: block;" viewBox="0 0 57.075 51.2625" fill="none" xmlns="http://www.w3.org/2000/svg">
<path id="ZA" d="M52.4125 0.725L53.7875 6.35L54.475 9.22499L53.6001 13.6625L53.85 15.1L52.1625 14.4125L51.1001 14.6625L50.725 15.85L49.6625 17.35L49.6 18.725L51.5375 20.9125L53.5375 20.475L54.4125 18.725H56.975L55.9125 21.6625L55.2875 24.975L54.2251 26.7875L51.7251 28.85L51.0375 29.4125L49.4125 31.475L48.2876 33.5375L46.1001 36.4125L41.9125 40.5375L39.35 42.9125L36.6625 44.7875L32.9751 46.2875L31.2875 46.5375L30.725 47.6625L28.725 47.0375L27.0376 47.7875L23.475 47.0375L21.4126 47.5375L20.0375 47.2875L16.4126 48.9125L13.5375 49.5375L11.35 51.0375L9.85006 51.1625L8.5375 49.725L7.41255 49.6625L6.0375 47.85L5.85005 48.4125L5.47506 47.35L5.66252 44.975L4.72502 42.2875L5.85005 41.5375L5.91253 38.475L3.85 34.725L2.35006 31.35V31.2875L0.100002 26.1L1.85003 24.1L3.10003 25.225L3.60006 26.9125L5.16256 27.225L7.2875 27.975L9.10002 27.6625L12.225 25.6L12.9125 10.7875L13.7875 11.4125L15.6625 15.225L15.2875 17.6625L15.975 19.1L18.475 18.6625L20.225 16.85L21.9125 15.6625L22.85 13.725L24.6 12.85L26.0375 13.2875L27.6 14.4125L30.4125 14.6L32.6626 13.725L33.0375 12.475L33.7875 10.5375L35.6625 10.225L36.7875 8.72499L38.0375 6.0375L41.2875 3.03751L46.35 0.1H47.725L49.4125 0.787485L50.6 0.287492L52.4125 0.725ZM39.725 33.975L40.4125 32.725L42.3501 32.1L43.0375 30.7875L44.2251 28.85L43.1625 27.6L41.7875 26.35L40.1 27.225L38.1625 28.7875L36.1625 31.2875L38.475 34.4125L39.725 33.975Z" fill="var(--fill-0, #E5E7EB)" stroke="var(--stroke-0, #2A3038)" stroke-width="0.2" stroke-linecap="round" stroke-linejoin="round"/>
</svg>
