<svg preserveAspectRatio="none" width="100%" height="100%" overflow="visible" style="display: block;" viewBox="0 0 36.3875 64.3875" fill="none" xmlns="http://www.w3.org/2000/svg">
<path id="TD" d="M35.6 15.475L36.2875 31.4125L33.2875 31.1L31.725 34.1L30.9125 36.5375L31.6625 37.475L30.5375 38.725L30.975 40.4125L30.1 42.0375L29.7875 43.5375L30.975 43.2875L31.7875 44.85L31.85 47.1625L33.1625 48.35V49.35L30.9125 50.0375L29.1625 51.6625L26.6625 56.0375L23.4125 57.9125L19.975 57.6625L18.975 58.0375L19.35 59.4125L17.5375 60.85L16.0375 62.4125L11.6 63.9125L10.725 63.0375L10.1 62.9125L9.475 63.975L6.60002 64.2875L7.09997 63.1625L5.97502 60.4125L5.47499 58.7875L3.91249 58.1L1.78747 55.725L2.53752 53.85L4.1625 54.225L5.16249 53.975H7.16246L5.16249 50.35L5.28746 47.6625L4.97496 45.0375L3.5375 42.475L3.91249 40.5375L1.60002 40.475V37.9125L0.100002 36.4125L1.53746 31.1L5.91246 27.35L6.0375 22.1L7.16246 13.975L7.9125 12.225L6.41249 10.85L6.35 9.60001L4.97496 8.5375L3.97497 2.2875L7.41247 0.1L21.475 7.78749L35.6 15.475Z" fill="var(--fill-0, #E5E7EB)" stroke="var(--stroke-0, #2A3038)" stroke-width="0.2" stroke-linecap="round" stroke-linejoin="round"/>
</svg>
