<svg preserveAspectRatio="none" width="100%" height="100%" overflow="visible" style="display: block;" viewBox="0 0 18.3875 23.3875" fill="none" xmlns="http://www.w3.org/2000/svg">
<path id="BD" d="M17.9125 17.7875L18.2875 20.6625L16.975 20.0375L17.6625 23.2875L16.35 21.225L15.8501 19.1625L14.9126 17.225L13.1625 14.9125L9.91255 14.725L10.475 16.4125L9.72502 18.6L8.10004 17.7875L7.72505 18.5375L6.66251 18.1L5.28754 17.725L4.28755 14.4125L2.66249 11.4125L2.85002 8.97501L0.537551 7.9125L1.09999 6.47501L2.97499 4.97499L0.100005 2.85L0.850051 0.1L3.91249 1.84999L5.60004 2.0375L6.35001 4.85L9.72502 5.4125L12.9125 5.35L15.0375 6.0375L14.0375 9.4125L12.5375 9.66249L11.7876 11.9125L14.0375 14.0375L14.225 11.4125H15.1625L17.9125 17.7875Z" fill="var(--fill-0, #E5E7EB)" stroke="var(--stroke-0, #2A3038)" stroke-width="0.2" stroke-linecap="round" stroke-linejoin="round"/>
</svg>
