<svg preserveAspectRatio="none" width="100%" height="100%" overflow="visible" style="display: block;" viewBox="0 0 40.1375 24.5125" fill="none" xmlns="http://www.w3.org/2000/svg">
<path id="Vector" d="M37.0375 1.78751L36.5375 3.41249L40.0375 1.78751L39.725 3.47498L38.4125 5.16249L35.7875 6.975L31.35 9.91251L28.4125 11.5375L28.0375 13.4125L25.5375 13.475L21.6 14.975L18.6625 17.5375L13.5375 21.5375L9.60005 23.2875L7.10005 24.4125L4.22498 24.35L3.28748 23.0375L0.1 22.7875L0.725 21.2875L4.7875 18.4125L11.9125 14.475L14.6 13.725L18.1 12.225L22.475 10.1625L26.0375 8.09999L29.7875 5.16249L31.725 4.1625L33.9125 1.91248L37.5375 0.100001L37.0375 1.78751Z" fill="var(--fill-0, #E5E7EB)" stroke="var(--stroke-0, #2A3038)" stroke-width="0.2" stroke-linecap="round" stroke-linejoin="round"/>
</svg>
