<svg preserveAspectRatio="none" width="100%" height="100%" overflow="visible" style="display: block;" viewBox="0 0 39.575 34.7625" fill="none" xmlns="http://www.w3.org/2000/svg">
<path id="Vector" d="M31.9125 6.41253L32.6 6.72503L33.475 6.66252L34.975 7.66253L39.475 8.41252L37.975 11.0375L37.725 13.85L36.9125 14.5375L35.475 14.1625L35.6 15.1625L33.35 17.35V19.1625L34.85 18.5375L35.975 20.225L35.9125 21.35L36.85 22.85L35.7875 24.0375L36.725 27.1L38.475 27.6L38.1625 29.2875L35.35 31.5375L28.975 30.475L24.35 31.7875L23.975 34.1625L20.2875 34.6625L16.6625 32.85L15.475 33.725L9.53749 31.9125L8.28749 30.4125L9.975 28.0375L10.6 20.1625L7.41251 16.0375L5.1 14.0375L0.35002 12.5375L0.100004 9.66252L4.1625 8.85002L9.35 9.85003L8.4125 5.41252L11.35 7.10003L18.475 4.10003L19.4125 0.912524L22.0375 0.100022L22.5375 1.47503L23.9125 1.53752L25.4125 3.10002L27.6 4.91253L29.1625 4.60003L31.9125 6.41253Z" fill="var(--fill-0, #E5E7EB)" stroke="var(--stroke-0, #2A3038)" stroke-width="0.2" stroke-linecap="round" stroke-linejoin="round"/>
</svg>
