<svg preserveAspectRatio="none" width="100%" height="100%" overflow="visible" style="display: block;" viewBox="0 0 30.7625 59.325" fill="none" xmlns="http://www.w3.org/2000/svg">
<path id="TH" d="M29.725 24.7875L26.4125 24.225L21.975 24.975L20.0375 28.2875L21.35 33.1625L18.0375 31.2875L15.0375 31.4125L15.225 28.225H12.1625L12.2875 32.6625L10.9125 38.5375L10.0375 42.1L10.475 44.975L12.7875 45.1L14.475 48.7875L15.2875 52.225L17.4125 54.5375L19.5375 54.975L21.475 57.1L20.4125 58.725L18.1 59.225L17.725 57.1625L14.725 55.4125L14.1625 56.1L12.725 54.6L11.975 52.6L9.97503 50.35L8.16252 48.4125L7.72505 50.7875L6.91252 48.5375L7.16253 46.0375L7.9125 42.225L9.28755 38.1L10.9125 34.35L9.22499 30.6625L9.10002 28.7875L8.47502 26.5375L5.78749 23.35L4.66253 21.35L5.78749 20.6L6.6625 17.1625L4.84999 14.475L2.2875 11.5375L0.1 8.03749L1.47505 7.2875L2.41255 2.97498L4.84999 2.78749L6.60002 1.0375L8.47502 0.100001L10.1625 1.35L10.725 3.7875L13.1 3.97499L12.85 8.1625L13.475 11.7875L16.7875 9.4125L17.975 10.1L19.975 9.97499L20.475 8.59998L23.1625 8.85L26.2875 12.1L27.1 16.1L30.4125 19.6L30.6625 22.975L29.725 24.7875Z" fill="var(--fill-0, #E5E7EB)" stroke="var(--stroke-0, #2A3038)" stroke-width="0.2" stroke-linecap="round" stroke-linejoin="round"/>
</svg>
