<svg preserveAspectRatio="none" width="100%" height="100%" overflow="visible" style="display: block;" viewBox="0 0 2.69974 3.76251" fill="none" xmlns="http://www.w3.org/2000/svg">
<path id="Vector" d="M1.59982 0.287492L1.84981 0.162504L2.03728 0.349996L1.97481 0.475004L2.03728 0.599992L1.91229 0.850008L2.0998 1.0375L2.22476 1.6L2.34975 1.78751L2.59974 2.10001L2.47475 2.5375L2.53722 2.9125L2.41227 3.09999L2.22476 3.1625L1.97481 3.41249L1.78733 3.5375H1.59982L1.41235 3.66251H1.22488V3.41249L1.0374 3.2875L1.09988 2.9125L0.912408 3.09999L0.787414 3.03751L0.412468 2.78749L0.224995 2.6L0.100001 2.41251L0.537463 2.225L0.84993 2.6625L0.912408 2.2875L0.724935 2.225L0.662419 2.0375L0.724935 1.84999L1.09988 1.47501L1.22488 1.22499L1.1624 1.16251L1.34987 0.912492V0.599992L1.22488 0.162504L1.28735 0.1H1.47486L1.59982 0.287492Z" fill="var(--fill-0, #E5E7EB)" stroke="var(--stroke-0, #2A3038)" stroke-width="0.2" stroke-linecap="round" stroke-linejoin="round"/>
</svg>
