<svg preserveAspectRatio="none" width="100%" height="100%" overflow="visible" style="display: block;" viewBox="0 0 23.1375 29.1375" fill="none" xmlns="http://www.w3.org/2000/svg">
<path id="Vector" d="M14.0375 6.91254L13.7875 11.1625L15.6 8.41251L16.4125 9.53751L14.9125 12.5375L16.725 13.85L18.725 14.1625L21.6625 12.6625L23.0375 13.1L19.7875 16.6625L17.1625 18.975L14.725 18.9125L12.975 20.1L12.0375 21.85L11.0375 22.5375L8.16252 24.725L4.475 27.4125L0.725 29.0375L1.0375 27.975L0.1 27.4125L4.41252 24.1625L4.97495 21.9125L2.6 20.35L3.72495 18.9125L7.03749 17.5375L9.66245 14.4125L11.225 11.85L11.6 9.16252L12.1 8.47504L11.5375 6.78753L11.1 3.28751L11.35 0.41252L12.725 0.10002L13.2875 2.35001L15.2875 3.35003L14.0375 6.91254Z" fill="var(--fill-0, #E5E7EB)" stroke="var(--stroke-0, #2A3038)" stroke-width="0.2" stroke-linecap="round" stroke-linejoin="round"/>
</svg>
