<svg preserveAspectRatio="none" width="100%" height="100%" overflow="visible" style="display: block;" viewBox="0 0 44.2625 48.575" fill="none" xmlns="http://www.w3.org/2000/svg">
<path id="Vector" d="M43.6625 20.4125L44.0375 21.6625L43.6 23.6L44.1625 25.475L43.6 26.975L43.85 28.35L36.5375 28.2875L36.0375 41.1L38.2875 44.35L40.5375 46.85L34.0375 48.475L25.6 47.9125L23.225 46.0375L9.03753 46.1625L8.5375 46.475L6.47497 44.6625L4.22498 44.5375L2.09997 45.225L0.4125 45.975L0.1 43.475L0.662515 39.9125L1.91252 36.225L2.09997 34.5375L3.28748 30.9125L4.1625 29.2875L6.22503 26.6625L7.41247 24.85L7.78753 21.9125L7.6 19.6L6.60002 18.1625L5.66252 15.725L4.84998 13.35L5.03752 12.475L6.09998 10.9125L5.1 7.03748L4.35003 4.34999L2.6 1.78751L2.97498 1.0375L4.41252 0.474985L5.47498 0.537508L6.72498 0.1L17.1625 0.162485L17.975 3.09999L18.975 5.53751L19.7875 6.84999L21.1 8.91248L23.475 8.59998L24.6 8.03751L26.5375 8.59998L27.1 7.6L28.0375 5.28749L30.225 5.1L30.4125 4.41251H32.225L31.9125 5.85001L36.1625 5.78748L36.225 8.35001L36.9125 9.84998L36.35 12.2875L36.6 14.7875L37.725 16.2875L37.475 21.0375L38.35 20.6625L39.85 20.7875L42.0375 20.1625L43.6625 20.4125Z" fill="var(--fill-0, #E5E7EB)" stroke="var(--stroke-0, #2A3038)" stroke-width="0.2" stroke-linecap="round" stroke-linejoin="round"/>
</svg>
