<svg preserveAspectRatio="none" width="100%" height="100%" overflow="visible" style="display: block;" viewBox="0 0 193.763 97.0125" fill="none" xmlns="http://www.w3.org/2000/svg">
<path id="Vector" d="M126.975 5.475L123.163 6.725L120.225 8.2875L117.35 9.975L117.037 10.5375L120.6 9.725L121.913 11.0375L124.788 10.1L127.85 8.7875L131.225 7.475L129.288 9.5375L130.85 10.0375L132.413 11.5375L135.6 10.6625L138.788 10.35L138.975 11.475L139.913 11.6L140.663 11.725L141.6 13.2875L138.663 13.6625H138.6L136.288 13.225L133.475 13.975L131.163 14.35L128.225 16.9125L126.35 18.35L126.6 18.7875L130.038 16.225H130.475L127.538 19.2875L125.725 22.0375L124.163 24.2875L123.788 26.225L123.287 27.1625L122.913 28.225L122.975 30.2875L123.163 30.6L124.288 30.5375L125.287 30.1L126.163 29.6L128.225 27.6625L129.35 25.0375L129.288 22.6L130.162 20.9125L131.788 18.975L133.1 17.6L134.788 16.6625L134.537 17.975L135.912 16.0375L136.725 15.6625L137.787 14.1625L140.162 14.975L141.913 16.475L141.412 18.2875L140.413 20.1L138.038 21.6625L137.787 22.6625H138.412L141.1 20.975L142.1 21.35L141.788 23.6625L141.35 25.2875L139.037 27.475L137.787 28.85L136.1 30.35L137.787 31.1625L139.35 31.4125L141.85 30.85L144.163 29.7875L146.038 29.225L148.912 28.1L152.538 25.725L152.6 25.35L152.787 24.1625L154.475 23.6625L156.913 23.85L159.413 24.1625L162.288 22.85L162.662 21.2875L162.538 20.725L166.788 17.975L168.475 17.2875L173.35 17.225H179.163L179.85 16.2875L180.912 16.1L182.475 15.475L184.225 13.6625L186.225 10.6L189.662 7.6625L190.35 8.66251L192.662 8.03751L193.663 9.1625L191.85 14.475L193.225 16.725L193.35 18.0375L189.35 19.9125L185.6 21.2875L181.85 22.475L179.35 24.85L178.538 25.725L177.787 27.85L178.225 29.9125L179.537 30.0375L179.662 28.6L180.35 29.475L179.725 30.6L177.35 31.225L175.787 31.1625L173.163 31.85L171.725 32.0375L169.788 32.225L166.663 33.4125L171.725 32.6625L172.413 33.4125L167.475 34.6H165.413L165.663 34.1L164.35 35.225L165.225 35.4125L163.663 38.2875L160.35 41.35L160.413 40.2875L159.725 40.1L158.975 39.1V41.2875L159.6 41.975L159.225 43.475L157.725 45.0375L154.913 48.225L154.662 48.1L156.475 45.35L155.225 43.85L155.85 40.475L154.662 42.225V44.7875L152.662 44.1625L154.537 45.4125L153.6 49.225L154.475 49.5375V50.9125L153.85 54.9125L150.975 57.85L147.162 59.0375L144.413 61.4125L142.662 61.6625L140.538 63.1625L139.725 64.475L135.413 67.1L133.038 69.0375L130.85 71.4125L129.662 74.225V77.0375L130.038 80.475L130.975 83.2875L130.663 85.0375L131.475 89.6625L130.85 92.4125L130.475 93.975L129.225 96.4125L128.1 96.9125L126.475 96.4125L126.225 94.6625L125.1 93.725L123.85 90.2875L122.85 87.225L122.6 85.6625L123.85 82.975L123.35 80.7875L121.412 77.4125L120.225 76.7875L116.412 78.6625L115.85 78.4125L114.6 76.5375L112.725 75.5375L108.725 76.1L105.85 75.6L103.162 75.9125L101.6 76.5375L101.975 77.6L101.537 79.225L102.038 80.0375L101.287 80.5375L100.163 79.975L98.725 80.725L96.2875 80.6L94.225 78.475L91.1625 78.975L88.9125 78.0375L86.725 78.35L83.6 79.2875L79.7875 82.225L75.975 83.975L73.6625 85.85L72.475 87.6625L71.85 90.475L71.6 92.35L71.975 93.725L70.6 93.85L68.35 92.975L65.9125 91.725L65.35 89.85L65.225 87.0375L63.725 84.7875L63.1625 82.4125L62.1625 79.6625L60.1625 78.0375L57.35 78.1625L54.35 81.2875L51.85 80.1L50.4125 78.9125L50.1625 76.6625L49.6625 74.6L48.1625 72.85L46.85 71.5375L46.0375 70.1H40.1625L39.6625 71.7875H36.975H30.225L23.4125 68.975L19.0375 67.0375L19.6 66.225L15.1625 66.6625L11.225 66.975L11.4125 64.975L10.1 62.6625L8.72499 62.1625L8.7875 61.0375L6.975 60.7875L6.22499 59.725L3.225 59.35L2.6625 58.6625L3.1625 56.475L1.6 52.475L1.2875 46.9125L1.84999 45.975L1.0375 44.6625L0.1 41.2875L1.22499 38.0375L0.662496 35.85L3.09999 32.5375L4.85 29.1625L5.53751 26.1L8.97501 22.35L11.475 18.7875L13.975 15.225L16.6625 9.91251L17.7875 6.60001L18.0375 4.7875L18.9125 3.97501L22.5375 5.35001L21.9125 9.0375L23.2875 7.975L24.85 4.7875L25.85 1.60001H34.6625H43.85H46.85H56.2875H65.475H74.725H84.0375H94.5375H105.163H111.537L112.35 0.1H113.412L112.85 2.22501L113.475 2.85001L115.538 3.1L118.412 3.725L120.85 4.91251L123.6 4.41251L126.975 5.475Z" fill="var(--fill-0, #E5E7EB)" stroke="var(--stroke-0, #2A3038)" stroke-width="0.2" stroke-linecap="round" stroke-linejoin="round"/>
</svg>
