<svg preserveAspectRatio="none" width="100%" height="100%" overflow="visible" style="display: block;" viewBox="0 0 38.825 45.7625" fill="none" xmlns="http://www.w3.org/2000/svg">
<path id="Vector" d="M37.2249 45.6L33.35 45.6625L30.5375 42.35L26.1 39.0375L24.6625 36.6L22.1 33.35L20.4125 30.35L17.7875 24.725L14.7249 21.35L13.6625 17.9125L12.2875 14.7875L9.03745 12.2875L7.09997 8.85L4.34995 6.6L0.474986 2.16249L0.100001 0.100001L2.34999 0.287493L7.9125 1.0375L11.1625 4.97499L14.0375 7.72499L16.0375 9.34999L19.475 13.6625L23.1 13.725L26.1 16.475L28.225 19.85L30.9125 21.725L29.475 24.975L31.5375 26.35L32.7875 26.475L33.35 29.2875L34.5375 31.475L37.1 31.85L38.725 34.4125L37.6625 39.4125L37.2249 45.6Z" fill="var(--fill-0, #E5E7EB)" stroke="var(--stroke-0, #2A3038)" stroke-width="0.2" stroke-linecap="round" stroke-linejoin="round"/>
</svg>
