<svg preserveAspectRatio="none" width="100%" height="100%" overflow="visible" style="display: block;" viewBox="0 0 42.075 16.0125" fill="none" xmlns="http://www.w3.org/2000/svg">
<path id="Vector" d="M19.475 0.725L16.5375 2.225L23.1 1.2875L24.725 2.9125L29.2875 1.225L30.4125 2.2875L29.0375 5.475L31.725 4.1625L33.475 0.85L36.1625 0.349999L38.0375 0.85L39.4125 2.1625L37.725 5.35L36.225 7.6625L38.85 9.2875L41.975 10.9125L40.35 12.35L35.9125 12.6625L36.4125 13.9125L34.4125 15.1625L30.225 14.6625L26.6625 13.725L23.475 13.9125L17.5375 15.1L10.475 15.6L5.53752 15.9125L5.72501 14.2875L3.16253 13.4125L0.475015 13.7875L0.100011 11.1L2.1625 10.725L6.725 10.1625L10.1625 10.35L14.0375 9.725L9.975 8.975L4.28752 9.225L0.725011 9.1625V7.975L8.03752 6.6L4.10003 6.6625L0.725011 5.7875L5.6 3.35L8.85001 2.0375L17.725 0.1L19.475 0.725Z" fill="var(--fill-0, #E5E7EB)" stroke="var(--stroke-0, #2A3038)" stroke-width="0.2" stroke-linecap="round" stroke-linejoin="round"/>
</svg>
