<svg preserveAspectRatio="none" width="100%" height="100%" overflow="visible" style="display: block;" viewBox="0 0 35.7625 33.95" fill="none" xmlns="http://www.w3.org/2000/svg">
<path id="Vector" d="M2.53752 9.28749L3.16252 11.975L5.60003 14.2875L7.9125 13.475L10.1625 13.725L12.225 11.725L13.9125 11.35L17.2875 12.475L20.1625 11.6L21.7875 6.0375L23.1 4.66249L24.1625 0.1H28.225L31.35 0.787485L29.475 4.4125L32.225 8.1625L31.6625 10.0375L35.6625 13.725L31.475 14.225L30.35 16.975L30.475 20.6L27.0375 23.35L26.7875 27.35L25.225 33.475L24.7875 32.0375L20.6625 33.85L19.35 31.4125L16.85 31.1625L15.1 29.85L10.85 31.35L9.66253 29.35L7.2875 29.6L4.41252 29.1625L4.03753 23.7875L2.2875 22.6625L0.600031 19.225L0.1 15.725L0.474985 11.975L2.53752 9.28749Z" fill="var(--fill-0, #E5E7EB)" stroke="var(--stroke-0, #2A3038)" stroke-width="0.2" stroke-linecap="round" stroke-linejoin="round"/>
</svg>
