<svg preserveAspectRatio="none" width="100%" height="100%" overflow="visible" style="display: block;" viewBox="0 0 62.7 25.0125" fill="none" xmlns="http://www.w3.org/2000/svg">
<path id="Vector" d="M48.975 2.1L52.4125 1.9125L55.9125 3.91249L56.725 5.28749L56.7875 7.225L59.4125 8.225L60.9125 9.34999L58.85 10.5375L60.6625 15.1L60.225 16.35L62.6 19.5375L61.1 20.225L59.7875 19.225L55.85 18.6625L54.5375 19.2875L50.85 19.9125L49.0375 19.85L45.475 21.35H42.725L40.85 20.6L37.35 21.725L36.1625 20.975L36.2875 23.1625L35.5375 24.0375L34.725 24.9125L33.2875 23.1L34.35 21.6L32.35 21.975L29.475 21.0375L27.475 23.35L22.475 23.7875L19.5375 21.6625L15.975 21.5375L15.35 23.1625L13.1 23.6625L9.72502 21.5375L6.09999 21.6L3.72503 17.6L1.09999 15.4125L2.34999 12.2875L0.100002 10.35L3.28749 6.53749L8.28749 6.41249L9.28747 3.35L15.5375 3.91249L19.0375 1.35L22.6625 0.224998L27.975 0.1L34.1 2.9125L39.0375 4.475L42.6625 3.85L45.5375 4.22499L48.975 2.1Z" fill="var(--fill-0, #E5E7EB)" stroke="var(--stroke-0, #2A3038)" stroke-width="0.2" stroke-linecap="round" stroke-linejoin="round"/>
</svg>
