<svg preserveAspectRatio="none" width="100%" height="100%" overflow="visible" style="display: block;" viewBox="0 0 31.0125 74.075" fill="none" xmlns="http://www.w3.org/2000/svg">
<path id="MM" d="M30.9125 27.7875L28.35 30.4125L27.85 31.85L25.975 32.7875L24.225 34.5375L21.7875 34.725L20.85 39.0375L19.475 39.7875L21.6625 43.2875L24.225 46.225L26.0375 48.9125L25.1625 52.35L24.0375 53.1L25.1625 55.1L27.85 58.2875L28.475 60.5375L28.6 62.4125L30.2875 66.1L28.6625 69.85L27.2875 73.975L26.725 70.975L27.5375 67.9125L26.1625 65.5375L26.0375 61.1625L24.4125 59.0375L22.725 54.2875L21.475 49.225L19.5375 45.85L17.5375 47.9125L13.9125 50.725L11.85 50.4125L9.60005 49.475L10.1625 44.475L8.91249 40.725L5.60003 36.1L5.78749 34.6625L3.66255 34.1L0.787488 30.85L0.100003 27.6L1.41249 28.225L1.0375 25.35L2.6 24.4125L1.975 22.725L2.6 21.35L2.03749 17.1625L4.91255 18.1L5.91253 14.7875L5.725 12.85L6.975 9.475L6.41249 7.16251L10.2875 4.4125L12.9125 5.1L12.0375 2.66251L13.1 1.9125L12.475 0.412503L14.4125 0.100003L16.1 2.47501L17.7875 3.41251L18.6 6.47501L19.1625 9.7875L16.5375 13.1625L16.975 17.9125L20.475 17.225L21.975 20.9125L24.2875 21.725L23.7875 25.0375L26.6 26.5375L28.225 27.2875L30.6 26.1L30.9125 27.7875Z" fill="var(--fill-0, #E5E7EB)" stroke="var(--stroke-0, #2A3038)" stroke-width="0.2" stroke-linecap="round" stroke-linejoin="round"/>
</svg>
