<svg preserveAspectRatio="none" width="100%" height="100%" overflow="visible" style="display: block;" viewBox="0 0 26.2625 33.3875" fill="none" xmlns="http://www.w3.org/2000/svg">
<path id="Vector" d="M4.72502 33.2875L3.34997 30.475L0.1 23.85L10.2875 19.85L11.9125 11.85L10.0375 8.97501V7.35L10.85 5.725L10.725 4.10002L12.225 3.2875L11.5375 2.72501V0.1H13.2875L15.1625 2.85002L17.225 4.28751L19.7875 4.85L21.9125 5.53751L23.725 7.85002L24.7875 9.1625L26.0375 9.72502L26.1625 10.6L25.1 12.975L24.6625 14.1L23.2875 15.4125L22.225 18.1625L20.6625 17.9125L20.0375 18.9125L19.6 20.9125L20.2875 23.6L19.975 24.1H18.4125L16.35 25.6L16.1625 27.5375L15.4125 28.4125L13.225 28.35L11.975 29.35L12.1 30.975L10.475 32.1L8.5375 31.725L6.28752 33.1L4.72502 33.2875Z" fill="var(--fill-0, #E5E7EB)" stroke="var(--stroke-0, #2A3038)" stroke-width="0.2" stroke-linecap="round" stroke-linejoin="round"/>
</svg>
