<svg preserveAspectRatio="none" width="100%" height="100%" overflow="visible" style="display: block;" viewBox="0 0 26.6667 26.6667" fill="none" xmlns="http://www.w3.org/2000/svg">
<g id="Layer_18">
<path id="Shape" fill-rule="evenodd" clip-rule="evenodd" d="M13.3333 26.6667C5.96954 26.6667 0 20.6971 0 13.3333C0 5.96954 5.96954 0 13.3333 0C16.8696 0 20.2609 1.40476 22.7614 3.90524C25.2619 6.40573 26.6667 9.79711 26.6667 13.3333C26.6667 20.6971 20.6971 26.6667 13.3333 26.6667ZM16.9333 12.3867C17.1858 12.637 17.3277 12.9778 17.3277 13.3333C17.3277 13.6888 17.1858 14.0296 16.9333 14.28L11.6 19.6133C11.3517 19.8597 11.0165 19.9985 10.6667 20C10.3123 20.002 9.97163 19.8629 9.72 19.6133C9.46758 19.363 9.3256 19.0222 9.3256 18.6667C9.3256 18.3111 9.46758 17.9704 9.72 17.72L14.1067 13.3333L9.74667 8.94667C9.40846 8.60845 9.27637 8.1155 9.40016 7.6535C9.52396 7.19149 9.88482 6.83062 10.3468 6.70683C10.8088 6.58303 11.3018 6.71512 11.64 7.05333L16.9333 12.3867ZM13.3333 2.66667C19.2244 2.66667 24 7.4423 24 13.3333C24 16.1623 22.8762 18.8754 20.8758 20.8758C18.8754 22.8762 16.1623 24 13.3333 24C7.4423 24 2.66667 19.2244 2.66667 13.3333C2.66667 7.4423 7.4423 2.66667 13.3333 2.66667Z" fill="var(--fill-0, #231F20)"/>
</g>
</svg>
