<svg preserveAspectRatio="none" width="100%" height="100%" overflow="visible" style="display: block;" viewBox="0 0 2.26233 3.07499" fill="none" xmlns="http://www.w3.org/2000/svg">
<path id="Vector" d="M1.0374 1.09998L1.16243 1.28748L1.53738 1.53749L1.9748 1.975L2.03736 2.03749V2.2875L2.16232 2.47499L1.9748 2.6L1.72489 2.84998V2.72501L1.53738 2.66249H1.28739L1.16243 2.72501V2.84998L0.912446 2.97499L0.724935 2.9125V2.47499L0.662457 2.10001L0.724935 1.72498L0.787489 1.41248L0.662457 1.09998L0.287511 1.28748L0.162555 1.16251L0.1 0.974977V0.787485L0.287511 0.599993V0.349977L0.349989 0.162485L0.5375 0.1L0.912446 0.287492L0.849967 0.4125L0.974924 0.725L0.912446 0.850008L1.0374 1.09998Z" fill="var(--fill-0, #E5E7EB)" stroke="var(--stroke-0, #2A3038)" stroke-width="0.2" stroke-linecap="round" stroke-linejoin="round"/>
</svg>
