<svg preserveAspectRatio="none" width="100%" height="100%" overflow="visible" style="display: block;" viewBox="0 0 50.3251 30.075" fill="none" xmlns="http://www.w3.org/2000/svg">
<path id="TM" d="M50.2251 21.6L49.225 21.475L47.4126 20.4125L47.225 21.7875L44.6001 22.6L44.725 25.7875L43.1 27.0375L40.6 27.6L40.35 29.4125L37.9125 29.975L34.225 28.4125L33.1625 25.1L30.6625 24.9125L26.1 21.4125L23.4125 20.975L19.2875 18.9125L16.85 18.5375L15.6 19.2875L13.35 19.1625L11.475 21.475L8.72503 22.225L7.53752 19.4125L7.16253 15.225L4.28755 13.85L4.53749 11.1625L2.34999 10.9125L2.2875 7.5375L5.60003 8.5375L8.16252 7.2875L5.22505 4.85L3.72503 2.6L1.35 3.6L1.72499 6.5375L0.1 3.975L1.22503 2.6L4.72502 1.7875L7.16253 2.9125L10.1625 6.0375L11.7875 5.85L15.475 5.7875L14.4125 3.7875L16.7875 2.4125L18.9125 0.100004L23.85 2.225L25.0375 5.35L26.475 6.1625L29.9125 5.975L31.225 6.725L33.9125 10.85L38.35 13.6L40.975 15.475L44.9126 17.4125L49.725 19.1625L50.2251 21.6Z" fill="var(--fill-0, #E5E7EB)" stroke="var(--stroke-0, #2A3038)" stroke-width="0.2" stroke-linecap="round" stroke-linejoin="round"/>
</svg>
