<svg preserveAspectRatio="none" width="100%" height="100%" overflow="visible" style="display: block;" viewBox="0 0 27.2 54.6375" fill="none" xmlns="http://www.w3.org/2000/svg">
<path id="MG" d="M26.0375 6.22503L26.2875 11.0375L27.1 12.9125L26.6625 14.85L25.9125 15.975L24.9125 13.6625L24.1625 14.85L24.6625 17.7875L24.225 19.5375L23.1625 20.4125L22.725 23.85L21.0375 28.5375L18.9125 34.0375L16.225 41.6625L14.4125 47.225L12.475 51.9125L9.59997 52.85L6.41248 54.5375L4.53748 53.5375L1.91252 52.1L1.16247 49.975V46.4125L0.224969 43.225L0.1 40.2875L0.912454 37.4125L2.53752 36.725L2.66248 35.4125L4.475 32.35L4.97495 29.7875L4.28747 27.9125L3.78752 25.35L3.72495 21.6625L5.1 19.4125L5.725 16.85L7.47495 16.725L9.475 15.9125L10.85 15.1625L12.35 15.1L14.475 12.85L17.5375 10.35L18.6625 8.35001L18.2875 6.60002L19.7875 7.10001L21.85 4.35003L22.0375 1.91252L23.2875 0.1L24.4125 1.85003L25.2875 3.5375L26.0375 6.22503Z" fill="var(--fill-0, #E5E7EB)" stroke="var(--stroke-0, #2A3038)" stroke-width="0.2" stroke-linecap="round" stroke-linejoin="round"/>
</svg>
