<svg preserveAspectRatio="none" width="100%" height="100%" overflow="visible" style="display: block;" viewBox="0 0 140.637 75.3876" fill="none" xmlns="http://www.w3.org/2000/svg">
<path id="GL" d="M110.537 0.35007L122.975 2.22507L118.788 3.10007L110.663 3.22507L99.1 3.47507L99.975 3.91257L107.663 3.60007L113.725 4.47507L118.1 3.72507L119.6 4.60007L116.787 6.10007L122.538 5.10007L133.225 4.16257L139.475 4.66257L140.537 5.72507L131.288 7.53757L129.912 8.16257L122.788 8.66257L127.85 8.78757L124.787 10.7876L122.538 12.6001L121.787 15.8501L124.1 17.8501L120.412 17.9126L116.35 18.9126L120.288 20.5376L120.225 23.1626L117.6 23.4751L120.163 26.1626L114.725 26.4126L117.225 27.6626L116.225 28.7876L112.663 29.2876L109.225 29.3501L111.85 31.4751L111.538 32.9751L106.975 31.6001L105.475 32.4751L108.6 33.2876L111.475 35.2876L111.85 37.9751L107.225 38.6001L105.538 37.2876L102.912 35.4126L103.225 37.6626L99.85 39.4126L106.538 39.5376L109.975 39.7251L102.538 42.6626L94.9125 45.3501L86.975 46.4751L84.1 46.5376L81.0375 47.8501L76.35 51.4751L69.975 53.9126L68.1 54.1001L64.2875 54.9126L60.1625 55.7876L57.1625 57.9126L56.2875 60.4126L54.1625 62.7876L48.7875 65.6626L48.975 68.4751L46.725 71.4751L44.1625 75.0376L40.1 75.2876L36.975 72.2876L31.35 72.2251L29.35 70.2251L28.85 66.7251L25.85 62.2251L25.4125 59.9126L26.35 56.7251L24.0375 53.5376L26.1 50.9751L24.9125 49.7251L29.2875 45.7251L33.7875 44.4126L35.4125 43.0376L37.1625 40.4126L33.725 41.6001L32.1 42.1001L29.5375 42.5376L26.9125 41.4751L27.85 39.1626L29.725 37.4126L32.1 37.3501L36.85 38.2876L33.5375 36.1626L31.85 35.0376L29.1 35.4751L27.475 34.6626L31.85 31.6626L31.0375 30.4126L30.35 28.2251L29.475 24.8501L27.225 23.6626L28.1 22.3501L23.0375 20.5376L18.225 20.2876L11.9125 20.4126L5.97502 20.6626L4.03753 19.6626L1.6625 17.7251L8.5375 16.7876L13.2875 16.6626L4.1625 15.8501L0.100003 14.6626L1.47501 13.5376L11.2875 12.1626L20.6625 10.7876L22.4125 9.78757L17.35 8.78757L20.225 7.72507L29.4125 5.91257L32.7875 5.66257L32.9125 4.53757L38.5375 3.85007L45.4125 3.47507H51.9125L53.6625 4.22507L60.2875 2.85007L64.725 3.78757L67.6 3.97507L71.475 4.78757L67.2875 3.47507L68.2875 2.41257L76.225 1.03757L83.475 1.16257L86.6625 0.28757L94.1 0.10007L110.537 0.35007Z" fill="var(--fill-0, #E5E7EB)" stroke="var(--stroke-0, #2A3038)" stroke-width="0.2" stroke-linecap="round" stroke-linejoin="round"/>
</svg>
