<svg preserveAspectRatio="none" width="100%" height="100%" overflow="visible" style="display: block;" viewBox="0 0 2.32479 4.2625" fill="none" xmlns="http://www.w3.org/2000/svg">
<path id="Vector" d="M1.66234 3.91252L1.09988 3.85L0.724935 4.03749L0.662457 4.1625H0.5375L0.474946 3.78752L0.349989 3.72499L0.1 3.09999L0.349989 2.6V2.35002L0.287511 2.22502V1.35L0.225033 1.16251V0.850008L0.349989 0.662515V0.475023L0.474946 0.287493V0.162523L0.662457 0.1L0.724935 0.4125L0.849967 0.662515L0.974924 0.850008L1.0374 1.6625L0.974924 2.16249V2.22502L1.34987 2.16249L1.53738 1.975L1.66234 1.47501V1.35L1.84985 1.22499L2.03728 1.28752L1.9748 1.53749V2.10001L2.16232 2.16249V2.47499L2.03728 2.53752L2.22479 2.78749L2.09984 2.9125V3.225L2.22479 3.5375L2.16232 3.66251H1.9748L1.66234 3.91252Z" fill="var(--fill-0, #E5E7EB)" stroke="var(--stroke-0, #2A3038)" stroke-width="0.2" stroke-linecap="round" stroke-linejoin="round"/>
</svg>
