<svg preserveAspectRatio="none" width="100%" height="100%" overflow="visible" style="display: block;" viewBox="0 0 73.1375 58.8875" fill="none" xmlns="http://www.w3.org/2000/svg">
<path id="IR" d="M7.28751 4.0375L8.41254 3.9125L11.725 0.975006L12.9125 0.662506L14.1 1.85L13.35 3.78751L15.7875 5.91251L16.6 5.66251L18.1625 8.66251L21.475 9.475L24.1625 11.475L28.975 12.1625L33.975 11.1L34.1 10.1625L36.85 9.4125L38.725 7.10001L40.975 7.225L42.225 6.47501L44.6625 6.85001L48.7875 8.9125L51.475 9.35001L56.0375 12.85L58.5375 13.0375L59.6 16.35L59.225 21.35L58.9125 24.2875L60.475 24.9125L59.475 27.1L61.1625 30.2875L61.9125 32.85L64.6 33.5375L65.2875 36.1L62.85 39.725L64.85 41.85L66.6 44.2875L70.1625 46.0375L70.7875 49.5375L72.475 50.225L73.0375 52.0375L68.35 54.1625L67.6625 58.7875L61.0375 57.6L57.1625 56.6625L53.225 56.1625L51.1625 51.225L49.4125 50.5375L46.85 51.225L43.6625 53.1625L39.2875 51.85L35.475 48.725L32.0375 47.6L29.2875 43.7875L26.0375 38.475L24.2875 39.1L21.975 37.7875L20.9125 39.35L18.725 37.225L18.4125 35.1H17.35L17.475 32.1625L15.2875 29.1625L10.85 26.9125L7.975 23.1L8.2875 19.975L9.72503 18.6L9.16251 16.2875L6.78748 15.0375L3.85001 10.2875L1.47498 7.10001L1.91253 5.85001L0.100014 1.28751L2.16254 0.1L2.91251 1.6625L4.91248 3.47501L7.28751 4.0375Z" fill="var(--fill-0, #E5E7EB)" stroke="var(--stroke-0, #2A3038)" stroke-width="0.2" stroke-linecap="round" stroke-linejoin="round"/>
</svg>
