<svg preserveAspectRatio="none" width="100%" height="100%" overflow="visible" style="display: block;" viewBox="0 0 141.388 114.013" fill="none" xmlns="http://www.w3.org/2000/svg">
<path id="Vector" d="M119.038 12.5375L119.788 15.6625L122.288 14.1625L123.163 15.85L124.6 17.4125L123.913 19.225L124.038 22.6625L124.163 24.6625L124.975 25.1625L125.225 28.6L124.475 30.6625L124.975 33.35L128.35 35.475L130.35 37.35L132.35 39.1L131.663 40.1L133.1 42.6L133.413 46.975L135.038 46.1L135.975 47.7875L136.975 47.225L136.538 51.475L138.35 53.9125L139.538 55.4125L141.288 58.6625V61.9125L140.663 64.225L139.538 66.6625L139.975 70.1L138.413 73.6625L137.1 75.5375L134.725 79.1L133.788 81.4125L131.85 84.2875L128.725 87.9125L125.288 89.9125L122.538 92.975L120.475 94.975L117.725 98.4125L115.413 100.413L112.975 103.413L111.038 106.163L110.538 107.475L107.85 108.85L104.038 108.975L100.1 110.663L97.7251 112.163L94.725 113.913L93.0376 112.1L91.4126 111.413L93.0376 109.35L90.8501 110.1L86.35 112.975L84.1 111.913L82.6 111.288L80.8501 110.975L78.2876 109.85L77.475 107.35L78.4125 104.35L78.6626 102.288L77.7875 100.663L74.8501 100.225L76.85 98.225L77.4126 95.2875L74.475 98.0375L71.1626 98.7875L73.9751 96.6L75.5376 94.2875L77.7251 92.2875L78.725 89.35L74.475 92.725L71.7876 94.1L69.1 97.2875L67.225 95.6625L68.2876 93.5375L67.4126 90.6L66.2875 89.1L67.2875 88.1625L63.9751 85.725L61.6 85.6625L59.1 83.6625L52.9125 84.0375L47.9751 85.475L43.6626 86.85L40.5376 86.6L36.1626 88.6625L32.85 89.5375L31.4126 91.6625L29.5376 93.2875L26.6 93.4125L24.35 93.725L21.7251 93.0375L19.1 93.475L16.7251 93.6625L13.9126 95.7875L12.9751 95.6L10.8501 96.725L8.72505 97.975L6.35002 97.85H4.16252L1.60003 95.2875L0.100019 94.5375L1.03752 92.225L2.85003 91.6625L3.78753 90.7875L4.16252 89.35L5.60005 86.5375L6.03752 84.1625L5.60005 80.1L5.72502 77.7875L6.60003 75.5375L6.03752 72.9125L6.22505 71.725L5.16258 70.1L5.60005 66.975L4.41253 63.7875L4.35005 62.1L5.47508 63.85L5.16258 60.1L6.60003 61.2875L7.28752 62.85L7.66258 60.7875L6.66252 57.6L6.60003 56.35L6.10008 55.1625L6.91253 52.85L7.85003 51.85L8.66256 49.85L8.72505 47.475L10.6625 44.6L10.4125 47.6625L12.3501 44.9125L15.4125 43.5375L17.4126 41.85L20.35 40.35L21.975 40.0375L22.85 40.5375L25.8501 39.0375L28.0376 38.6L28.725 37.725L29.6625 37.35L31.6 37.475L35.4751 36.2875L37.6626 34.475L38.9126 32.35L41.35 30.35L41.7876 28.725L42.225 26.5375L45.2875 23.1L46.1626 26.6L47.7875 25.7875L46.85 23.9125L48.2876 21.975L49.6625 22.85L50.6 19.7875L52.7875 17.7875L53.9126 16.225L55.725 15.5375L55.975 14.4125L57.4126 14.85L57.6626 13.85L59.2876 13.2875L61.0375 12.725L63.3501 14.6L64.975 16.975H67.1625L69.35 17.35L68.9126 15.1625L71.1001 11.975L72.7875 10.9125L72.4126 9.91251L74.2251 7.6L76.5375 6.16251L78.225 6.6625L81.2875 5.91249L81.4751 3.85L79.0375 2.53752L80.975 1.975L83.225 2.97502L84.9126 4.60001L87.7251 5.59999L88.7875 5.22501L90.8501 6.47501L93.0376 5.28749L94.2876 5.66252L95.2251 4.85003L96.6 6.84999L95.35 9.03749L93.7875 10.6625L92.6 10.7875L92.7875 12.35L91.4126 14.35L89.8501 16.35L89.975 17.475L92.3501 19.725L94.8501 20.975L96.4126 22.35L98.475 24.725H99.475L101.1 25.7875L101.413 27.0375L104.475 28.35L107.038 26.975L108.163 24.85L109.225 23.0375L110.038 20.85L111.663 17.6625L111.538 15.725L111.975 14.5375L111.913 12.2875L112.788 9.22503L113.6 8.41249L113.225 7.10001L114.35 4.97499L115.288 2.78749L115.538 1.60002L116.975 0.100002L117.788 2.10001L117.725 4.60001L118.538 5.1L118.475 6.78751L119.475 8.78752L119.413 11.1L119.038 12.5375Z" fill="var(--fill-0, #E5E7EB)" stroke="var(--stroke-0, #2A3038)" stroke-width="0.2" stroke-linecap="round" stroke-linejoin="round"/>
</svg>
