<svg preserveAspectRatio="none" width="100%" height="100%" overflow="visible" style="display: block;" viewBox="0 0 23.325 29.5125" fill="none" xmlns="http://www.w3.org/2000/svg">
<path id="Vector" d="M23.225 0.975016L20.4125 4.97501L17.725 5.725L14.35 4.97501L8.41245 5.1625L5.35002 5.725L4.84998 8.78752L7.97498 12.35L9.91247 10.5375L16.5375 9.1625L16.225 10.975L14.6625 10.4125L13.1 12.7875L9.91247 14.35L13.1 19.475L12.4125 20.85L15.4125 25.475L15.225 28.1L13.2875 29.2875L11.975 27.85L13.85 24.6L10.2875 26.1625L9.475 25.0375L9.97495 23.475L7.53752 21.1L7.97498 17.225L5.53747 18.4125L5.66252 23.1L5.53747 28.85L3.225 29.4125L1.78747 28.2875L2.97498 24.6L2.6 20.725L1.09998 20.6625L0.1 17.9125L1.6625 15.2875L2.22502 12.1L4.10002 6.0375L4.7875 4.41252L7.78745 1.4125L10.6 2.6L15.0375 3.16252L19.1 2.975L22.6 0.1L23.225 0.975016Z" fill="var(--fill-0, #E5E7EB)" stroke="var(--stroke-0, #2A3038)" stroke-width="0.2" stroke-linecap="round" stroke-linejoin="round"/>
</svg>
