<svg preserveAspectRatio="none" width="100%" height="100%" overflow="visible" style="display: block;" viewBox="0 0 33.7625 36.575" fill="none" xmlns="http://www.w3.org/2000/svg">
<path id="FI" d="M20.5375 3.7875L20.7875 6.1625L25.35 8.475L23.5375 11.1L27.6 15.0375L26.5375 18.0375L29.6 20.6625L29.0375 23.0375L33.6625 25.475L33.1 27.2875L30.975 29.4125L25.975 34.0375L20.975 34.35L16.225 35.6625L11.7875 36.475L9.7875 34.475L6.84996 33.2875L6.91252 29.6625L5.03752 26.4125L6.0375 24.2875L8.09996 22.1L13.6 18.225L15.225 17.475L14.6625 15.975L10.6 14.35L9.475 12.975L8.34997 7.6625L3.85 5.35L0.100001 3.6625L1.47497 2.7875L4.66246 4.5375L7.97499 4.4125L10.9125 5.225L13.0375 3.725L13.725 1.225L17.4125 0.1L21.0375 1.4125L20.5375 3.7875Z" fill="var(--fill-0, #E5E7EB)" stroke="var(--stroke-0, #2A3038)" stroke-width="0.2" stroke-linecap="round" stroke-linejoin="round"/>
</svg>
