<svg preserveAspectRatio="none" width="100%" height="100%" overflow="visible" style="display: block;" viewBox="0 0 3.88709 3.38748" fill="none" xmlns="http://www.w3.org/2000/svg">
<path id="Vector" d="M3.78709 0.1L3.6621 0.4125L3.47463 0.662496L3.34963 0.725L3.28715 0.974996L3.41215 1.35L3.28715 1.41248V1.84999L3.41215 2.03748L3.53714 2.16249L3.41215 2.2875L3.34963 2.47499V2.9125L3.22467 2.97498L2.97469 3.09999L2.66222 3.1625H2.47474L2.16228 3.225L1.84981 3.1625L1.59982 3.225L1.41235 3.1625L1.09988 3.28748L0.849892 3.1625H0.474946L0.287473 3.28748L0.1 3.225L0.412468 3.09999L0.599941 2.9125L0.849892 2.85L1.09988 2.66248L1.22488 2.47499L1.59982 2.5375L1.78729 2.2875L1.66234 1.78749L1.78729 1.53749V1.22499V1.09998L1.59982 0.849988L1.41235 0.787485L1.16236 0.725L1.09988 0.662496L1.34987 0.474985L2.03728 0.4125L2.16228 0.287492H2.84969L2.91221 0.224989L3.6621 0.1H3.78709Z" fill="var(--fill-0, #E5E7EB)" stroke="var(--stroke-0, #2A3038)" stroke-width="0.2" stroke-linecap="round" stroke-linejoin="round"/>
</svg>
