<svg preserveAspectRatio="none" width="100%" height="100%" overflow="visible" style="display: block;" viewBox="0 0 26.8875 44.825" fill="none" xmlns="http://www.w3.org/2000/svg">
<path id="CM" d="M24.1 21.9125L22.35 25.975L21.475 26.6625L21.225 29.7875L21.6 31.475L21.2875 32.6625L22.975 34.7875L23.2875 36.225L24.6 38.2875L26.225 39.6L26.4125 41.4125L26.7875 42.6L26.5375 44.725L23.725 43.7875L20.85 42.725L16.4125 42.6L15.975 42.35L13.85 42.85L11.725 42.35L10.0375 42.6L4.22499 42.5375L4.7875 39.35L3.34997 36.6625L1.72499 36.0375L1.0375 34.225L0.100001 33.6625L0.162485 32.5375L1.0375 29.6625L2.72497 25.7875H3.72495L5.84997 23.4125L7.16245 23.35L9.1625 25.0375L11.6 23.6625L11.9125 21.975L12.725 20.35L13.225 18.35L15.1 16.725L15.7875 13.9125L16.5375 12.975L17.0375 10.9125L17.9125 8.35001L20.85 5.22501L21.0375 3.91251L21.4125 3.16252L19.975 1.60002L20.1 0.287518L21.0375 0.100006L22.475 2.66251L22.7875 5.28752L22.6625 7.97501L24.6625 11.6H22.6625L21.6625 11.85L20.0375 11.475L19.2875 13.35L21.4125 15.725L22.975 16.4125L23.475 18.0375L24.6 20.7875L24.1 21.9125Z" fill="var(--fill-0, #E5E7EB)" stroke="var(--stroke-0, #2A3038)" stroke-width="0.2" stroke-linecap="round" stroke-linejoin="round"/>
</svg>
