<svg preserveAspectRatio="none" width="100%" height="100%" overflow="visible" style="display: block;" viewBox="0 0 3.7621 3.5125" fill="none" xmlns="http://www.w3.org/2000/svg">
<path id="Vector" d="M0.599902 0.287493L0.787413 0.349978L1.0374 0.662478L1.22484 0.787485L1.41235 0.850008L1.59986 1.0375L2.09976 1.28748L2.34975 1.59998V1.84999L2.41223 2.22498L2.53726 2.34999L2.7247 2.53748H2.84973L2.91221 2.78749L3.34963 2.97499L3.59962 2.9125L3.6621 2.97499V3.16248L3.47466 3.225L3.34963 3.41249L3.03716 3.28749L2.53726 3.03751H2.22479L2.03728 2.78749L1.59986 2.53748L1.22484 1.91248L0.849891 1.28748L0.537424 1.09999L0.1 0.662478V0.349978V0.225008L0.287435 0.100001L0.474946 0.162485L0.599902 0.287493Z" fill="var(--fill-0, #E5E7EB)" stroke="var(--stroke-0, #2A3038)" stroke-width="0.2" stroke-linecap="round" stroke-linejoin="round"/>
</svg>
