<svg preserveAspectRatio="none" width="100%" height="100%" overflow="visible" style="display: block;" viewBox="0 0 20.325 9.82501" fill="none" xmlns="http://www.w3.org/2000/svg">
<path id="PA" d="M19.975 3.9125L19.5375 4.475L20.225 6.84999L19.5375 8.03749L18.4125 7.72499L17.85 9.66249L16.725 8.5375L16.1 6.35L16.975 5.28749L16.1 5.0375L15.5375 3.72499L13.7875 2.6L12.2875 2.85L11.475 4.225L9.97499 5.22499L9.22499 5.35L8.85 6.22499L10.4125 8.41249L9.41252 8.9125L8.91249 9.475L7.22502 9.725L6.72499 7.2875L6.22499 7.975L5.1 7.72499L4.475 6.16249L3.03751 5.84999L2.10001 5.4125H0.599993L0.474985 6.2875L0.1 5.6625L0.287493 4.85L0.662516 4.03749L0.537508 3.34999L1.09999 2.85L0.4125 2.2875L0.474985 0.662497L1.84999 0.287493L3.03751 1.725L2.9125 2.6L4.28751 2.78749L4.66249 2.41249L5.59999 3.41249L7.34999 3.09999L8.91249 2.09999L11.1 1.2875L12.35 0.100001L14.2875 0.349997L14.1625 0.725001L16.1 0.849989L17.6 1.6L18.725 2.78749L19.975 3.9125Z" fill="var(--fill-0, #E5E7EB)" stroke="var(--stroke-0, #2A3038)" stroke-width="0.2" stroke-linecap="round" stroke-linejoin="round"/>
</svg>
