<svg preserveAspectRatio="none" width="100%" height="100%" overflow="visible" style="display: block;" viewBox="0 0 45.8876 35.825" fill="none" xmlns="http://www.w3.org/2000/svg">
<path id="CF" d="M33.2876 10.225L35.725 11.7875L37.6626 13.4125L37.725 14.725L40.1626 16.7875L41.6625 18.5375L42.5375 20.9125L45.2251 22.5375L45.7876 23.7875L44.6625 24.225L42.3501 24.1625L39.725 23.725L38.4125 24.0375L37.85 25.0375L36.7251 25.1625L35.35 24.2875L31.4126 26.2875L29.7875 25.9125L29.2875 26.225L28.2876 28.6625L25.6 27.85L23.0375 27.475L20.7876 25.975L17.85 24.6L15.975 25.9125L14.6 27.9125L14.2875 30.725L12.0376 30.5375L9.60005 29.85L7.53752 31.975L5.66252 35.725L5.28753 34.5375L5.1 32.725L3.47502 31.4125L2.16253 29.35L1.85003 27.9125L0.162561 25.7875L0.475061 24.6L0.1 22.9125L0.350015 19.7875L1.22503 19.1L2.97506 15.0375L5.85005 14.725L6.47505 13.6625L7.10005 13.7875L7.97506 14.6625L12.4125 13.1625L13.9126 11.6L15.725 10.1625L15.35 8.78752L16.35 8.41251L19.7875 8.66251L23.0375 6.78751L25.5375 2.41251L27.2875 0.787504L29.5376 0.1L29.975 1.78751L32.0376 4.28751V5.97502L31.5375 7.6L31.7875 8.85L32.9751 10.0375L33.2876 10.225Z" fill="var(--fill-0, #E5E7EB)" stroke="var(--stroke-0, #2A3038)" stroke-width="0.2" stroke-linecap="round" stroke-linejoin="round"/>
</svg>
