<svg preserveAspectRatio="none" width="100%" height="100%" overflow="visible" style="display: block;" viewBox="0 0 5.01197 2.45" fill="none" xmlns="http://www.w3.org/2000/svg">
<path id="Vector" d="M4.91197 0.912512V0.974996L4.78701 1.1L4.72446 1.47501L4.66198 1.6H4.47454L4.34951 1.725L4.03704 1.85001L3.91209 1.9125L3.53714 2.10001L3.28715 2.0375L2.97469 2.10001L2.78717 2.35L2.66222 2.16251L2.47471 2.225H2.34975L2.16224 2.0375L1.91225 2.225H1.59978L1.28732 2.10001L0.974848 2.0375L0.724935 1.85001L0.537424 1.47501L0.349913 1.2875L0.224957 0.850008L0.100001 0.662496L0.162479 0.475004L0.474946 0.662496L0.724935 0.600011L0.849892 0.4125L0.91237 0.225008L1.09988 0.162504L1.22484 0.225008L1.34987 0.1H1.47483L1.5373 0.349996L1.84977 0.475004L1.91225 0.600011H2.28727L2.66222 0.287511L2.91221 0.349996L3.09964 0.225008L3.28715 0.287511L3.53714 0.4125L3.6621 0.225008H3.84961L4.03704 0.475004V0.850008L4.22455 0.725L4.41199 0.850008L4.47454 0.787504L4.91197 0.912512Z" fill="var(--fill-0, #E5E7EB)" stroke="var(--stroke-0, #2A3038)" stroke-width="0.2" stroke-linecap="round" stroke-linejoin="round"/>
</svg>
