<svg preserveAspectRatio="none" width="100%" height="100%" overflow="visible" style="display: block;" viewBox="0 0 8.76166 9.44999" fill="none" xmlns="http://www.w3.org/2000/svg">
<path id="Vector" d="M0.349989 0.1L0.475022 0.162523L0.787489 0.725L0.974924 0.912492L1.16244 0.850008L1.28739 0.662515L1.84985 0.975015L2.03736 1.28752L2.47478 1.6625L2.66229 1.91252L2.72477 2.10001L2.97476 2.35002L3.03724 2.47499H3.1622L3.34971 2.66252L3.91216 2.78749L3.97464 2.97502V3.225L4.16208 3.47502L4.41207 3.5375L4.22463 3.85L4.28711 3.97501L4.5371 4.28751H4.59958L4.84957 4.60001L4.78701 4.85002L5.22451 4.97499L5.4745 5.28749H5.66194L5.84945 5.4125L6.16191 5.66252L6.09944 5.85001H6.28687L6.53686 6.16251L6.91181 6.41252V6.53749L7.09932 6.60002L7.28675 6.78751V6.91252L7.47426 7.2875L7.72425 7.53752L7.78673 7.47499L8.03672 7.85002L8.34919 7.9125L8.53662 8.09999V8.35001L8.59918 8.60002L8.66165 8.66251L8.53662 9.03749L8.0992 9.28751L8.03672 9.10002L7.84921 9.1625L7.66177 9.34999L7.28675 8.85H7.03684L6.97428 8.72499H6.84933L6.72437 8.91252L6.16191 8.35001H6.03688L5.78697 8.03751L5.84945 7.53752H5.66194H5.41195L5.22451 7.41251L5.16203 7.2875L5.037 7.22502H4.84957V7.03752L4.72453 6.72502L4.47454 6.78751L3.97464 6.47501L3.91216 6.35V6.16251L3.72465 6.28752L3.34971 6.10002L3.28723 5.85001L3.03724 5.66252L2.91221 5.35002L2.59974 5.28749L2.72477 5.16252L2.53726 4.97499L2.34983 4.91251L2.16232 4.475V4.22502L2.03736 4.03749H1.84985L1.72489 3.66251L1.78737 3.5375L1.34987 3.28752L1.16244 3.16252L0.912446 2.78749L1.09996 2.66252L0.974924 2.53752L0.849968 2.35002V2.03752L0.5375 1.84999V1.47501L0.412467 1.28752H0.599978L0.662457 1.10002L0.599978 0.975015H0.225033L0.1 0.787523L0.412467 0.350015L0.225033 0.162523L0.349989 0.1Z" fill="var(--fill-0, #E5E7EB)" stroke="var(--stroke-0, #2A3038)" stroke-width="0.2" stroke-linecap="round" stroke-linejoin="round"/>
</svg>
