<svg preserveAspectRatio="none" width="100%" height="100%" overflow="visible" style="display: block;" viewBox="0 0 130.013 60.8875" fill="none" xmlns="http://www.w3.org/2000/svg">
<path id="Vector" d="M129.912 5.5375L114.537 18.2875L92.2875 38.725L94.9125 38.85L96.6625 39.85L96.975 41.475L97.1625 43.85L101.913 41.7875L105.975 40.6L105.6 42.5375L106.1 44.0375L107.1 45.725L106.412 48.35L105.537 52.6625L108.413 55.0375L106.412 57.4125L103.225 59.225L102.85 57.85L101.288 56.6L103.35 53.35L102.35 50.2875L104.038 46.7875L101.475 46.5375L97.0375 46.475L94.6625 45.35L92.6 41.5375L90.5375 40.85L86.975 39.5375L82.725 39.85L78.975 38.1625L77.2875 36.6L73.35 37.35L71.1625 39.9125L69.35 40.1625L65.225 40.9125L61.35 42.1625L57.35 42.975L59.35 40.7875L64.6 37.1625L68.85 36.0375L69.1 35.1625L63.225 37.1625L58.6 39.6L51.6 42.225L51.725 44.0375L46.1 46.6625L41.2875 48.225L37.1625 49.4125L34.6625 51.0375L28.0375 52.975L25.225 54.725L20.1 56.35L18.4125 56.1L14.5375 57.1L10.1625 58.4125L6.35 59.6625L0.100001 60.7875L0.349998 60.1L5.475 58.35L9.6 57.1625L14.975 55.1L19.0375 54.725L22.1625 53.1625L28.6625 50.9125L30.1 50.1625L33.6625 48.85L37.2875 46.0375L41.1625 43.85L36.6 44.975L36.4125 44.2875L33.35 45.6625L33.6 43.7875L31.35 45.1L32.35 43.2875L27.7875 44.725H26.0375L28.35 42.5375L30.4125 41.1625L30.1625 39.85L25.6625 40.6L25.2875 38.85L24.475 37.975L26.975 35.9125L26.725 34.35L30.4125 32.2875L35.225 30.225L38.5375 28.4125L41.1 28.1625L42.225 28.725L46.6625 26.975L48.225 27.2875L51.725 26.1625L53.2875 24.5375L52.6 23.9125L56.35 22.5375L54.6 22.6L50.725 23.35L48.9125 24.1625L47.7875 23.35L43.475 23.7875L40.6 22.9125L41.35 21.475L40.725 19.475L46.475 17.975L54.725 16.2875H56.9125L54.225 18.0375L59.975 17.9125L60.725 15.725L59.2875 14.4125L59.7875 12.6625L59.35 11.225L57.2875 10.1625L61.35 8.35L66.0375 8.225L71.5375 6.725L74.5375 5.1L79.475 3.475L82.475 3.1L89.475 1.6L91.4125 1.85L97.9125 0.1L100.663 0.787499L100.35 2.2875L102.412 1.6625L106.35 1.85L105.162 2.6L108.225 3.1625L111.288 2.85L115.162 3.85L119.663 4.225L121.037 4.6L125.162 4.1L127.725 5.1L129.912 5.5375Z" fill="var(--fill-0, #E5E7EB)" stroke="var(--stroke-0, #2A3038)" stroke-width="0.2" stroke-linecap="round" stroke-linejoin="round"/>
</svg>
