<svg preserveAspectRatio="none" width="100%" height="100%" overflow="visible" style="display: block;" viewBox="0 0 52.5125 54.1375" fill="none" xmlns="http://www.w3.org/2000/svg">
<path id="PK" d="M52.4125 6.6625L50.0375 10.0375L46.475 10.6625L41.1625 9.66251L39.9125 11.4125L41.975 14.9125L43.7875 17.6625L46.975 19.6L44.6 21.9125L45.225 24.7875L42.7875 28.85L41.4125 32.9125L38.6 37.1L34.5375 36.7875L31.475 41.0375L33.975 42.7875L34.85 45.9125L37.0375 47.9125L38.1625 51.35H30.6L28.6 54.0375L25.975 53.0375L24.6 50.1625L21.5375 47.1L15.2875 47.85L9.66246 47.9125L4.91247 48.475L5.59996 43.85L10.2875 41.725L9.72502 39.9125L8.03747 39.225L7.41247 35.725L3.85 33.975L2.09997 31.5375L0.100001 29.4125L6.09999 31.475L9.41252 30.85L11.5375 31.35L12.1 30.475L14.5375 30.85L18.6625 29.1625L18.1625 25.7875L19.6 23.475H22.1625L22.2875 22.4125L24.7875 21.85L26.1 22.225L27.225 21.1L26.5375 18.6625L27.4125 16.2875L29.35 15.225L27.4125 12.6L30.6625 12.725L31.225 11.2875L30.725 9.725L31.975 8.03751L31.1 6.0375L29.9125 4.35001L31.4125 2.6L34.725 1.78751L38.4125 1.2875L39.9125 0.600012L41.725 0.1L44.6625 1.975L46.475 5.1L52.4125 6.6625Z" fill="var(--fill-0, #E5E7EB)" stroke="var(--stroke-0, #2A3038)" stroke-width="0.2" stroke-linecap="round" stroke-linejoin="round"/>
</svg>
