<svg preserveAspectRatio="none" width="100%" height="100%" overflow="visible" style="display: block;" viewBox="0 0 17.075 28.7" fill="none" xmlns="http://www.w3.org/2000/svg">
<path id="GY" d="M15.1625 9.725L14.5375 13.35L12.35 14.35L12.5375 15.2875L11.85 17.4125L13.35 20.2875H14.475L14.9125 22.5375L16.975 26.0375L16.1625 26.225L14.1625 25.85L13.0375 26.9125L11.4125 27.6L10.2875 27.7875L9.91251 28.6L8.16252 28.4125L5.97502 26.5375L5.78752 24.6625L4.91251 22.6L5.53751 19.225L6.53749 17.7875L5.78752 15.9125L4.53752 15.35L5.03752 13.5375L4.28751 12.6625L2.41251 12.7875L0.1 9.7875L1.10002 8.66249V6.78749L3.28752 6.16249L4.1625 5.4125L3.03751 3.9125L3.35001 2.47499L6.28752 0.1L8.5375 1.6L10.6 4.1625L10.6625 6.2875L11.975 6.35L13.85 8.2875L15.1625 9.725Z" fill="var(--fill-0, #E5E7EB)" stroke="var(--stroke-0, #2A3038)" stroke-width="0.2" stroke-linecap="round" stroke-linejoin="round"/>
</svg>
