<svg preserveAspectRatio="none" width="100%" height="100%" overflow="visible" style="display: block;" viewBox="0 0 55.5125 57.7626" fill="none" xmlns="http://www.w3.org/2000/svg">
<path id="MA" d="M51.975 2.47499L53.1625 5.0375L53.35 7.47499L54.5375 11.725L55.4125 12.6L54.7875 14.1625L50.35 14.85L48.7875 16.2875L46.85 16.6625L46.6625 19.6625L42.6625 21.225L41.35 23.225L38.5375 24.2875L35.1625 24.9125L29.6 27.9125L29.5375 32.6625H28.975L29.0375 34.7875L26.9125 34.9125L25.7875 35.85H24.225L22.975 35.2875L20.1 35.725L18.9125 38.85L17.7875 39.1625L16.1 44.225L11.1625 48.5375L9.91251 54.1L8.41249 55.9125L7.97502 57.35L0.162523 57.6625H0.1L0.287493 55.7875L1.6625 54.725L2.85002 52.6L2.66252 51.225L3.91252 48.4125L5.91249 45.85L7.10001 45.225L8.09999 42.9125L8.225 40.725L9.53752 38.2875L11.9125 36.7875L14.1625 32.725L14.225 32.6625L16.0375 31.1L19.225 30.6625L21.975 27.9125L23.725 26.85L26.6625 23.475L25.9125 18.5375L27.2875 15.0375L27.85 12.9125L30.1 10.225L33.475 8.41249L36.0375 6.72499L38.35 2.6L39.475 0.1L41.9125 0.162485L43.85 1.84999L47.0375 1.6L50.475 2.47499H51.975Z" fill="var(--fill-0, #E5E7EB)" stroke="var(--stroke-0, #2A3038)" stroke-width="0.2" stroke-linecap="round" stroke-linejoin="round"/>
</svg>
