<svg preserveAspectRatio="none" width="100%" height="100%" overflow="visible" style="display: block;" viewBox="0 0 2.76223 4.38751" fill="none" xmlns="http://www.w3.org/2000/svg">
<path id="Vector" d="M0.412475 0.1L0.912415 0.225008L1.03741 0.162504L1.28736 0.349996L1.84982 0.974996L1.97481 1.35L2.22476 1.4125L2.66223 1.725V1.85001L2.53723 2.16251L2.66223 2.6H2.41227L2.09981 2.85L2.03729 2.975L1.84982 3.6L1.78734 4.1625L1.66234 4.28751L1.47487 4.1625L1.41236 3.9125L1.1624 3.85L1.34988 3.5375H1.47487L1.78734 3.2875L1.72482 3.03751L1.84982 2.78751V2.6L1.97481 2.41251V2.0375L2.09981 1.975L2.22476 1.78751L2.28728 1.6L2.09981 1.53751L1.78734 1.47501L1.72482 1.2875V1.16251L1.47487 1.0375V0.850008L1.28736 0.4125L1.1624 0.349996L0.974894 0.4125L0.662426 0.349996H0.474953L0.100008 0.1H0.412475Z" fill="var(--fill-0, #E5E7EB)" stroke="var(--stroke-0, #2A3038)" stroke-width="0.2" stroke-linecap="round" stroke-linejoin="round"/>
</svg>
