<svg preserveAspectRatio="none" width="100%" height="100%" overflow="visible" style="display: block;" viewBox="0 0 27.8875 29.825" fill="none" xmlns="http://www.w3.org/2000/svg">
<path id="DE" d="M24.1625 4.725L25.0375 6.6625L24.2875 7.725L25.475 9.0375L26.4125 11.1L26.2875 12.475L27.7875 14.9125L26.4125 15.2875L25.6 14.85L24.9125 15.6L22.725 16.35L21.6625 17.35L19.5375 18.1625L20.1625 19.2875L20.6 20.975L22.225 21.9125L24.1 23.5375L23.1 25.35L22.0375 25.85L22.6625 28.4125L22.4125 29.1L21.35 28.2875L19.85 28.1625L17.6625 28.85L14.9125 28.6625L14.5375 29.725L12.85 28.6625L11.975 28.85L8.5375 27.6625L7.9125 28.475H5.28749L5.53747 25.6625L7.03749 23.0375L2.53748 22.2875L1.0375 21.2875L1.16247 19.6L0.53747 18.725L0.787486 16.1L0.100001 12.0375H1.91248L2.66249 10.6L3.225 7.1L2.66249 5.7875L3.16248 4.975L5.66252 4.7875L6.28752 5.6L8.225 3.725L7.41247 2.2875L7.16245 0.162504L9.475 0.662497L11.2875 0.1L11.475 1.5375L14.5375 2.4125L14.6 3.7875L17.5375 3.0375L19.1625 2.0375L22.6625 3.5375L24.1625 4.725Z" fill="var(--fill-0, #E5E7EB)" stroke="var(--stroke-0, #2A3038)" stroke-width="0.2" stroke-linecap="round" stroke-linejoin="round"/>
</svg>
