<svg preserveAspectRatio="none" width="100%" height="100%" overflow="visible" style="display: block;" viewBox="0 0 22.2 12.325" fill="none" xmlns="http://www.w3.org/2000/svg">
<path id="HN" d="M22.1 4.1L20.9125 4.03749L20.35 4.59999L19.1 5.1H18.225L17.4125 5.59999L16.725 5.475L16.1625 4.85L15.7875 4.97499L15.225 5.91249L14.9125 5.84999L14.7875 6.725L13.475 7.78749L12.725 8.2875L12.35 8.7875L11.4125 7.975L10.5375 9.03749H9.7875L8.97501 9.1L8.85 11.1H8.35001L7.85 12.0375L6.725 12.225L6.22501 10.975L5.1625 10.6L5.60001 8.97499L5.1625 8.5375L4.4125 8.2875L2.85 8.72499L2.78751 8.225L1.78751 7.5375L1.1 6.78749L0.100001 6.4125L0.912513 5.4125L0.725001 4.59999L1.0375 3.85L2.85 2.72499L4.60001 1.16249L4.97501 1.35L5.7875 0.662497L6.78751 0.599993L7.10001 0.912493L7.6625 0.725001L9.28751 1.1L10.9125 0.974997L12.0375 0.537489L12.5375 0.100001L13.6 0.287493L14.4125 0.537489L15.35 0.475005L16.1 0.100001L17.6625 0.662497L18.1625 0.787505L19.1625 1.53749L20.1 2.41249L21.2875 3.03749L22.1 4.1Z" fill="var(--fill-0, #E5E7EB)" stroke="var(--stroke-0, #2A3038)" stroke-width="0.2" stroke-linecap="round" stroke-linejoin="round"/>
</svg>
