<svg preserveAspectRatio="none" width="100%" height="100%" overflow="visible" style="display: block;" viewBox="0 0 32.3249 49.7625" fill="none" xmlns="http://www.w3.org/2000/svg">
<path id="SE" d="M32.2249 10.7875L27.8499 11.7875L25.6624 14.225L26.475 16.4125L22.6 19.225L17.725 22.35L16.4125 27.4125L18.725 29.975L21.725 32.0375L19.6625 36.1625L16.7875 37.0375L16.4125 43.2875L15.1 46.85L11.5375 46.475L10.1625 49.475L6.72498 49.6625L5.53747 46.1L2.72497 41.7875L0.1 36.5375L1.22495 34.4125L3.34997 31.9125L3.85 27.6L1.91244 25.7875L1.28744 20.975L2.78745 17.6L5.47498 17.6625L6.28744 16.2875L5.16248 15.0375L8.72495 10.1L10.85 6.2875L12.2875 3.85H14.7875L15.1625 1.9125L20.1625 2.475L20.1 0.224998L21.725 0.1L25.475 1.7875L29.975 4.1L31.1 9.4125L32.2249 10.7875Z" fill="var(--fill-0, #E5E7EB)" stroke="var(--stroke-0, #2A3038)" stroke-width="0.2" stroke-linecap="round" stroke-linejoin="round"/>
</svg>
