<svg preserveAspectRatio="none" width="100%" height="100%" overflow="visible" style="display: block;" viewBox="0 0 20.1375 11.45" fill="none" xmlns="http://www.w3.org/2000/svg">
<path id="HU" d="M17.8499 0.912492L19.7249 1.975L20.0374 3.0375L18.225 3.85L17.0375 6.475L15.4125 9.1625L12.975 9.9125L10.9749 9.725L8.66247 10.725L7.53744 11.35L4.84998 10.6L2.34998 8.91249L1.35 8.41249L0.599955 7.1L0.1 7.03749L0.912455 4.53749L0.22497 3.6625H1.975L2.09997 2.03749L3.78744 3.09999L4.97495 3.475L7.53744 3.0375L7.72497 2.225L8.91248 2.1L10.3499 1.53749L10.725 1.7875L12.1625 1.2875L12.7875 0.349996L13.7874 0.1L17.2249 1.2875L17.8499 0.912492Z" fill="var(--fill-0, #E5E7EB)" stroke="var(--stroke-0, #2A3038)" stroke-width="0.2" stroke-linecap="round" stroke-linejoin="round"/>
</svg>
