<svg preserveAspectRatio="none" width="100%" height="100%" overflow="visible" style="display: block;" viewBox="0 0 20.95 19.7" fill="none" xmlns="http://www.w3.org/2000/svg">
<path id="Vector" d="M13.6625 3.725L10.5375 7.1L12.975 5.7875L14.7875 6.6625L13.2875 7.975L15.6625 9.0375L17.4125 8.1L20.1 9.2875L18.35 12.1625L20.725 11.475L20.5375 13.5375L20.85 15.975L18.6 19.475L17.1 19.6L15.2875 18.85L16.85 15.6625L16.1 15.1625L11.5375 18.5375L9.66249 18.4125L12.4125 16.5375L9.66249 15.6L6.22499 15.85L0.22501 15.725L0.100002 14.6L2.47499 13.1625L1.41252 12.1625L4.7875 9.7875L9.91251 3.6L12.5375 1.4125L15.6625 0.1L16.975 0.224998L16.0375 1.2875L13.6625 3.725Z" fill="var(--fill-0, #E5E7EB)" stroke="var(--stroke-0, #2A3038)" stroke-width="0.2" stroke-linecap="round" stroke-linejoin="round"/>
</svg>
