<svg preserveAspectRatio="none" width="100%" height="100%" overflow="visible" style="display: block;" viewBox="0 0 4.76202 3.6375" fill="none" xmlns="http://www.w3.org/2000/svg">
<g id="Vector">
<path d="M2.0998 1.28748L1.84981 1.16247L1.53734 0.974977L1.0374 0.787485L1.09988 0.53747L0.662457 0.474985L0.474946 0.4125L0.287473 0.162485L0.412467 0.1L0.912408 0.287492L1.41235 0.53747L1.72482 0.599992L1.9748 0.662477L2.16228 0.474985L2.22479 0.287492L2.34975 0.349977L2.59974 0.22497L2.66222 0.349977H2.97468V0.53747H3.1622L3.72461 0.4125L3.78713 0.53747H3.9746L4.22455 0.474985L4.03708 0.349977L3.9746 0.162485H4.22455L4.59954 0.287492L4.66202 0.53747L4.41207 0.84997L4.47454 1.0375L4.34955 1.16247H4.0996L3.91209 1.6625L3.72461 1.84999L3.53714 2.22498L3.47466 2.41247L3.1622 2.6L3.09968 2.47499H2.84973V2.66248L2.34975 2.6L2.28727 2.66248L2.47474 2.9125L2.41227 2.97498L2.28727 3.225H2.03728L1.84981 3.47498L1.66234 3.5375H1.53734L1.41235 3.34997L1.1624 3.16248V3.03747H0.849929L1.22487 3.28748H0.974924L0.662457 3.09999L0.537462 3.03747L0.287473 2.9125L0.1 2.78749V2.66248L0.537462 2.78749L0.912408 2.66248L0.59994 2.53748L0.537462 2.47499H1.09988L1.34987 2.53748L1.53734 2.66248V2.53748L1.78733 2.47499L1.84981 2.2875L1.59986 2.16249L1.47486 1.84999L1.53734 1.72498H1.91233L2.03728 1.78747L2.28727 1.72498L2.22479 1.53749H1.72482V1.59998L1.47486 1.72498H1.09988L0.787413 1.53749V1.35L1.22487 1.47497L1.59986 1.35H1.78733L2.0998 1.28748L2.34975 1.41248V1.35L2.0998 1.28748Z" fill="var(--fill-0, #E5E7EB)"/>
<path d="M2.0998 1.28748L1.84981 1.16247L1.53734 0.974977L1.0374 0.787485L1.09988 0.53747L0.662457 0.474985L0.474946 0.4125L0.287473 0.162485L0.412467 0.1L0.912408 0.287492L1.41235 0.53747L1.72482 0.599992L1.9748 0.662477L2.16228 0.474985L2.22479 0.287492L2.34975 0.349977L2.59974 0.22497L2.66222 0.349977H2.97468V0.53747H3.1622L3.72461 0.4125L3.78713 0.53747H3.9746L4.22455 0.474985L4.03708 0.349977L3.9746 0.162485H4.22455L4.59954 0.287492L4.66202 0.53747L4.41207 0.84997L4.47454 1.0375L4.34955 1.16247H4.0996L3.91209 1.6625L3.72461 1.84999L3.53714 2.22498L3.47466 2.41247L3.1622 2.6L3.09968 2.47499H2.84973V2.66248L2.34975 2.6L2.28727 2.66248L2.47474 2.9125L2.41227 2.97498L2.28727 3.225H2.03728L1.84981 3.47498L1.66234 3.5375H1.53734L1.41235 3.34997L1.1624 3.16248V3.03747H0.849929L1.22487 3.28748H0.974924L0.662457 3.09999L0.537462 3.03747L0.287473 2.9125L0.1 2.78749V2.66248L0.537462 2.78749L0.912408 2.66248L0.59994 2.53748L0.537462 2.47499H1.09988L1.34987 2.53748L1.53734 2.66248V2.53748L1.78733 2.47499L1.84981 2.2875L1.59986 2.16249L1.47486 1.84999L1.53734 1.72498H1.91233L2.03728 1.78747L2.28727 1.72498L2.22479 1.53749H1.72482V1.59998L1.47486 1.72498H1.09988L0.787413 1.53749V1.35L1.22487 1.47497L1.59986 1.35H1.78733L2.0998 1.28748ZM2.0998 1.28748L2.34975 1.41248V1.35L2.0998 1.28748Z" stroke="var(--stroke-0, #2A3038)" stroke-width="0.2" stroke-linecap="round" stroke-linejoin="round"/>
</g>
</svg>
