<svg preserveAspectRatio="none" width="100%" height="100%" overflow="visible" style="display: block;" viewBox="0 0 1.44987 2.51251" fill="none" xmlns="http://www.w3.org/2000/svg">
<path id="Vector" d="M0.662418 0.787504L0.912408 0.912511L1.0374 0.787504L1.09988 0.475004L1.22488 0.4125L1.34987 0.787504V1.1L1.28735 1.28752L1.34987 1.6625V1.85001L1.09988 2.35L0.974886 2.41251L0.724935 2.2875L0.849929 2.10001L1.09988 1.975L1.0374 1.91252L0.662418 2.16251L0.537462 2.0375L0.787413 1.85001H0.537462L0.412467 1.91252L0.287473 1.78751V1.35L0.349951 1.22501L0.1 0.912511V0.787504L0.349951 0.662515L0.412467 0.475004L0.59994 0.4125L0.662418 0.287511L1.0374 0.1L1.09988 0.350015L0.787413 0.600011L0.662418 0.787504Z" fill="var(--fill-0, #E5E7EB)" stroke="var(--stroke-0, #2A3038)" stroke-width="0.2" stroke-linecap="round" stroke-linejoin="round"/>
</svg>
