<svg preserveAspectRatio="none" width="100%" height="100%" overflow="visible" style="display: block;" viewBox="0 0 27.1375 22.2625" fill="none" xmlns="http://www.w3.org/2000/svg">
<path id="BF" d="M20.725 0.850009L20.4125 2.78751L20.9125 4.60001L22.85 7.22502L22.975 9.1625L27.0375 10.1L26.975 12.85L26.225 14.0375L24.475 14.4125L23.7875 16.1625L22.5375 16.6L19.475 16.5375L17.85 16.225L16.725 16.85L15.1625 16.5375L9.03749 16.725L8.91248 19.0375L9.41252 22.0375L6.975 21.0375L5.35002 21.1625L4.10002 22.1625L2.53752 21.35L1.91252 19.975L0.350015 19.1L0.1 16.7875L1.09998 15.1L0.975015 13.725L3.78752 10.4125L4.34999 7.66251L5.28749 6.6625L6.975 7.22502L8.47502 6.41251L8.97501 5.35002L11.6625 3.60001L12.35 2.35001L15.6625 0.662517L17.6 0.100001L18.475 0.850009H20.725Z" fill="var(--fill-0, #E5E7EB)" stroke="var(--stroke-0, #2A3038)" stroke-width="0.2" stroke-linecap="round" stroke-linejoin="round"/>
</svg>
