<svg preserveAspectRatio="none" width="100%" height="100%" overflow="visible" style="display: block;" viewBox="0 0 57.1375 53.8875" fill="none" xmlns="http://www.w3.org/2000/svg">
<path id="SD" d="M50.7875 30.475L50.35 33.9125L49.1 37.9125L47.0375 39.85L45.6 42.975L45.2875 44.6L43.6625 45.725L42.725 49.9125V50.4125L42.225 50.2875L42.2875 48.2875L41.7875 46.9125L39.975 45.35L39.4125 42.475L39.7875 39.475L38.1625 39.225L37.9125 40.1L35.7875 40.35L36.725 41.475L37.0375 43.9125L35.1625 46.1L33.475 48.975L31.6625 49.4125L28.6625 47.1L27.35 47.9125L27.0375 49.0375L25.225 49.85L25.1 50.6625H21.6L21.1 49.85L18.5375 49.6625L17.2875 50.35L16.2875 50.0375L14.475 47.6625L13.85 46.6L11.2875 47.1625L10.35 48.975L9.53749 52.6L8.28749 53.35L7.22502 53.7875L6.91252 53.6L5.725 52.4125L5.47499 51.1625L5.97502 49.5375V47.85L3.91249 45.35L3.47502 43.6625V42.6625L2.16246 41.475L2.09997 39.1625L1.28752 37.6L0.100002 37.85L0.412502 36.35L1.28752 34.725L0.849971 33.0375L1.975 31.7875L1.22496 30.85L2.03749 28.4125L3.59999 25.4125L6.60002 25.725L5.91246 9.7875V8.09999H9.91247L9.59997 0.1H23.5375H36.975H50.7875L52.1 4.03749L51.35 4.725L52.1 8.9125L53.6625 13.6625L55.0375 14.6625L57.0375 16.1625L55.35 18.4125L52.85 19.1L51.7875 20.35L51.6 22.975L50.35 28.9125L50.7875 30.475Z" fill="var(--fill-0, #E5E7EB)" stroke="var(--stroke-0, #2A3038)" stroke-width="0.2" stroke-linecap="round" stroke-linejoin="round"/>
</svg>
