<svg preserveAspectRatio="none" width="100%" height="100%" overflow="visible" style="display: block;" viewBox="0 0 2.26228 3.82499" fill="none" xmlns="http://www.w3.org/2000/svg">
<path id="Vector" d="M0.412471 0.1L0.474949 0.224989L0.662422 0.474985L1.1624 0.912492L1.47487 0.974996L1.53735 1.0375L1.66234 1.2875L1.84981 1.53749L2.16228 1.78749V1.9125L2.03729 2.41249L1.97481 2.5375V2.72499L1.91229 3.03749L1.78733 3.225L1.72482 3.66249L1.66234 3.72499L1.53735 3.34999L1.28736 3.1625L1.34987 3.03749L1.66234 3.09999L1.78733 2.97498L1.72482 2.85L1.78733 2.6L1.97481 2.34998L2.03729 2.03748V1.84999L1.72482 1.6L1.47487 1.16249L1.28736 1.0375L0.912411 0.849989L0.724938 0.662496L0.349954 0.537489L0.100003 0.662496L0.349954 0.1H0.412471Z" fill="var(--fill-0, #E5E7EB)" stroke="var(--stroke-0, #2A3038)" stroke-width="0.2" stroke-linecap="round" stroke-linejoin="round"/>
</svg>
