<svg preserveAspectRatio="none" width="100%" height="100%" overflow="visible" style="display: block;" viewBox="0 0 45.7625 36.95" fill="none" xmlns="http://www.w3.org/2000/svg">
<path id="AF" d="M44.725 4.35001L45.6625 5.475L43.85 5.97501L42.35 6.6625L38.6625 7.16251L35.35 7.975L33.85 9.72501L35.0375 11.4125L35.9125 13.4125L34.6625 15.1L35.1625 16.6625L34.6 18.1L31.35 17.975L33.2875 20.6L31.35 21.6625L30.475 24.0375L31.1625 26.475L30.0375 27.6L28.725 27.225L26.225 27.7875L26.1 28.85H23.5375L22.1 31.1625L22.6 34.5375L18.475 36.225L16.0375 35.85L15.475 36.725L13.35 36.225L10.0375 36.85L4.03753 34.7875L6.47505 31.1625L5.78749 28.6L3.10003 27.9125L2.34999 25.35L0.662519 22.1625L1.6625 19.975L0.100004 19.35L0.412504 16.4125L0.787488 11.4125L4.475 12.975L6.91252 12.4125L7.16253 10.6L9.66253 10.0375L11.2875 8.78751L11.1625 5.60001L13.7875 4.7875L13.975 3.41251L15.7875 4.475L16.7875 4.60001H18.6625L21.35 5.475L22.475 5.91251L24.6 4.66251L25.9125 5.4125L26.475 3.6L28.475 3.66251L28.85 3.10001L28.725 1.47501L29.7875 0.100007L31.85 0.975013L31.7875 2.22501L32.85 2.41251L33.4125 5.7875L35.1 7.10001L36.0375 6.22501L37.4125 5.85001L38.975 4.03751L41.35 4.35001H44.725Z" fill="var(--fill-0, #E5E7EB)" stroke="var(--stroke-0, #2A3038)" stroke-width="0.2" stroke-linecap="round" stroke-linejoin="round"/>
</svg>
