<svg preserveAspectRatio="none" width="100%" height="100%" overflow="visible" style="display: block;" viewBox="0 0 14.7625 16.575" fill="none" xmlns="http://www.w3.org/2000/svg">
<path id="GT" d="M12.475 0.162504L12.0375 3.35001L11.225 7.85H12.2875L13.35 8.6L13.725 7.975L14.6625 8.475L12.9125 10.0375L11.1 11.1625L10.7875 11.9125L10.975 12.725L10.1625 13.725L9.28751 13.975L9.475 14.475L8.72501 14.9125L7.47501 15.9125L7.2875 16.475L5.53751 15.7875L3.35001 15.725L1.85001 14.9125L0.100002 13.2875L0.350017 12.1L0.85001 11.1625L0.412502 10.4125L2.47501 7.16251H6.975L7.22502 5.7875L6.72501 5.53751L6.41251 4.66251L5.22501 3.72501L4.10002 2.41251L5.66252 2.35L5.97502 0.1H9.22501L12.475 0.162504Z" fill="var(--fill-0, #E5E7EB)" stroke="var(--stroke-0, #2A3038)" stroke-width="0.2" stroke-linecap="round" stroke-linejoin="round"/>
</svg>
