<svg preserveAspectRatio="none" width="100%" height="100%" overflow="visible" style="display: block;" viewBox="0 0 52.6375 46.5125" fill="none" xmlns="http://www.w3.org/2000/svg">
<path id="ET" d="M21.7875 1.78751L24.225 1.85001L27.35 3.47502L28.2875 4.85L29.9125 6.16251L31.475 8.47502L32.725 9.7875L31.5375 11.5375L30.4125 13.4125L30.725 14.5375L30.85 15.7875L32.85 15.85L33.6625 15.5375L34.475 16.2875L33.725 17.6625L35.1 19.9125L36.475 21.85L37.85 23.2875L49.5375 28.0375L52.5375 27.975L42.7875 40.0375L38.225 40.225L35.1 43.0375L32.85 43.1L31.9125 44.4125H29.475L28.0375 43.0375L24.7875 44.725L23.7875 46.4125L21.4125 46.0375L20.6 45.6L19.7875 45.725L18.6625 45.6625L14.1625 42.2875H11.6625L10.475 40.975L10.4125 38.725L8.59998 38.0375L6.41248 33.6625L4.7875 32.725L4.1625 31.1L2.2875 29.1625L0.1 28.85L1.28752 26.6L3.16252 26.475L3.66255 25.2875L3.5375 22.1625V21.6625L4.475 17.475L6.09998 16.35L6.41248 14.725L7.85002 11.6L9.91255 9.66251L11.1625 5.66252L11.6 2.22502L15.725 3.10001L16.6625 0.100001L18.9125 1.91252L20.9125 0.975016L21.7875 1.78751Z" fill="var(--fill-0, #E5E7EB)" stroke="var(--stroke-0, #2A3038)" stroke-width="0.2" stroke-linecap="round" stroke-linejoin="round"/>
</svg>
