<svg preserveAspectRatio="none" width="100%" height="100%" overflow="visible" style="display: block;" viewBox="0 0 23.2 33.2" fill="none" xmlns="http://www.w3.org/2000/svg">
<path id="Vector" d="M9.41248 0.100002L6.22499 4.1625L9.1625 3.6625H12.35L11.5375 6.725L8.85 10.1L11.9125 10.2875L12.1 10.725L14.725 15.1625L16.725 15.7875L18.5375 20.1625L19.4125 21.6625L23.1 22.35L22.725 24.85L21.225 25.975L22.4125 27.975L19.6625 29.975L15.6 29.9125L10.35 31.0375L8.97501 30.225L6.91248 32.0375L4.09998 31.6L1.84999 33.1L0.287493 32.35L4.84999 28.2875L7.6 27.4125L2.84998 26.7875L2.03749 25.225L5.22501 24.0375L3.66251 21.975L4.28751 19.475L8.72499 19.85L9.22499 17.6L7.2875 15.2875L7.22498 15.225L3.66251 14.5375L2.97499 13.5375L4.09998 11.85L3.16248 10.7875L1.53749 12.6L1.47501 8.9125L0.100001 7.0375L1.28748 3.1625L3.66251 0.162505L5.91249 0.412502L9.41248 0.100002Z" fill="var(--fill-0, #E5E7EB)" stroke="var(--stroke-0, #2A3038)" stroke-width="0.2" stroke-linecap="round" stroke-linejoin="round"/>
</svg>
