<svg preserveAspectRatio="none" width="100%" height="100%" overflow="visible" style="display: block;" viewBox="0 0 12.0145 14.3997" fill="none" xmlns="http://www.w3.org/2000/svg">
<path id="Vector" fill-rule="evenodd" clip-rule="evenodd" d="M11.6631 7.5516C11.8881 7.77663 12.0145 8.0818 12.0145 8.4C12.0145 8.7182 11.8881 9.02337 11.6631 9.2484L6.86315 14.0484C6.63811 14.2734 6.33294 14.3997 6.01475 14.3997C5.69655 14.3997 5.39138 14.2734 5.16635 14.0484L0.366346 9.2484C0.251734 9.1377 0.160315 9.00529 0.0974242 8.85889C0.0345334 8.71248 0.00142989 8.55502 4.53085e-05 8.39568C-0.00133927 8.23635 0.0290225 8.07833 0.0893596 7.93086C0.149697 7.78338 0.2388 7.6494 0.351472 7.53673C0.464143 7.42406 0.598125 7.33495 0.745601 7.27461C0.893077 7.21428 1.05109 7.18391 1.21043 7.1853C1.36976 7.18668 1.52723 7.21979 1.67363 7.28268C1.82004 7.34557 1.95245 7.43699 2.06315 7.5516L4.81475 10.3032V1.2C4.81475 0.88174 4.94117 0.576516 5.16622 0.351472C5.39126 0.126428 5.69649 0 6.01475 0C6.33301 0 6.63823 0.126428 6.86327 0.351472C7.08832 0.576516 7.21475 0.88174 7.21475 1.2V10.3032L9.96635 7.5516C10.1914 7.32664 10.4965 7.20026 10.8147 7.20026C11.1329 7.20026 11.4381 7.32664 11.6631 7.5516Z" fill="var(--fill-0, #E5E7EB)"/>
</svg>
