<svg preserveAspectRatio="none" width="100%" height="100%" overflow="visible" style="display: block;" viewBox="0 0 40.7624 35.2625" fill="none" xmlns="http://www.w3.org/2000/svg">
<path id="SS" d="M35.6 11.2875L35.725 14.4125L35.225 15.6L33.35 15.725L32.1625 17.975L34.35 18.2875L36.225 20.225L36.85 21.85L38.4749 22.7875L40.6624 27.1625L38.2875 29.7875L36.1625 32.1625L33.975 34.0375H31.475L28.6625 34.975L26.4125 34.0375L24.975 35.1625L21.7875 32.475L20.9125 30.7875L18.975 31.6L17.35 31.35L16.4125 32.0375L14.7875 31.5375L12.6 28.225L12.0375 26.975L9.34996 25.35L8.47494 22.975L6.975 21.225L4.53749 19.1625L4.475 17.85L2.53744 16.225L0.100001 14.6625L1.16247 14.225L2.41247 13.475L3.225 9.84999L4.1625 8.0375L6.72499 7.475L7.34999 8.53751L9.1625 10.9125L10.1625 11.225L11.4125 10.5375L13.975 10.725L14.475 11.5375H17.975L18.1 10.725L19.9125 9.9125L20.225 8.7875L21.5375 7.97499L24.5375 10.2875L26.35 9.84999L28.0375 6.97501L29.9125 4.78751L29.6 2.34999L28.6625 1.225L30.7875 0.975006L31.0375 0.10001L32.6625 0.350006L32.2875 3.35L32.8499 6.225L34.6625 7.7875L35.1625 9.16251L35.1 11.1625L35.6 11.2875Z" fill="var(--fill-0, #E5E7EB)" stroke="var(--stroke-0, #2A3038)" stroke-width="0.2" stroke-linecap="round" stroke-linejoin="round"/>
</svg>
