<svg preserveAspectRatio="none" width="100%" height="100%" overflow="visible" style="display: block;" viewBox="0 0 36.7 25.95" fill="none" xmlns="http://www.w3.org/2000/svg">
<path id="YE" d="M36.6 9.53751L34.1 10.6L33.5375 12.4125V13.7875L30.1625 15.475L24.6625 17.35L21.725 20.1625L20.1625 20.4125L19.1 20.1625L17.1 21.85L14.9125 22.6L11.975 22.7875L11.1 23.0375L10.4125 24.1L9.475 24.4125L8.97497 25.4125L7.22502 25.2875L6.16247 25.85L3.66247 25.6625L2.66249 23.2875V21.1L2.03749 19.9125L1.22495 16.975L0.100001 15.35L0.787485 15.1L0.350016 13.2875L0.725001 12.5375L0.474985 10.7875L1.975 9.47501L1.47497 7.78752L2.2875 5.85001L3.78752 6.85002L4.72502 6.47501L8.72495 6.41251L9.41252 6.78751L12.85 7.22502L14.1625 7.03751L15.1 8.35001L16.725 7.66251L18.9125 3.47502L22.0375 1.66251L31.975 0.100005L35.225 6.72501L36.6 9.53751Z" fill="var(--fill-0, #E5E7EB)" stroke="var(--stroke-0, #2A3038)" stroke-width="0.2" stroke-linecap="round" stroke-linejoin="round"/>
</svg>
