<svg preserveAspectRatio="none" width="100%" height="100%" overflow="visible" style="display: block;" viewBox="0 0 21.7 17.2625" fill="none" xmlns="http://www.w3.org/2000/svg">
<path id="SN" d="M19.225 8.03751L19.35 10.5375L20.0375 12.85L21.2875 13.975L21.6 15.475L21.4125 16.725L20.9125 16.975L18.975 16.6625L18.725 17.1L17.975 17.1625L15.4125 16.225L13.725 16.1625L7.22498 15.975L6.28748 16.475L5.1 16.35L3.225 16.975L2.72497 13.9125L5.91249 13.975L6.78747 13.4125H7.41247L8.72499 12.475L10.225 13.2875L11.725 13.4125L13.2875 12.475L12.6 11.35L11.4125 11.975H10.35L8.97497 10.975L7.84998 11.0375L7.03749 12.0375L3.225 12.1L1.78747 8.97501L0.100001 7.6L1.6625 6.78751L3.41249 3.97501L4.28747 1.91252L5.53747 0.662515L7.22498 0.975015L8.97497 0.1H10.9125L12.6 1.22501L14.85 2.2875L16.975 5.28751L19.225 8.03751Z" fill="var(--fill-0, #E5E7EB)" stroke="var(--stroke-0, #2A3038)" stroke-width="0.2" stroke-linecap="round" stroke-linejoin="round"/>
</svg>
