<svg preserveAspectRatio="none" width="100%" height="100%" overflow="visible" style="display: block;" viewBox="0 0 20.45 25.6375" fill="none" xmlns="http://www.w3.org/2000/svg">
<path id="EC" d="M19.85 6.22499L20.35 9.28751L19.2875 11.85L15.475 16.1L11.2875 17.6625L9.16251 21.1625L8.59999 23.85L6.66251 25.5375L5.10001 23.475L3.66247 23.0375L2.22498 23.35L2.03749 21.9125L3.03747 20.975L2.60001 19.2875L4.41248 16.2875L3.59999 14.5375L2.28751 16.4125L0.100005 14.6L0.78749 13.475L0.16249 9.85L1.41249 9.225L2.03749 6.725L3.34997 4.1625L3.16248 2.5375L5.10001 1.6625L7.53748 0.1L11.0375 2.35L11.725 2.2875L12.6 4.03749L15.6 4.60001L16.6 3.97501L18.35 5.28749L19.85 6.22499Z" fill="var(--fill-0, #E5E7EB)" stroke="var(--stroke-0, #2A3038)" stroke-width="0.2" stroke-linecap="round" stroke-linejoin="round"/>
</svg>
