<svg preserveAspectRatio="none" width="100%" height="100%" overflow="visible" style="display: block;" viewBox="0 0 35.1375 55.2" fill="none" xmlns="http://www.w3.org/2000/svg">
<path id="SO" d="M2.2875 55.1L0.225046 51.7875L0.1 37.1625L3.16252 32.6625L4.10002 31.35L6.35 31.2875L9.475 28.475L14.0375 28.2875L23.7875 16.225L20.7875 16.2875L9.10002 11.5375L7.72505 10.1L6.35 8.1625L4.97503 5.91249L5.725 4.5375L6.91252 2.35L8.10003 3.09999L8.85 4.7875L10.5375 6.47499H12.2875L15.5375 5.4125L19.35 4.97499L22.4125 3.72499L24.1625 3.475L25.4125 2.72499L27.4125 2.6L28.5375 2.47499L30.1 1.9125L31.975 1.47499L33.5375 0.1H34.9125L35.0375 1.22499L34.7875 3.5375L34.9125 5.6625L34.225 7.09999L33.35 11.475L31.85 15.9125L29.7875 21.0375L26.9125 26.9125L23.975 31.4125L19.85 36.9125L16.35 40.1625L11.1 44.1625L7.78753 47.1625L3.91248 52.0375L3.10003 54.1625L2.2875 55.1Z" fill="var(--fill-0, #E5E7EB)" stroke="var(--stroke-0, #2A3038)" stroke-width="0.2" stroke-linecap="round" stroke-linejoin="round"/>
</svg>
