<svg preserveAspectRatio="none" width="100%" height="100%" overflow="visible" style="display: block;" viewBox="0 0 33.6375 41.6375" fill="none" xmlns="http://www.w3.org/2000/svg">
<path id="Vector" d="M31.6 17.0375L31.975 20.225L33.5375 22.225L33.1625 25.0375L29.7875 26.9125L24.0375 27.1625L21.2875 31.7875L18.35 30.225L16.85 27.225L11.475 28.1L8.28756 29.975L4.41252 30.1L9.03753 33.0375L9.53756 39.85L7.97506 41.5375L5.725 39.975L5.16256 36.35L2.6 35.225L0.100001 32.475L2.78753 31.225L3.47502 28.6625L5.91253 26.6L7.16253 23.85L13.225 22.6625L17.1625 23.475V16.35L20.35 18.2875L23.1625 14.2875L24.2251 12.725L23.6001 7.85L20.4125 3.35L20.2875 0.850001L23.2876 0.100003L28.4125 5.6625L30.1626 8.85L29.35 12.9125L31.6 17.0375Z" fill="var(--fill-0, #E5E7EB)" stroke="var(--stroke-0, #2A3038)" stroke-width="0.2" stroke-linecap="round" stroke-linejoin="round"/>
</svg>
