<svg preserveAspectRatio="none" width="100%" height="100%" overflow="visible" style="display: block;" viewBox="0 0 19.1722 19.1722" fill="none" xmlns="http://www.w3.org/2000/svg">
<g id="Layer_31">
<path id="Shape" fill-rule="evenodd" clip-rule="evenodd" d="M13.7137 12.3625L18.8888 17.5279C19.0702 17.7079 19.1722 17.9528 19.1722 18.2083C19.1722 18.4639 19.0702 18.7088 18.8888 18.8888C18.7088 19.0702 18.4639 19.1722 18.2083 19.1722C17.9528 19.1722 17.7079 19.0702 17.5279 18.8888L12.3625 13.7137C11.0232 14.765 9.36929 15.3355 7.66667 15.3333C3.43248 15.3333 0 11.9009 0 7.66667C0 3.43248 3.43248 0 7.66667 0C11.9009 0 15.3333 3.43248 15.3333 7.66667C15.3355 9.36929 14.765 11.0232 13.7137 12.3625ZM7.66667 1.91667C4.49103 1.91667 1.91667 4.49103 1.91667 7.66667C1.91667 10.8423 4.49103 13.4167 7.66667 13.4167C10.8423 13.4167 13.4167 10.8423 13.4167 7.66667C13.4167 4.49103 10.8423 1.91667 7.66667 1.91667Z" fill="var(--fill-0, #E5E7EB)"/>
</g>
</svg>
