<svg preserveAspectRatio="none" width="100%" height="100%" overflow="visible" style="display: block;" viewBox="0 0 138.95 156.7" fill="none" xmlns="http://www.w3.org/2000/svg">
<path id="BR" d="M61.225 13.475L63.1625 13.85L63.5375 12.975L62.9125 12.225L63.2875 11.0375L64.725 11.4125L66.4125 10.975L68.4125 11.85L69.975 12.6625L71.0375 11.6L71.85 11.725L72.35 12.85L74.0375 12.6L75.4125 11.0375L76.5375 8.09999L78.6625 4.4125L79.9125 4.22498L80.725 6.47499L82.6 13.475L84.5375 14.1625L84.6 16.9125L81.9125 20.225L82.975 21.4125L89.2875 22.0375L89.4125 26.1L92.1 23.475L96.5375 24.9125L102.475 27.35L104.225 29.6625L103.663 31.9125L107.788 30.6625L114.663 32.7875L119.975 32.6625L125.225 35.975L129.85 40.475L132.6 41.6L135.6 41.7875L136.913 43.0375L138.163 48.1625L138.85 50.6L137.538 57.225L135.85 59.85L131.038 65.4125L128.912 69.975L126.412 73.4125L125.538 73.5375L124.725 76.475L125.288 83.975L124.6 90.1625L124.413 92.7875L123.413 94.4125L123.1 99.7875L119.85 104.975L119.537 109.162L116.85 110.85L116.163 113.287H112.413L107.1 114.787L104.788 116.6L101.038 117.787L97.225 120.975L94.6625 124.975L94.475 127.975L95.2875 130.162L95.1 134.225L94.6 136.162L92.475 138.412L89.6625 145.475L87.1625 148.6L85.1625 150.537L84.225 154.35L82.4125 156.6L81.1 154.35L82.225 152.412L79.85 149.725L76.85 147.475L72.9125 144.912L71.725 145.037L67.7875 141.912L65.6625 142.35L69.4125 136.912L72.725 132.975L74.7875 131.35L77.4125 129.162L77.1625 125.975L75.1625 123.6L73.5375 124.412L73.975 122.1L74.1625 119.725L73.975 117.475L72.6625 116.787L71.4125 117.412L70.1 117.225L69.6 115.725L68.9125 112.037L68.1625 110.85L65.725 109.725L64.35 110.537L60.6625 109.725L60.4125 104.287L59.1625 102.1L60.1625 101.225L59.6625 98.975L60.475 97.225L60.85 94.0375L59.7875 91.5375L57.7875 90.4125L57.2875 88.85L57.6 86.5375L50.9125 86.35L49.1625 81.6625L50.225 81.6L50.0375 79.9125L49.2875 78.725L48.975 76.4125L46.85 75.225H44.6625L43.1 74.1L40.6625 73.2875L39.225 71.7875L35.225 71.1L31.1625 67.5375L31.35 64.85L30.7875 63.2875L31.0375 60.2875L26.475 60.975L24.6625 62.475L21.6625 64.1L20.975 65.2875L19.1625 65.4125L16.5375 65.0375L14.5375 65.725L12.9125 65.2875L12.85 59.225L10.1 61.5375L6.97501 61.475L5.53752 59.2875L3.16252 59.1L3.78752 57.35L1.72499 54.9125L0.100008 51.2875L1.03751 50.6L0.912501 48.85L3.03752 47.725L2.60001 45.5375L3.47502 44.1625L3.66252 42.2875L7.60001 39.5375L10.475 38.7875L10.975 38.1625L14.1625 38.35L15.5375 27.35L15.6 25.6L15.0375 23.35L13.4125 21.85L13.475 18.9125L15.475 18.2875L16.1625 18.725L16.2875 17.1625L14.225 16.725V14.225L21.1 14.35L22.2875 12.9125L23.2875 14.225L23.9125 16.6L24.6 16.1L26.5375 18.225L29.2875 17.975L29.975 16.725L32.6 15.7875L34.1 15.1L34.5375 13.4125L37.1 12.2875L36.9125 11.4125L33.9125 11.1L33.475 8.5375L33.6625 5.84999L32.1 4.84998L32.7875 4.475L35.35 4.97499L38.1625 5.975L39.225 5.0375L41.7875 4.4125L45.7875 2.9125L47.1 1.35L46.6625 0.224989L48.5375 0.1L49.2875 0.974997L48.7875 2.78749L50.0375 3.34999L50.7875 5.22499L49.7875 6.6625L49.1625 10.0375L50.0375 12.1L50.225 13.975L52.4125 15.85L54.1625 16.0375L54.5375 15.225L55.6625 15.0375L57.2875 14.35L58.4125 13.2875L60.4125 13.6625L61.225 13.475Z" fill="var(--fill-0, #E5E7EB)" stroke="var(--stroke-0, #2A3038)" stroke-width="0.2" stroke-linecap="round" stroke-linejoin="round"/>
</svg>
