<svg preserveAspectRatio="none" width="100%" height="100%" overflow="visible" style="display: block;" viewBox="0 0 26.2626 35.3875" fill="none" xmlns="http://www.w3.org/2000/svg">
<path id="CG" d="M26.1626 0.974999L25.975 3.41251L24.9126 5.53751L24.2251 8.03751L23.7875 11.6L23.9751 13.9125L23.4125 15.2875L23.3501 16.7875L22.9125 18.0375L20.6 19.975L18.9751 22.0375L17.4126 25.9125L17.475 29.225L16.6 30.5375L14.5376 32.475L12.4126 34.975L11.1001 34.2875L10.9125 33.1625L8.97505 33.1L7.72505 34.6625L6.78755 34.225L5.47507 32.85L4.41252 33.5375L2.97507 35.2875L0.100004 31.0375L2.78753 28.7875L1.47505 26.1625L2.72505 25.1625L5.1 24.6625L5.35002 22.85L7.2875 24.7875L10.4125 24.975L11.4751 23.1L11.9125 20.4125L11.5375 17.2875L9.85007 14.9125L11.4126 10.225L10.5376 9.475L7.9125 9.7875L6.91252 7.72501L7.16253 5.975L11.6 6.10001L14.475 7.16251L17.2875 8.10001L17.5375 5.975L19.4125 2.225L21.4751 0.100003L23.9126 0.787506L26.1626 0.974999Z" fill="var(--fill-0, #E5E7EB)" stroke="var(--stroke-0, #2A3038)" stroke-width="0.2" stroke-linecap="round" stroke-linejoin="round"/>
</svg>
