<svg preserveAspectRatio="none" width="100%" height="100%" overflow="visible" style="display: block;" viewBox="0 0 44.075 38.7" fill="none" xmlns="http://www.w3.org/2000/svg">
<path id="EG" d="M32.1625 1.6L34.6 7.47499L35.0374 8.475L34.225 10.1L33.7874 13.1L33.0375 15.225L32.2875 15.9125L31.0375 14.6L29.35 12.85L26.4125 7.10001L26.1 7.47499L27.8499 11.6625L30.2875 15.725L33.35 21.975L34.7875 24.1625L36.0375 26.4125L39.4124 30.85L38.7874 31.5375L39.0375 34.1625L43.2875 37.7875L43.975 38.6H30.1625H16.725H2.78745L2.16245 23.7875L1.35 9.5375L0.1 6.2875L0.787485 3.85L0.162485 2.10001L1.22495 0.162504L5.725 0.1L9.09994 1.16251L12.5374 2.35L14.1625 2.975L16.6625 1.725L17.975 0.599992L20.9125 0.225008L23.35 0.725L24.475 2.72501L25.1625 1.4125L27.9125 2.35L30.6 2.6L32.1625 1.6Z" fill="var(--fill-0, #E5E7EB)" stroke="var(--stroke-0, #2A3038)" stroke-width="0.2" stroke-linecap="round" stroke-linejoin="round"/>
</svg>
