<svg preserveAspectRatio="none" width="100%" height="100%" overflow="visible" style="display: block;" viewBox="0 0 18.6375 14.5125" fill="none" xmlns="http://www.w3.org/2000/svg">
<path id="Vector" d="M9.7875 1.9125L11.35 0.287502L13.5375 2.34999L15.7875 5.225L17.35 5.4125L18.5375 6.475L15.9125 6.7875L15.9749 9.9125L15.725 11.2875L14.6625 12.225L15.1625 14.1625L14.35 14.4125L11.9124 12.2875L12.6625 10.35L11.475 9.1625L10.2875 9.475L6.975 12.4125L6.41249 9.6L4.84999 8.975L3.225 7.9125L3.91249 6.6L1.91244 5.225L2.34999 4.22499L0.974939 3.5375L0.1 2.5375L0.787485 1.85L3.41245 3.0375L5.22497 3.225L5.59995 2.7875L3.5375 0.600002L4.28747 0.1L5.22497 0.224998L7.9125 2.6L9.41244 2.9125L9.7875 1.9125Z" fill="var(--fill-0, #E5E7EB)" stroke="var(--stroke-0, #2A3038)" stroke-width="0.2" stroke-linecap="round" stroke-linejoin="round"/>
</svg>
