<svg preserveAspectRatio="none" width="100%" height="100%" overflow="visible" style="display: block;" viewBox="0 0 65.95 46.45" fill="none" xmlns="http://www.w3.org/2000/svg">
<path id="Vector" d="M65.85 5.5375L61.85 6.85L59.85 7.1625L60.35 4.7875L56.725 3.475L53.0375 4.6L52.35 7.1L50.225 8.6L47.2875 7.7875L43.975 7.9125L40.7875 6.1625L39.4125 7.0375L37.7875 7.1625L37.85 9.4125L32.85 8.85L32.475 10.7875H29.975L28.5375 13.225L26.4125 17.0375L22.85 21.975L23.975 23.225L23.1625 24.6L20.475 24.5375L18.975 27.9125L19.6 32.725L21.5375 34.5375L21.0375 38.85L18.9125 41.35L17.7875 43.475L15.725 41.225L10.35 45.475L6.53749 46.35L2.47499 44.475L1.35 40.5375L0.100001 32.1L2.6 29.7875L9.66249 26.725L14.725 23.0375L19.225 18.1625L24.7875 11.475L28.7875 8.9125L35.225 4.6625L40.5375 3.1625L44.725 3.35L47.975 0.6L52.6 0.725L56.975 0.1L65.5375 2.5375L62.475 3.4125L65.85 5.5375Z" fill="var(--fill-0, #E5E7EB)" stroke="var(--stroke-0, #2A3038)" stroke-width="0.2" stroke-linecap="round" stroke-linejoin="round"/>
</svg>
