<svg preserveAspectRatio="none" width="100%" height="100%" overflow="visible" style="display: block;" viewBox="0 0 230.7 111.075" fill="none" xmlns="http://www.w3.org/2000/svg">
<path id="Vector" d="M184.913 98.6L183.538 96.35L185.35 91.0375L184.35 89.9125L182.038 90.5375L181.35 89.5375L177.913 92.475L175.912 95.5375L174.163 97.35L172.6 97.975L171.537 98.1625L170.85 99.1H165.038L160.163 99.1625L158.475 99.85L154.225 102.6V102.537L153.663 102.288L152.413 102.85L151.225 103.663L150.1 102.975L147.162 103.475L144.725 104.037L143.538 104.538L142.1 105.85L143.225 106.287L144.288 106.038H144.475L144.288 107.225L141.288 107.663L139.538 108.162L138.475 108.787L136.85 108.412L135.85 108.6L134.037 109.725L131.163 110.975L129.475 110.725L130.725 109.35L133.038 107.162L135.6 105.85L136.288 104.725L136.85 102.85L139.225 100.662L139.788 98.1625L140.475 100.6L142.85 101.163L144.35 99.85L143.475 96.85L142.913 95.6L140.413 94.85L138.038 94.4125H135.6L133.475 93.9125L133.225 93.0375L132.35 93.6L131.6 93.475L132.787 92.1625L131.663 91.6625L132.85 90.1625L132.1 89.0375L133.163 87.9125L129.913 87.35L129.85 85.1L129.35 84.6L127.288 84.475L124.725 83.725L123.788 84.225L122.663 85.1625L120.6 85.7875L118.663 87.35L115.287 86.2875L112.538 86.7875L110.1 85.6L107.225 84.975L105.163 84.725L104.538 84.1L105.1 81.975H104.037L103.225 83.475H96.85H86.225H75.725H66.4125H57.1625H47.975H38.5375H35.5375H26.35H17.5375H17.1L13.725 79.6625L12.725 77.975L8.35001 76.35L9.1625 72.9125L11.4125 70.6L8.85 68.9125L10.7875 65.85L9.475 63.1L11.0375 61.1L14.225 59.2875L16.225 56.9125L13.35 54.5375L14.225 50.225L14.9125 47.6L13.9125 45.9125L13.4125 44.4125L13.7875 42.475L9.72502 43.6625L4.97502 45.725L4.7875 43.35L4.475 41.725L2.72501 40.725L0.100004 40.6L22.35 20.1625L37.725 7.4125L41.475 8.225L43.5375 9.85L45.85 10.1625L49.7875 8.7875L54.1625 7.725L57.475 8.1L63.0375 6.6625L68.1625 5.85L68.2875 7.225L71.1 6.4125L73.5375 4.85L74.85 5.225L75.725 8.225L81.6625 5.9125L79.225 8.475L82.975 7.9125L84.975 6.975L87.85 7.1625L90.2875 8.5375L94.975 9.7875L97.9125 10.35L100.663 10.1625L102.475 11.9125L97.1625 13.6L101.163 14.2875L108.6 13.9125L111.35 13.2875L112.225 15.35L116.663 13.6625L115.35 12.1625L118.163 11.0375L121.413 10.85L123.85 10.5375L125.163 11.35L126.1 13.1625L129.225 12.9125L132.538 14.475L137.038 13.9125L140.788 13.975L142.288 11.85L145.1 11.2875L148.163 12.4125L145.475 15.6625L149.35 12.9125L151.35 13.0375L155.35 9.6L154.35 7.5375L152.538 6.1625L155.975 2.475L161.1 0.1L163.913 0.662499L165.163 2.1L165.413 5.85L161.788 7.475L165.975 8.1625L163.225 11.6L168.788 8.975L170.163 11.1625L167.475 13.6625L168.288 15.975L172.85 13.5375L176.913 10.5375L179.85 6.85L183.288 7.1L186.663 7.6L188.913 9.2875L187.85 10.975L184.662 12.7875L185.225 14.6L183.725 16.2875L176.913 18.725L172.85 19.2875L170.85 18.225L168.788 19.975L164.163 22.9125L162.288 24.475L157.475 26.85L153.412 27.1L150.225 28.6L148.412 30.975L144.85 31.4125L139.413 34.35L133.538 38.4125L130.413 41.2875L127.35 45.6L131.1 46.225L130.163 49.6625L129.662 52.5375L134.225 51.7875L138.6 53.4125L140.663 54.85L141.725 56.6L144.788 57.6625L147.038 59.225L151.788 59.475L154.788 59.85L152.538 63.1L151.475 66.9125L151.537 71.225L154.288 74.9125L157.225 73.6625L160.725 69.6625L162.162 63.6625L161.1 61.6625L166.725 59.85L171.413 57.225L174.413 54.6L175.475 52.1L175.225 48.9125L173.225 46.1L178.788 42.225L179.413 38.9125L181.85 33.2875L184.225 32.4125L188.412 33.4125L191.038 33.7875L193.85 32.7875L195.788 34.0375L198.038 36.1625L198.163 37.5375L202.975 37.85L201.35 40.9125L199.913 45.5375L202.288 46.1625L203.288 48.35L208.412 46.2875L213.1 42.1625L215.725 40.475L216.413 43.7875L218.038 48.475L219.288 52.975L217.162 55.35L220.163 57.475L221.975 59.6L226.288 60.6L227.787 61.7875V65.0375L229.913 65.5375L230.6 66.975L229.35 71.2875L226.663 72.725L224.037 74.1L218.538 75.475L213.6 78.6L208.225 79.2875L201.913 78.4125H197.35L194.037 78.6625L190.475 81.475L185.85 83.225L179.538 88.35L174.6 91.975L177.538 91.35L184.35 86.1625L192.038 82.9125L196.788 82.5375L198.85 84.475L195.038 87.1L194.662 91.2875L194.725 94.2875L198.225 96.225L203.6 95.6625L208.1 91.225L207.475 94.1L209.037 95.5375L204.413 98.1L196.663 100.475L193.038 102.038L188.538 104.913L186.225 104.6L187.162 101.287L193.663 97.975L188.6 98.1L184.913 98.6Z" fill="var(--fill-0, #E5E7EB)" stroke="var(--stroke-0, #2A3038)" stroke-width="0.2" stroke-linecap="round" stroke-linejoin="round"/>
</svg>
