<svg preserveAspectRatio="none" width="100%" height="100%" overflow="visible" style="display: block;" viewBox="0 0 37.575 43.2" fill="none" xmlns="http://www.w3.org/2000/svg">
<path id="TZ" d="M8.225 0.162504L8.10003 2.6L7.41247 5.4125L8.41253 6.975L9.97503 6.0375L12.0375 5.78752L12.475 6.28752L14.5375 5.28749L13.1 3.91252L14.2875 2.10001L16.0375 0.287511L28.85 8.47502L29.0375 10.7875L34.1 14.7875L32.35 19.7875L32.5375 22.0375L34.725 23.475L34.85 24.5375L33.7875 26.975L33.975 28.1625L33.725 30.1L34.85 32.6L36.225 36.6L37.475 37.475L34.6 39.7875L30.725 41.35L28.6 41.2875L27.2875 42.475L24.85 42.6L23.9125 43.1L19.725 41.975L18.35 42.1L18.4125 42.0375L17.2875 40.5375L17.1 36.2875L15.2875 34.1625L15.0375 34.9125L14.4125 33.85L10.975 33.1L8.97497 31.9125L6.72498 31.225L5.35002 30.5375L5.16249 30.4125L3.47502 26.2875L3.225 23.85L0.412501 21.1L1.28752 19.6L0.600031 17.975L0.725001 16.2875L0.100001 15.725L0.287531 13.975L0.662516 13.9125L1.91252 12.475L3.34997 10.35L4.22499 9.53752V8.225L3.47502 7.2875L3.28749 5.725L4.28747 5.22501L4.475 2.85002L3.10003 0.600011L4.35003 0.1L8.225 0.162504Z" fill="var(--fill-0, #E5E7EB)" stroke="var(--stroke-0, #2A3038)" stroke-width="0.2" stroke-linecap="round" stroke-linejoin="round"/>
</svg>
