<svg preserveAspectRatio="none" width="100%" height="100%" overflow="visible" style="display: block;" viewBox="0 0 20.1375 25.5125" fill="none" xmlns="http://www.w3.org/2000/svg">
<path id="GA" d="M15.2875 0.349996L15.0375 2.10001L16.0375 4.1625L18.6625 3.85L19.5376 4.60001L17.9751 9.28751L19.6625 11.6625L20.0375 14.7875L19.6 17.475L18.5375 19.35L15.4125 19.1625L13.475 17.225L13.225 19.0375L10.85 19.5375L9.60005 20.5375L10.9125 23.1625L8.225 25.4125L4.60005 21.35L2.2875 18.0375L0.1 13.9125L0.225046 12.5375L1.0375 11.2875L1.85003 8.35001L2.6 5.35L3.78752 5.1625H8.91256V0.349996L10.6 0.1L12.725 0.600012L14.8501 0.1L15.2875 0.349996Z" fill="var(--fill-0, #E5E7EB)" stroke="var(--stroke-0, #2A3038)" stroke-width="0.2" stroke-linecap="round" stroke-linejoin="round"/>
</svg>
