<svg preserveAspectRatio="none" width="100%" height="100%" overflow="visible" style="display: block;" viewBox="0 0 74.7625 63.7" fill="none" xmlns="http://www.w3.org/2000/svg">
<path id="SA" d="M40.4125 12.4125L43.5375 12.7875L44.6 14.725L47.0375 14.6L48.725 18.1L50.5375 18.975L51.2875 20.4125L53.7875 22.1L54.225 23.725L53.975 25.1L54.5375 26.4125L55.6625 27.5375L56.225 28.85L56.85 29.85L57.975 30.6625L58.9125 30.35L59.725 31.9125L59.9125 32.7875L61.6 36.9125L72.1625 38.9125L72.7875 38.0375L74.6625 40.9125L73.0375 48.9125L62.85 52.9125L52.9125 54.475L49.7875 56.2875L47.6 60.475L45.975 61.1625L45.0375 59.85L43.725 60.0375L40.2875 59.6L39.6 59.225L35.6 59.2875L34.6625 59.6625L33.1625 58.6625L32.35 60.6L32.85 62.2875L31.35 63.6L30.7875 61.85L29.6625 60.6625L29.35 59.0375L27.4125 57.6L25.35 54.225L24.1625 50.975L21.6 48.225L20.0375 47.5375L17.475 43.725L16.9125 40.975V38.6L14.6625 34.1L12.9125 32.5375L11.0375 31.725L9.72502 29.4125L9.84999 28.5375L8.72503 26.4125L7.66249 25.5375L6.09999 22.5375L3.72503 19.35L1.78747 16.6H0.100001L0.412501 14.4125L0.474985 12.975L0.725001 11.35L4.59997 12.0375L5.91253 10.7875L6.60002 9.35001L9.1625 8.78752L9.59997 7.41251L10.6 6.78751L6.85003 2.72501L13.35 0.725003L13.9125 0.100003L18.1625 1.22501L23.5375 4.03751L34.0375 12.1L40.4125 12.4125Z" fill="var(--fill-0, #E5E7EB)" stroke="var(--stroke-0, #2A3038)" stroke-width="0.2" stroke-linecap="round" stroke-linejoin="round"/>
</svg>
