<svg preserveAspectRatio="none" width="100%" height="100%" overflow="visible" style="display: block;" viewBox="0 0 46.95 73.575" fill="none" xmlns="http://www.w3.org/2000/svg">
<path id="PE" d="M40.85 17.1L37.6625 16.9125L37.1625 17.5375L34.2875 18.2875L30.35 21.0375L30.1625 22.9125L29.2875 24.2875L29.725 26.475L27.6 27.6L27.725 29.35L26.7875 30.0375L28.4125 33.6625L30.475 36.1L29.85 37.85L32.225 38.0375L33.6625 40.225L36.7875 40.2875L39.5375 37.975L39.6 44.0375L41.225 44.475L43.225 43.7875L46.6625 50.2875L45.975 51.6V54.475L46.1625 57.85L44.975 59.85L45.725 61.35L45.0375 62.725L46.85 66.1L45.0375 70.4125L44.35 72.475L42.6 73.475L38.9125 71.1625L38.4125 69.5375L31.1 65.5375L24.4125 61.1L21.475 58.6625L19.725 55.35L20.225 54.1625L16.85 48.9125L12.85 41.5375L9.10002 33.5375L7.6 31.6625L6.35 28.725L3.47502 26.1L0.912492 24.475L1.975 22.725L0.1 18.85L1.16251 16.0375L3.91252 13.5375L4.34999 15.225L3.35001 16.1625L3.5375 17.6L4.97499 17.2875L6.41252 17.725L7.97502 19.7875L9.91251 18.1L10.475 15.4125L12.6 11.9125L16.7875 10.35L20.6 6.09999L21.6625 3.5375L21.1625 0.474986L22.1 0.100001L24.475 1.975L25.6 3.91249L27.225 4.91249L29.4125 9.09998L32.0375 9.66249L33.975 8.59999L35.2875 9.28751L37.4125 8.91249L40.1625 10.7875L37.975 14.9125L39.0375 14.975L40.85 17.1Z" fill="var(--fill-0, #E5E7EB)" stroke="var(--stroke-0, #2A3038)" stroke-width="0.2" stroke-linecap="round" stroke-linejoin="round"/>
</svg>
