<svg preserveAspectRatio="none" width="100%" height="100%" overflow="visible" style="display: block;" viewBox="0 0 46.825 48.7625" fill="none" xmlns="http://www.w3.org/2000/svg">
<path id="NA" d="M40.225 2.41251L43.1 1.53753L45.35 1.72502L46.725 2.66252V2.97502L44.725 3.91252H43.6625L41.35 5.47502L40.1 3.78752L34.6625 5.22501L32.0375 5.35002L31.5375 19.6625L28.1 19.7875L27.725 31.475L27.0375 46.2875L23.9125 48.35L22.1 48.6625L19.975 47.9125L18.4125 47.6L17.9125 45.9125L16.6625 44.7875L14.9125 46.7875L12.475 43.725L11.225 40.85L10.6 36.9125L9.84999 34.0375L8.85 27.85L8.91249 23.0375L8.5375 20.85L7.22502 19.1625L5.47499 15.85L3.72503 11.0375L3.03747 8.5375L0.287532 4.60001L0.100001 1.53753L1.78747 0.787523L3.91249 0.1L6.16247 0.225008L8.225 2.03752L8.72503 1.72502L22.9125 1.60002L25.2875 3.47502L33.725 4.03753L40.225 2.41251Z" fill="var(--fill-0, #E5E7EB)" stroke="var(--stroke-0, #2A3038)" stroke-width="0.2" stroke-linecap="round" stroke-linejoin="round"/>
</svg>
