<svg preserveAspectRatio="none" width="100%" height="100%" overflow="visible" style="display: block;" viewBox="0 0 37.1375 35.325" fill="none" xmlns="http://www.w3.org/2000/svg">
<path id="Vector" d="M37.0375 9.03749L36.4125 22.1L35.4125 35.225L32.5375 31.9125L29.0375 31.1L28.1 32.225L23.6 32.35L25.35 29.1L27.6625 27.975L27.0375 23.6L25.6 20.2875L18.9125 16.85L16.0375 16.5375L10.85 12.7875L9.72502 14.7875L8.34997 15.1L7.66249 13.6625L7.72497 11.9125L5.1 9.91251L8.97497 8.47498L11.475 8.5375L11.225 7.47499H6.0375L4.66245 5.1L1.53745 4.34999L0.100001 2.34999L4.84999 1.41249L6.6625 0.100001L12.35 1.72499L12.9125 3.225L13.725 9.72498L17.2875 12.1L20.4125 7.84998L24.5375 5.47498H27.6625L30.6625 6.84999L33.225 8.28748L37.0375 9.03749Z" fill="var(--fill-0, #E5E7EB)" stroke="var(--stroke-0, #2A3038)" stroke-width="0.2" stroke-linecap="round" stroke-linejoin="round"/>
</svg>
