<svg preserveAspectRatio="none" width="100%" height="100%" overflow="visible" style="display: block;" viewBox="0 0 78.6375 19.4503" fill="none" xmlns="http://www.w3.org/2000/svg">
<path id="Vector" d="M65.6625 0.350337L71.1 0.537837L75.2875 0.850337L78.5375 1.47534L77.85 2.10034L71.725 3.16284L66.1 3.66284L63.6 4.22534H68.2875L61.725 5.78784L57.475 6.53784L51.6625 8.72534L46.6 9.16284L44.6625 9.78784L37.6 10.0378L40.35 10.4128L38.2875 10.9128L38.725 12.3503L35.6 13.3503L31.2875 14.1628L29.1 15.2878L24.975 16.2253L24.6625 16.9128L28.725 16.7878L28.0375 17.5378L20.1 19.3503L14.7875 18.4753L7.475 18.9753L4.34999 18.6003L0.100002 18.4128L1.41253 16.9753L6.41253 16.2878L7.66253 14.1628L9.28751 13.9753L13.975 15.2253L12.9125 13.3503L9.85003 12.7878L12.975 11.6628L17.725 10.9753L19.475 9.97534L17.6 8.91284L18.2875 7.53784L24.1625 7.60034L25.5375 7.91284L30.1 6.91284L25.5375 6.60034L17.6625 6.78784L14.9125 5.91284L14.4125 4.85034L12.85 4.10034L13.5375 3.28784L17.2875 2.78784L19.9125 2.72534L24.5375 2.35034L28.7875 1.41284L31.225 1.53784L32.725 2.22534L35.85 0.975337L39.1 0.600336L43.1625 0.350337L49.6625 0.225337L50.475 0.475336L56.9125 0.100337L61.2875 0.225337L65.6625 0.350337Z" fill="var(--fill-0, #E5E7EB)" stroke="var(--stroke-0, #2A3038)" stroke-width="0.2" stroke-linecap="round" stroke-linejoin="round"/>
</svg>
