<svg preserveAspectRatio="none" width="100%" height="100%" overflow="visible" style="display: block;" viewBox="0 0 67.575 74.45" fill="none" xmlns="http://www.w3.org/2000/svg">
<path id="CD" d="M53.85 0.162504L56.0375 3.475L57.6625 3.97499L58.6 3.2875L60.225 3.5375L62.1625 2.72499L63.0375 4.4125L66.225 7.09999L66.0375 11.7875L67.475 12.35L66.2875 13.725L64.975 14.85L63.6 16.9125L62.85 18.7875L62.6625 21.975L61.85 23.5375L61.7875 26.5375L60.7875 27.6625L60.6625 30.0375L60.1625 30.35L59.7875 32.6L60.6625 34.4125L60.725 35.0375L59.975 41.475L60.9125 43.725L60.2875 45.4125L61.4125 48.2875L63.5375 50.475L63.975 52.6625L64.975 53.725L64.7875 54.4125L64.225 54.225L59.4125 54.9125L58.475 55.4125L57.4125 57.975L58.1625 59.725L57.475 64.475L56.9125 68.475L57.85 69.225L60.2875 70.7875L61.2875 70.0375L61.4125 74.35H58.725L57.35 72.1625L56.1 70.4125L53.4125 69.85L52.6625 67.7875L50.475 69.0375L47.725 68.475L46.5375 66.6625L44.35 66.2875L42.6625 66.35L42.475 65.1L41.2875 65.0375L39.6625 64.7875L37.475 65.4125L35.975 65.2875L35.1 65.6625L35.35 60.9125L34.225 59.4125L33.975 56.9125L34.5375 54.475L33.85 52.975L33.7875 50.4125L29.5375 50.475L29.85 49.0375H28.0375L27.85 49.725L25.6625 49.9125L24.725 52.225L24.1625 53.225L22.225 52.6625L21.1 53.225L18.725 53.5375L17.4125 51.475L16.6 50.1625L15.6 47.725L14.7875 44.7875L4.34997 44.725L3.09997 45.1625L2.0375 45.1L0.599973 45.6625L0.100019 44.4125L0.974957 43.975L1.1 42.225L1.725 41.225L2.975 40.35L3.9125 40.7875L5.1625 39.225L7.09999 39.2875L7.28752 40.4125L8.6 41.1L10.725 38.6L12.7875 36.6625L13.6625 35.35L13.6 32.0375L15.1625 28.1625L16.7875 26.1L19.1 24.1625L19.5375 22.9125L19.6 21.4125L20.1625 20.0375L19.975 17.725L20.4125 14.1625L21.1 11.6625L22.1625 9.5375L22.35 7.09999L22.6625 4.28749L24.0375 2.2875L25.9125 0.974996L28.85 2.35L31.1 3.85L33.6625 4.225L36.35 5.0375L37.35 2.6L37.85 2.2875L39.475 2.6625L43.4125 0.662496L44.7875 1.53749L45.9125 1.4125L46.475 0.4125L47.7875 0.1L50.4125 0.537489L52.725 0.599992L53.85 0.162504Z" fill="var(--fill-0, #E5E7EB)" stroke="var(--stroke-0, #2A3038)" stroke-width="0.2" stroke-linecap="round" stroke-linejoin="round"/>
</svg>
