<svg preserveAspectRatio="none" width="100%" height="100%" overflow="visible" style="display: block;" viewBox="0 0 16.825 17.45" fill="none" xmlns="http://www.w3.org/2000/svg">
<path id="NI" d="M16.725 0.162504L16.4125 0.600012L16.1 1.47501L16.35 2.9125L15.4125 4.28751L14.9125 5.91251L14.6 7.6625L14.725 8.72501L14.6625 10.5375L14.1 10.9125L13.6625 12.6625L13.7875 13.725L13.0375 14.725L13.1 15.7875L13.6 16.475L12.725 17.35L11.6625 17.0375L11.1625 16.225L10.0375 15.9125L9.22501 16.4125L6.975 15.35L6.4125 15.85L5.28749 14.6L3.72499 12.975L3.03751 11.6625L1.6625 10.35L0.1 8.5375L0.537508 7.9125L1.0375 8.5375L1.35 8.2875L2.47499 8.10001L2.975 7.16251H3.475L3.6 5.1625L4.4125 5.1H5.1625L6.0375 4.03751L6.975 4.85L7.35 4.35001L8.09999 3.85L9.4125 2.78751L9.53751 1.9125L9.85001 1.975L10.4125 1.0375L10.7875 0.912512L11.35 1.53751L12.0375 1.6625L12.85 1.16251H13.725L14.975 0.662496L15.5375 0.1L16.725 0.162504Z" fill="var(--fill-0, #E5E7EB)" stroke="var(--stroke-0, #2A3038)" stroke-width="0.2" stroke-linecap="round" stroke-linejoin="round"/>
</svg>
