<svg preserveAspectRatio="none" width="100%" height="100%" overflow="visible" style="display: block;" viewBox="0 0 17.575 7.2625" fill="none" xmlns="http://www.w3.org/2000/svg">
<path id="SK" d="M17.475 1.975L16.725 3.0375L16.2874 4.6L15.6624 4.975L12.2249 3.78751L11.225 4.0375L10.6 4.975L9.1625 5.475L8.78744 5.225L7.34998 5.7875L6.16247 5.9125L5.97494 6.725L3.41245 7.1625L2.22494 6.7875L0.537469 5.725L0.1 4.41251L0.287454 3.9125L0.662439 3.0375L2.03748 3.1L3.03747 2.725L3.09995 2.35L3.66247 2.1625L3.78744 1.28751L4.475 1.1L4.91247 0.412501H5.84997L6.0375 0.662507L7.22494 0.100001L8.91248 1.475L10.6624 0.662507L12.1625 1.0375L14.35 0.475005L17.475 1.975Z" fill="var(--fill-0, #E5E7EB)" stroke="var(--stroke-0, #2A3038)" stroke-width="0.2" stroke-linecap="round" stroke-linejoin="round"/>
</svg>
