<svg preserveAspectRatio="none" width="100%" height="100%" overflow="visible" style="display: block;" viewBox="0 0 30.5125 18.075" fill="none" xmlns="http://www.w3.org/2000/svg">
<path id="RO" d="M19.1625 0.1L20.1625 0.537498L21.2875 1.6625L22.5375 3.28749L24.6625 5.6625L25.0375 7.34999L24.9125 9.03749L25.725 10.85L27.225 11.6L28.6625 10.9125L30.1625 11.6L30.4125 12.6625L28.975 13.475L27.975 13.1L27.725 17.9125L25.7875 17.475L23.2875 16.0375L19.6 16.975L18.1625 17.975L13.4125 17.725L10.9125 17.1625L9.72502 17.4125L8.59999 15.7875L7.97499 15.1L8.59999 14.4125L7.78746 13.975L6.84996 14.85L4.91247 13.6625L4.475 12.0375L2.47496 11.1625L1.975 9.84999L0.100003 8.35L2.53752 7.6L4.1625 4.9125L5.35002 2.2875L7.16246 1.475L8.41246 0.599992L10.4125 1.0375H12.4125L13.975 2.03749L14.975 1.41249L17.225 1.0375L17.85 0.1H19.1625Z" fill="var(--fill-0, #E5E7EB)" stroke="var(--stroke-0, #2A3038)" stroke-width="0.2" stroke-linecap="round" stroke-linejoin="round"/>
</svg>
