<svg preserveAspectRatio="none" width="100%" height="100%" overflow="visible" style="display: block;" viewBox="0 0 60.0751 33.7625" fill="none" xmlns="http://www.w3.org/2000/svg">
<path id="UZ" d="M51.4125 13.225L52.4751 13.6L50.6001 16.1625L53.475 17.6625L55.475 16.6625L59.9751 18.7875L56.6625 21.6625L54.1 21.2875L52.7876 21.35L51.975 20.2875L52.1001 18.4125L48.0376 19.35L47.7251 21.9125L46.7876 24.1L44.0376 23.9125L43.6626 25.6625L46.2875 26.6L47.7876 29.6L46.975 33.6625L44.2876 32.7875H42.4126L41.9125 30.35L37.1001 28.6L33.1625 26.6625L30.5376 24.7875L26.1 22.0375L23.4126 17.9125L22.1001 17.1625L18.6626 17.35L17.225 16.5375L16.0375 13.4125L11.1 11.2875L8.97507 13.6L6.60004 14.975L7.66251 16.975L3.97507 17.0375L0.100021 2.4125L7.60002 0.1L8.28751 0.4125L14.0376 3.225L17.0375 4.72501L21.1626 8.2875L24.725 7.725L30.1 7.4125L34.85 10.2875L35.7875 14.2875L37.4126 14.35L38.9751 17.6L43.1625 17.725L44.6001 19.6H45.8501L46.4125 16.725L49.7875 13.975L51.4125 13.225Z" fill="var(--fill-0, #E5E7EB)" stroke="var(--stroke-0, #2A3038)" stroke-width="0.2" stroke-linecap="round" stroke-linejoin="round"/>
</svg>
