<svg preserveAspectRatio="none" width="100%" height="100%" overflow="visible" style="display: block;" viewBox="0 0 64 18" fill="none" xmlns="http://www.w3.org/2000/svg">
<g id="logo_vision_white_test">
<path d="M1.04758 17.6491L0 0.280701H3.46783L3.90131 14.1053H3.86519L8.52509 0.280701H11.9207L5.70748 17.6491H1.04758Z" fill="var(--fill-0, white)"/>
<path d="M11.6805 17.6491L14.2453 0.280701H17.6409L15.0761 17.6491H11.6805Z" fill="var(--fill-0, white)"/>
<path d="M17.2935 17.6491L17.5824 15.5439L24.8071 2.59649H19.9666L20.2194 0.280701H28.9613L28.7445 1.96491L21.3031 15.2982H26.7216L26.3965 17.6491H17.2935Z" fill="var(--fill-0, white)"/>
<path d="M28.8602 17.6491L31.425 0.280701H34.8206L32.2558 17.6491H28.8602Z" fill="var(--fill-0, white)"/>
<path d="M41.1921 18C40.0121 18 39.0127 17.8713 38.1939 17.614C37.3992 17.3567 36.8212 16.8772 36.46 16.1754C36.0987 15.4737 36.0144 14.4444 36.2071 13.0877L37.5798 3.92982C37.7965 2.47953 38.4347 1.46199 39.4943 0.877193C40.578 0.292398 42.0229 0 43.8291 0C44.961 0 45.9363 0.116959 46.7551 0.350877C47.598 0.584795 48.2241 0.982456 48.6335 1.54386C49.067 2.10526 49.1994 2.90058 49.0309 3.92982L47.6943 13.0877C47.5016 14.4678 47.1163 15.5088 46.5383 16.2105C45.9604 16.9123 45.2138 17.3918 44.2987 17.6491C43.4077 17.883 42.3721 18 41.1921 18ZM41.445 16.0351C41.8784 16.0351 42.2878 16 42.6732 15.9298C43.0585 15.8597 43.3836 15.6959 43.6485 15.4386C43.9134 15.1813 44.082 14.807 44.1542 14.3158L45.6714 3.82456C45.7436 3.30994 45.6834 2.93567 45.4908 2.70175C45.3222 2.44444 45.0693 2.2807 44.7322 2.21053C44.395 2.11696 44.0097 2.07017 43.5762 2.07017C43.1428 2.07017 42.7334 2.11696 42.348 2.21053C41.9868 2.2807 41.6737 2.44444 41.4088 2.70175C41.1439 2.93567 40.9754 3.30994 40.9031 3.82456L39.3859 14.3158C39.3137 14.7836 39.3498 15.1462 39.4943 15.4035C39.6629 15.6608 39.9157 15.8363 40.2529 15.9298C40.6141 16 41.0115 16.0351 41.445 16.0351Z" fill="var(--fill-0, white)"/>
<path d="M50.2732 17.6491L52.8379 0.280701H55.8L59.2679 11.0877L60.9656 0.280701H64L61.4352 17.6491H58.4731L54.9692 7.50877L53.3075 17.6491H50.2732Z" fill="var(--fill-0, white)"/>
</g>
</svg>
