<svg preserveAspectRatio="none" width="100%" height="100%" overflow="visible" style="display: block;" viewBox="0 0 43.075 67.325" fill="none" xmlns="http://www.w3.org/2000/svg">
<path id="CO" d="M28.725 2.72501L26.4125 3.41249L25.4125 5.4125L23.975 6.53749L22.85 8.03751L22.2875 10.9125L21.1625 13.2875L22.975 13.5375L23.35 15.35L24.1 16.2875L24.2875 17.85L23.85 19.35L23.9125 20.225L24.7875 20.5375L25.5375 21.9125L30.1 21.5375L32.1625 22.0375L34.5375 25.5375L35.975 25.1L38.5375 25.2875L40.5375 24.85L41.7875 25.5375L41.0375 27.6625L40.225 29.0375L39.85 31.9125L40.5375 34.6L41.475 35.7875L41.6 36.6625L39.7875 38.6625L41.0375 39.5375L41.975 40.975L42.975 44.975L42.2875 45.475L41.6625 43.1L40.6625 41.7875L39.475 43.225L32.6 43.1V45.6L34.6625 46.0375L34.5375 47.6L33.85 47.1625L31.85 47.7875L31.7875 50.725L33.4125 52.225L33.975 54.475L33.9125 56.225L32.5375 67.225L30.725 65.1L29.6625 65.0375L31.85 60.9125L29.1 59.0375L26.975 59.4125L25.6625 58.725L23.725 59.7875L21.1 59.225L18.9125 55.0375L17.2875 54.0375L16.1625 52.1L13.7875 50.225L12.85 50.6L11.35 49.6625L9.60001 48.35L8.60002 48.975L5.60003 48.4125L4.72502 46.6625L4.03753 46.725L0.537508 44.475L0.1 43.225L1.41252 42.9125L1.28752 40.9125L2.16253 39.4125L3.91252 39.1625L5.47502 36.6625L6.85003 34.5375L5.60003 33.6L6.35 31.2875L5.66252 27.6L6.47501 26.5375L6.0375 23.1625L4.66253 20.975L5.22501 19.0375L6.35 19.35L7.03752 18.1625L6.35 15.7875L6.78751 15.225L8.60002 15.35L11.4125 12.5375L12.9125 12.1L12.975 10.7875L13.85 7.35001L15.975 5.53751L18.1625 5.4125L18.5375 4.60001L21.2875 4.91251L24.1625 2.9125L25.6 2.03751L27.4125 0.100002L28.6625 0.349998L29.475 1.41251L28.725 2.72501Z" fill="var(--fill-0, #E5E7EB)" stroke="var(--stroke-0, #2A3038)" stroke-width="0.2" stroke-linecap="round" stroke-linejoin="round"/>
</svg>
