<svg preserveAspectRatio="none" width="100%" height="100%" overflow="visible" style="display: block;" viewBox="0 0 125.95 57.6375" fill="none" xmlns="http://www.w3.org/2000/svg">
<path id="KZ" d="M75.6625 7.2875L78.4125 7.1L84.1625 3.475L83.6625 4.725L88.9125 7.6625L100.35 17.4125L101.038 15.4125L106.288 17.6L110.162 16.6L112.225 17.2875L114.788 19.5375L117.288 20.2875L119.35 21.975L123.1 21.4125L125.85 23.7875L124.662 26.4125L122.288 26.7875L123.85 30.6625L122.85 32.475L116.1 31.1625L116.725 38.225L115.475 39.1L109.788 40.6625L115.287 47.5375L113.475 48.5375L114.537 50.85L112.35 50.225L110.225 48.7875L105.287 48.4125L99.9125 48.2875L98.9125 48.725L93.7875 47.0375L92.225 47.9125L92.5375 50.225L86.7875 48.85L84.85 49.4125L84.6625 51.1625L83.0375 51.9125L79.6625 54.6625L79.1 57.5375H77.85L76.4125 55.6625L72.225 55.5375L70.6625 52.2875L69.0375 52.225L68.1 48.225L63.35 45.35L57.975 45.6625L54.4125 46.225L50.2875 42.6625L47.2875 41.1625L41.5375 38.35L40.85 38.0375L33.35 40.35L37.225 54.975L35.6 55.1625L32.6 52.0375L30.1625 50.9125L26.6625 51.725L25.5375 53.1L25.1625 52.1L25.5375 50.475L24.6 49.1L20.5375 47.725L18.225 44.1625L16.225 43.1625L15.85 41.85L19.0375 42.225L18.4125 39.35L20.975 38.725L23.9125 39.2875L23.475 35.475L22.2875 33.0375L19.1625 33.225L16.225 32.2875L13.0375 33.975L10.2875 34.85L8.53751 34.1625L8.41246 32.1625L5.72501 29.5375L3.47502 29.6625L0.162493 27.0375L1.22496 24.0375L0.100008 23.2875L1.47498 18.975L5.22498 21.225L4.84999 18.4125L9.91248 14.225L14.6625 14.1L22.1625 16.7875L26.2875 18.35L29.0375 16.725L33.85 16.6625L38.4125 18.6625L38.9125 17.475L43.2875 17.6625L43.4125 15.85L37.5375 13.1625L39.725 11.2875L38.7875 10.2875L41.2875 9.2875L38.1 6.6625L38.975 5.35L49.6 4.0375L50.6625 3.1L57.475 1.6625L59.4125 0.100001L65.1 0.912502L67.85 4.85L70.5375 3.9125L74.975 5.225L75.6625 7.2875Z" fill="var(--fill-0, #E5E7EB)" stroke="var(--stroke-0, #2A3038)" stroke-width="0.2" stroke-linecap="round" stroke-linejoin="round"/>
</svg>
