<svg preserveAspectRatio="none" width="100%" height="100%" overflow="visible" style="display: block;" viewBox="0 0 28.325 41.0125" fill="none" xmlns="http://www.w3.org/2000/svg">
<path id="KE" d="M28.225 6.47501L25.1625 10.975L25.2875 25.6L27.35 28.9125L24.85 30.5375L23.975 32.225L22.6 32.475L22.1 35.35L20.9125 36.975L20.225 39.6L18.7875 40.9125L13.725 36.9125L13.5375 34.6L0.725 26.4125L0.975015 23.475L0.1 21.9125V21.725L1.09998 20.1L2.85002 17.475L4.1625 14.5375L2.53752 9.91251L2.09997 7.9125L0.4125 5.1L2.53752 2.72501L4.91247 0.100004L6.72498 0.787508L6.78747 3.03751L7.97498 4.35H10.475L14.975 7.72501L16.1 7.7875L16.9125 7.66251L17.725 8.1L20.1 8.475L21.1 6.78751L24.35 5.1L25.7875 6.47501H28.225Z" fill="var(--fill-0, #E5E7EB)" stroke="var(--stroke-0, #2A3038)" stroke-width="0.2" stroke-linecap="round" stroke-linejoin="round"/>
</svg>
