<svg preserveAspectRatio="none" width="100%" height="100%" overflow="visible" style="display: block;" viewBox="0 0 25.8875 21.3875" fill="none" xmlns="http://www.w3.org/2000/svg">
<path id="GN" d="M12.9125 0.662497L13.1 2.16249H13.6625L14.6 1.6L15.1625 1.72501L16.1625 2.78749L17.6625 3.09999L18.6 2.225L19.7875 1.6625L20.6 1.10001L21.2875 1.22499L22.1 2.10001L22.475 3.225L23.9125 4.91251L23.225 5.91249L23.0375 7.225L23.7875 6.84999L24.225 7.2875L24.0375 8.475L25.1 9.66249L24.4125 9.97499L24.1 11.35L24.9125 12.975L25.7875 16.225L24.475 16.6625L24.1625 17.225L24.4125 18.0375L24.1625 19.7875H23.6L22.6 19.6625L21.9125 21.2875H20.9125L20.225 20.4125L20.475 18.7875L18.975 16.35L18.1 16.7875L17.2875 16.9125L16.35 17.1L16.4125 15.6625L15.85 14.6L15.975 13.4125L15.225 11.725L14.225 10.2875H11.4125L10.6 11.0375L9.60001 11.1625L8.97501 12.0375L8.59998 13.1L6.6625 14.9125L5.16248 12.5375L3.78752 10.975L2.9125 10.4125L2.03749 9.60001L1.6625 7.85L1.16251 6.975L0.100001 6.2875L1.72499 4.34999L2.78749 4.4125L3.72499 3.7875L4.475 3.72499L5.03752 3.225L4.7875 1.9125L5.16248 1.47501L5.22501 0.100001L6.91252 0.162505L9.475 1.10001L10.225 1.0375L10.475 0.599994L12.4125 0.912494L12.9125 0.662497Z" fill="var(--fill-0, #E5E7EB)" stroke="var(--stroke-0, #2A3038)" stroke-width="0.2" stroke-linecap="round" stroke-linejoin="round"/>
</svg>
