<svg preserveAspectRatio="none" width="100%" height="100%" overflow="visible" style="display: block;" viewBox="0 0 28.2 18.7" fill="none" xmlns="http://www.w3.org/2000/svg">
<path id="BY" d="M27.1 11.6L24.6625 11.475L24.1625 11.85L25.1 13.1L26.35 15.6L23.7875 15.7875L22.975 16.6625L23.1625 18.6L21.85 18.225L19.1625 18.4125L18.225 17.475L17.1625 18.1625L15.975 17.6L13.5375 17.5375L9.97496 16.6L6.91252 16.2875L4.53749 16.4125L3.03747 17.4125L1.60002 17.6L1.28752 15.85L0.100001 14.1L1.84995 13.2875L1.60002 11.7875L0.53747 10.35L0.162485 8.6625H3.09996L6.09999 7.225L6.41249 5.1L8.66247 3.85L8.03747 2.1625L9.72502 1.5375L12.6 0.1L15.9125 1.0375L16.475 1.975L17.975 1.5375L20.975 2.4125L21.6625 4.22499L21.225 5.225L23.6 7.725L24.9125 8.4125V9.1L27.0375 9.7875L28.1 10.7875L27.1 11.6Z" fill="var(--fill-0, #E5E7EB)" stroke="var(--stroke-0, #2A3038)" stroke-width="0.2" stroke-linecap="round" stroke-linejoin="round"/>
</svg>
