<svg preserveAspectRatio="none" width="100%" height="100%" overflow="visible" style="display: block;" viewBox="0 0 30.7 59.3875" fill="none" xmlns="http://www.w3.org/2000/svg">
<path id="VN" d="M21.1 7.35L17.0375 10.725L14.725 14.5375L14.35 17.35L17.6625 21.5375L21.725 26.7875L25.2875 29.2875L27.85 32.475L30.35 39.9125L30.6 46.975L27.9125 49.6L24.1 52.225L21.475 55.5375L17.35 59.2875L15.9125 56.725L16.6625 53.975L13.9125 51.725L16.7875 50.1L20.475 49.7875L18.725 47.4125L24.35 44.2875L24.2875 39.475L23.1625 36.7875L23.2875 32.7875L22.0375 29.975L18.975 27.1625L16.225 23.6625L12.6625 18.9125L8.09995 16.475L8.85 15.0375L10.9125 13.975L9.03745 10.475H4.7875L2.6 6.85001L0.100001 3.66251L1.78747 2.6625L4.53749 2.72501L7.85002 2.225L10.4125 0.1L12.35 1.6L15.6625 2.35L15.475 4.66251L17.4125 6.2875L21.1 7.35Z" fill="var(--fill-0, #E5E7EB)" stroke="var(--stroke-0, #2A3038)" stroke-width="0.2" stroke-linecap="round" stroke-linejoin="round"/>
</svg>
