<svg preserveAspectRatio="none" width="100%" height="100%" overflow="visible" style="display: block;" viewBox="0 0 30.1375 33.1375" fill="none" xmlns="http://www.w3.org/2000/svg">
<path id="PY" d="M15.0375 3.47502L16.2875 5.66252L16.5375 11.1L20.225 11.9125L21.6 11.1L24.0375 12.225L24.7875 13.4125L25.475 17.1L25.975 18.6L27.2875 18.7875L28.5375 18.1625L29.85 18.85L30.0375 21.1L29.85 23.475L29.4125 25.7875L29.225 29.2875L26.5375 32.4125L23.9125 33.0375L19.975 32.4125L16.35 31.35L18.975 25.225L18.2875 23.475L14.6 21.9125L10.0375 18.9125L7.16253 18.2875L0.100002 11.7875L1.0375 6.975L0.912533 4.7875L2.22502 1.28752L8.225 0.1L11.475 0.162485L14.85 2.22502L15.0375 3.47502Z" fill="var(--fill-0, #E5E7EB)" stroke="var(--stroke-0, #2A3038)" stroke-width="0.2" stroke-linecap="round" stroke-linejoin="round"/>
</svg>
