<svg preserveAspectRatio="none" width="100%" height="100%" overflow="visible" style="display: block;" viewBox="0 0 10.7625 21.8875" fill="none" xmlns="http://www.w3.org/2000/svg">
<path id="PT" d="M6.72502 20.7875L5.35002 21.7875L3.60002 21.225L1.91252 21.6625L2.47499 18.5375L2.2875 16.1L0.787523 15.725L0.1 14.225L0.4125 11.6L1.78751 10.1625L2.10001 8.5375L2.85002 6.1625V4.475L2.2875 3.0375L2.16249 1.6625L3.35001 0.662496L4.72502 0.1L5.47502 2.03749H7.35002L7.9125 1.53749L9.85002 1.6625L10.6625 3.6625L9.1625 4.725L8.97501 7.85L8.47502 8.41249L8.28752 10.35L6.84999 10.6625L8.09999 13.0375L7.10001 15.6625L8.225 16.85L7.72501 17.9125L6.47501 19.4125L6.72502 20.7875Z" fill="var(--fill-0, #E5E7EB)" stroke="var(--stroke-0, #2A3038)" stroke-width="0.2" stroke-linecap="round" stroke-linejoin="round"/>
</svg>
