<svg preserveAspectRatio="none" width="100%" height="100%" overflow="visible" style="display: block;" viewBox="0 0 37.3875 66.075" fill="none" xmlns="http://www.w3.org/2000/svg">
<path id="MZ" d="M6.91244 65.975H4.34996L4.1625 64.1625L3.78744 62.35L3.5375 60.9125L4.41244 56.475L3.72496 53.6L2.34999 47.975L6.22496 43.4125L7.2875 40.5375L7.78746 40.1625L8.34997 37.7875L7.84994 36.6L8.09996 33.6L8.91249 30.85L9.1625 25.725L7.41247 24.475L5.725 24.1625L5.03744 23.1625L3.41246 22.35L0.474988 22.4125L0.349942 20.9125L0.100003 18.0375L10.85 14.725L12.8499 16.6625L13.7874 16.2875L15.1625 17.2875L15.2875 18.9125L14.475 20.7875L14.6 23.6L16.7875 26.1L17.975 23.2875L19.5375 22.475L19.475 17.2875L18.1 14.4125L16.9124 13.1H16.6625L16.2874 8.5375L17.2249 4.72502L18.6 4.60001L22.7875 5.725L23.725 5.22501L26.1625 5.1L27.475 3.91252L29.6 3.97501L33.4749 2.41251L36.35 0.100001L36.9124 1.85003L36.5999 5.85001L36.9124 9.41252L36.7875 15.6625L37.2875 17.6L36.1 20.475L34.6 23.2875L32.2875 25.7875L28.975 27.2875L24.9125 29.225L20.7875 33.5375L19.4124 34.2875L16.7875 37.1625L15.3499 38.0375L14.85 40.9125L16.35 43.975L16.9124 46.2875V47.5375L17.5374 47.2875L17.2249 51.225L16.5375 53.1L17.2875 53.7875L16.6625 55.475L15.1625 56.9125L12.2249 58.225L7.9125 60.4125L6.35 61.9125L6.53746 63.6L7.34999 63.85L6.91244 65.975Z" fill="var(--fill-0, #E5E7EB)" stroke="var(--stroke-0, #2A3038)" stroke-width="0.2" stroke-linecap="round" stroke-linejoin="round"/>
</svg>
