<svg preserveAspectRatio="none" width="100%" height="100%" overflow="visible" style="display: block;" viewBox="0 0 34.2 32.5125" fill="none" xmlns="http://www.w3.org/2000/svg">
<path id="Vector" d="M0.1 26.2875L1.09998 13.1625L1.72498 0.1L7.72497 2.85002L14.1625 5.16248L16.475 7.22501L18.35 9.22498L18.725 11.6L24.475 14.1L25.1625 16.225L21.9125 16.6625L22.475 19.35L25.4125 21.975L27.2875 26.225L29.35 26.1L28.975 27.85L31.6625 28.5375L30.5375 29.2875L34.1 30.975L33.5375 32.1625L31.1625 32.4125L30.4125 31.4125L27.475 30.9125L23.975 30.35L21.475 27.7875L19.725 25.5375L18.1625 22.0375L13.725 20.2875L10.6625 21.4125L8.34997 22.7875L8.5375 25.725L5.66251 27.1L3.72495 26.4125L0.1 26.2875Z" fill="var(--fill-0, #E5E7EB)" stroke="var(--stroke-0, #2A3038)" stroke-width="0.2" stroke-linecap="round" stroke-linejoin="round"/>
</svg>
