<svg preserveAspectRatio="none" width="100%" height="100%" overflow="visible" style="display: block;" viewBox="0 0 5.32447 4.13754" fill="none" xmlns="http://www.w3.org/2000/svg">
<path id="Vector" d="M1.91229 0.225008H2.28727L2.34975 0.162523L2.66222 0.1L2.91221 0.225008L3.16216 0.4125L3.22467 0.600031V0.662515L2.91221 0.725L2.78721 0.537508L2.66222 0.475023L2.59974 0.662515L2.72473 0.725L2.78721 0.912531L2.97468 0.787523L3.09968 0.850008L3.16216 1.10002L3.34967 1.16251L3.41215 1.10002L3.72461 1.28752L3.78709 1.0375L3.28715 0.912531L3.34967 0.600031L3.53714 0.475023L4.47454 0.4125L4.91201 0.787523L5.03696 0.850008V1.10002L4.66202 1.0375L4.34955 0.912531L3.9746 1.0375L4.16208 1.16251L4.41203 1.22503L4.97448 1.28752L5.16196 1.35L5.22447 1.47501L5.09948 1.78751H4.78701L4.72449 1.85003L4.28707 1.91252L3.9746 2.03752L4.16208 2.16253L3.59962 2.41251L3.34967 2.35002L3.0372 2.41251H2.59974L2.22476 2.2875L1.84981 2.03752V2.22502L2.03728 2.35002L2.41227 2.47503L2.59974 2.66252L2.72473 2.6L2.97468 2.66252L3.22467 2.85002L3.09968 2.9125L3.22467 3.225H3.09968L2.91221 3.03751L2.66222 2.97502L2.34975 3.225L2.22476 3.03751L2.03728 2.9125H1.84981L1.53734 2.78753L1.41235 2.85002L1.53734 3.10003H1.72482L1.84981 3.225L1.72482 3.28752L2.16228 3.66251L2.03728 3.72503L1.78733 3.60002H1.59982L1.41235 3.41253L1.22487 3.35001L1.0374 3.28752L0.974886 3.66251L1.28735 3.72503V3.91252L1.22487 4.03753L0.974886 3.97501L0.912408 3.85L0.59994 3.72503L0.537462 3.60002H0.412467L0.162478 3.28752L0.349951 3.03751V2.9125L0.1 2.6V2.47503L0.412467 2.35002L0.349951 2.22502L0.662418 2.16253L0.59994 1.975L0.974886 1.72502L1.34987 1.60002L1.59982 1.85003V2.10001L1.78733 2.03752L1.47486 1.6625L1.53734 1.47501L1.1624 1.35L0.912408 1.16251L0.974886 1.0375L1.22487 1.16251L1.28735 0.850008L0.849929 0.725L0.912408 0.537508L1.0374 0.600031L1.22487 0.475023H1.41235L1.53734 0.287531L1.34987 0.1H1.59982L1.91229 0.225008Z" fill="var(--fill-0, #E5E7EB)" stroke="var(--stroke-0, #2A3038)" stroke-width="0.2" stroke-linecap="round" stroke-linejoin="round"/>
</svg>
