<svg preserveAspectRatio="none" width="100%" height="100%" overflow="visible" style="display: block;" viewBox="0 0 31.5125 22.575" fill="none" xmlns="http://www.w3.org/2000/svg">
<path id="PL" d="M16.35 1.6625L20.0375 2.1L25.5375 2.03749L27.1 2.475L27.975 3.6625L28.35 5.35L29.4125 6.7875L29.6625 8.28749L27.9125 9.1L29.1 10.85L29.4125 12.6L31.4125 15.975L31.225 17.0375L29.7875 17.475L27.4125 20.725L28.4125 22.475L27.725 22.225L24.6 20.725L22.4125 21.2875L20.9125 20.9125L19.1625 21.725L17.475 20.35L16.2875 20.9125L16.1 20.6625L14.475 18.725L12.1625 18.5375L11.725 17.2875L9.59998 16.85L9.225 17.85L7.47497 17.0375L7.60002 15.975L5.28747 15.6625L3.72497 14.4125L2.22503 11.975L2.35 10.6L1.4125 8.5375L0.224985 7.225L0.97503 6.1625L0.100015 4.22499L2.0375 3.1L6.47498 1.35L10.1 0.1L13.1 0.725L13.475 1.6625H16.35Z" fill="var(--fill-0, #E5E7EB)" stroke="var(--stroke-0, #2A3038)" stroke-width="0.2" stroke-linecap="round" stroke-linejoin="round"/>
</svg>
