<svg preserveAspectRatio="none" width="100%" height="100%" overflow="visible" style="display: block;" viewBox="0 0 26.8875 17.075" fill="none" xmlns="http://www.w3.org/2000/svg">
<path id="TJ" d="M10.5375 2.975L9.66247 4.1625L5.91247 3.5375L6.28745 5.7875L9.72495 5.475L14.1625 6.7875L20.1625 6.1625L22.1 9.9125L23.0375 9.475L25.35 10.4125L25.6625 11.975L26.7875 14.225H23.4125L21.0375 13.9125L19.475 15.725L18.1 16.1L17.1625 16.975L15.475 15.6625L14.9125 12.2875L13.85 12.1L13.9125 10.85L11.85 9.975L10.7875 11.35L10.9125 12.975L10.5375 13.5375L8.53751 13.475L7.975 15.2875L6.66251 14.5375L4.5375 15.7875L3.41247 15.35L4.225 11.2875L2.72498 8.2875L0.100013 7.35L0.474998 5.6L3.22501 5.7875L4.16251 3.6L4.47501 1.0375L8.53751 0.100001L8.41247 1.975L9.225 3.0375L10.5375 2.975Z" fill="var(--fill-0, #E5E7EB)" stroke="var(--stroke-0, #2A3038)" stroke-width="0.2" stroke-linecap="round" stroke-linejoin="round"/>
</svg>
