<svg preserveAspectRatio="none" width="100%" height="100%" overflow="visible" style="display: block;" viewBox="0 0 304 260" fill="none" xmlns="http://www.w3.org/2000/svg">
<path id="gpx" d="M3.84276 125.388L7.2269 128.101L10.0696 125.931L11.4232 125.659L12.9122 126.066L14.1305 126.744L18.4622 130.543L19.9512 132.984L20.7634 136.104L23.6061 142.208L29.5622 145.464L37.0073 148.855L37.5487 149.397L38.767 149.533L49.3255 146.956L53.3865 148.041L56.4999 150.347L57.0413 150.754L58.6657 153.738L58.9364 155.909L58.6657 156.315L57.7182 156.994L52.0328 156.315L50.5438 156.587L48.5133 157.536V157.808L51.356 161.741L51.7621 162.013L51.6267 162.691L49.7316 166.082L47.295 167.845L45.806 168.524L45.3999 168.795L45.9414 169.338L49.867 170.558L44.5877 171.915L41.7451 173.814L36.6012 176.391L36.0597 177.205L35.789 178.833L35.3829 179.511V179.647V180.054L36.6012 182.088L37.278 186.293L37.8195 187.65L40.3914 186.429L46.3475 189.345L52.3035 192.262L55.2816 199.044L55.5523 201.621L55.6877 201.757H56.2291L58.395 198.095L59.2072 197.959L59.7486 202.164L60.4255 203.656L61.6438 204.877L62.7267 205.013L65.2986 202.978L66.2462 202.435L67.5998 204.741L68.0059 207.454L69.2242 210.167L70.8486 210.981L71.6608 211.931L80.7979 215.118L89.9351 218.306L91.018 218.984L92.1009 221.019H92.7778L94.5375 220.748H98.3277L107.668 220.883L109.157 221.29L112.27 221.562L112.676 222.375L112.541 224.817L113.624 227.937L114.707 229.158L116.061 229.7L116.737 231.328L118.091 233.363L119.039 233.498L119.174 233.363L119.039 231.057L119.851 230.379L122.964 234.312L129.056 239.603L129.191 239.738L131.086 240.009L132.846 239.06L133.523 238.11L134.2 237.975L135.824 238.653L139.208 241.23L145.435 238.653L149.36 237.839L149.767 237.297L149.496 234.041L150.173 233.634L152.068 233.498L153.015 232.549L154.234 232.413L157.076 234.312L160.19 234.855L162.626 233.498H165.063L166.146 232.685H166.958L167.77 232.142L169.124 229.7L169.936 228.886H170.071L171.425 229.565L172.102 230.785L171.831 232.142L172.102 233.498L173.049 235.262L173.726 234.855H174.945L176.569 235.804L176.975 236.754L178.87 238.653L180.088 238.789L180.63 239.196H181.577L183.743 240.145L185.503 240.009L186.451 240.416V243.672L187.127 244.079L188.481 243.129L189.97 244.486L192.271 245.978L191.594 247.741L191.73 248.826L195.52 255.066L197.28 259L199.852 255.473L201.611 253.981L208.921 250.793L216.231 247.606L219.344 245.435L224.556 241.366L229.767 237.297L237.754 231.599L239.649 231.192L243.033 231.328L244.522 230.785L244.793 230.107L245.334 227.123L246.011 226.038L245.741 225.767L245.47 223.325L246.147 221.426L250.072 217.085L253.05 215.186L255.216 214.915L256.299 214.508L256.434 214.237L256.299 209.353L256.976 208.404L262.661 204.334L263.744 202.978L264.15 202.028L263.609 194.161L264.421 190.634L266.451 186.972L266.993 186.429L268.076 185.886L270.242 185.615L274.167 184.259L273.355 183.038L273.897 172.729L274.844 169.88L274.709 168.659L273.761 165.268L274.032 163.776L273.897 162.42L274.032 161.47L273.49 159.707L273.897 157.265L273.761 154.823L274.032 154.552V153.467L273.761 152.246L271.46 149.669L270.242 146.956V145.599L270.919 144.514L271.46 143.158L270.512 141.123L270.377 139.767L270.783 139.224L270.377 138.41L270.648 136.918L270.512 135.426L271.054 134.205L273.22 133.12L275.386 132.984L276.468 132.306L285.673 131.628L285.403 129.593L287.027 127.287L288.11 126.609L291.359 122.539L291.629 119.284L292.171 118.334L293.118 117.656L296.367 116.842L297.044 116.3V113.18L296.638 112.637L296.773 111.281L302.323 106.262L303 103.685L302.594 103.142L298.127 106.262L294.743 107.483H294.337V106.533L296.367 103.685L296.503 100.158L297.992 96.7666L298.939 95.9527L299.481 93.918V90.7981L299.751 89.7129L302.053 87.1356L302.594 86.3218V86.0505L301.917 85.9148L300.293 87.1356L297.992 87.6782L296.638 88.4921L292.577 91.7476L290.817 94.0536L288.651 95.9527L287.975 96.0883H286.35H286.079V95.9527L288.651 93.511L289.734 88.7634L290.546 87.1356L294.201 82.2524V81.8454V81.5741L293.795 81.1672L293.118 81.3028L290.817 83.6088L288.922 84.5584L285.944 84.9653H283.372L281.883 84.5584L282.154 84.0158H282.56H282.831V84.4227L284.59 83.4732L286.35 81.9811L286.215 81.7098L284.32 81.4385L284.455 79.4038L282.425 78.4543L282.289 78.183L282.831 76.1483L282.695 75.877L282.018 75.6057L277.687 75.3344V75.0631L278.905 73.8423L274.844 72.7571L274.979 72.3502L275.927 71.8076L276.198 68.8233L280.123 64.4826L280.394 62.3123L280.259 59.8707L280.665 59.0568L281.477 57.9716L287.975 54.3091L288.922 53.4953H289.464L289.734 52.9527V52.6814L288.651 52.817L286.486 53.4953L284.59 53.9022L279.447 53.3596L278.499 54.0379L271.866 60.2776H271.189L271.054 59.4637L271.325 57.9716L271.054 55.9369L271.595 54.4448L272.949 52.6814L272.543 51.8675H271.595L267.128 48.4763L272.949 42.9148L274.167 42.6435L277.01 42.9148L278.905 42.5079L281.206 40.4732L285.132 35.7256V35.3186V35.183L284.455 34.9117L281.883 36.2681L279.853 36.5394L275.386 36.1325L273.897 34.9117L272.814 32.6057L273.49 30.164L274.709 27.5868L275.927 26.2303L271.189 21.2114L266.451 12.2587L263.744 10.6309L256.57 8.32493L249.395 6.01893L248.719 5.61199L248.313 4.66246L246.147 6.96845L242.763 8.46057L237.889 9.68139L234.776 9.4101L229.091 5.74763L227.06 6.01893L224.217 5.0694L223.135 4.39117L222.322 3.17035L221.51 2.49211L219.75 1H219.074L214.742 3.84858L212.441 6.96845L209.327 7.23975L201.476 10.224L195.926 11.1735L195.791 12.3943L197.551 14.5647L199.987 17.5489L200.393 22.2965L199.716 23.3817L194.843 27.858L189.97 32.3344L185.232 35.0473L177.516 44L177.652 43.8644L176.298 46.4416L175.757 49.0189L176.434 51.7319L178.193 54.0379L184.962 58.1073L185.909 59.1924L186.857 61.3628L186.721 63.6688L182.796 74.7918L181.713 77.2334L177.923 83.3375L175.621 85.2366L172.508 87.2713L172.643 87.1356L165.334 89.306L159.174 91.4085L153.015 93.511L144.352 96.0883L133.839 99.8413L123.325 103.594L112.812 107.347L111.323 106.804L104.555 100.429L103.336 99.8864H102.524L100.358 100.293L93.3192 106.262L91.6949 107.483L89.2583 107.754L87.9046 107.076L82.0839 101.853L76.2632 96.6309L73.2852 95.1388L70.4425 94.7319H69.4949L68.2767 95.2744L63.1328 99.3438L60.9669 100.293L53.1834 102.057L45.3999 103.82L38.0902 105.719L33.6231 107.618L30.9158 108.297L22.2524 109.11L19.0037 110.06L15.2134 111.959L7.09153 116.707L1.00009 120.912" stroke="var(--stroke-0, #B2AAAA)" stroke-width="2" stroke-linecap="round" stroke-linejoin="round"/>
</svg>
