<svg preserveAspectRatio="none" width="100%" height="100%" overflow="visible" style="display: block;" viewBox="0 0 42.0125 38.825" fill="none" xmlns="http://www.w3.org/2000/svg">
<path id="NG" d="M40.475 5.66252L41.9125 7.22502L41.5375 7.975L41.35 9.28751L38.4125 12.4125L37.5375 14.975L37.0375 17.0375L36.2875 17.975L35.6 20.7875L33.725 22.4125L33.225 24.4125L32.4125 26.0375L32.1 27.725L29.6625 29.1L27.6625 27.4125L26.35 27.475L24.225 29.85H23.225L21.5375 33.725L20.6625 36.6L16.975 38.0375L15.6625 37.85L14.2875 38.725L11.475 38.6625L9.53752 36.1L8.35001 33.225L5.85001 30.6H3.225H0.1L0.287531 24.1625L0.162523 21.6L0.850008 19.1L1.91252 17.85L3.66251 15.35L3.28752 14.2875L3.97501 12.6625L3.16252 10.2875L3.28752 8.97501L3.5375 5.35002L4.53752 3.72501L5.03752 1.4125L5.91253 0.600012L9.72502 0.1L13.225 1.60002L14.5375 3.10001L16.35 3.16252L18.0375 2.22502L22.2875 4.28751L24.1 4.1625L26.1625 2.47501L28.225 2.6L29.225 2.0375L31.1 2.22502L33.85 3.41251L36.5375 1.16251L37.4125 1.35L39.85 5.725L40.475 5.66252Z" fill="var(--fill-0, #E5E7EB)" stroke="var(--stroke-0, #2A3038)" stroke-width="0.2" stroke-linecap="round" stroke-linejoin="round"/>
</svg>
