<svg preserveAspectRatio="none" width="100%" height="100%" overflow="visible" style="display: block;" viewBox="0 0 16.325 21.3875" fill="none" xmlns="http://www.w3.org/2000/svg">
<path id="KP" d="M15.35 2.47499L16.225 3.1625L14.85 2.9125L14.225 4.2875L14.0375 5.59999L15.7875 8.475L14.6 9.34999L14.4125 10.0375L13.85 11.225L12.0375 11.9125L11.1625 12.975L11.975 14.6625L11.7875 15.1L13.4125 15.7875L16.1625 17.5375V18.475L14.9125 18.725L12.6625 18.975L12.2875 20.725L10.725 20.6V20.975L8.72496 20.225L8.66247 20.975L7.85002 21.2875L7.41247 20.5375L6.35 20.1625L5.16249 19.5375L5.22497 17.7875L5.78749 17.2875L5.16249 16.6L4.91247 14.4125L4.34995 13.7875L2.22502 13.35L0.1 12.2875L1.41248 9.725L3.85 7.6L4.53749 4.725L6.78747 5.975L9.66246 6.1625L7.9125 4.03749L11.9125 2.34999V0.1L15.35 2.47499Z" fill="var(--fill-0, #E5E7EB)" stroke="var(--stroke-0, #2A3038)" stroke-width="0.2" stroke-linecap="round" stroke-linejoin="round"/>
</svg>
