<svg preserveAspectRatio="none" width="100%" height="100%" overflow="visible" style="display: block;" viewBox="0 0 26.8875 27.325" fill="none" xmlns="http://www.w3.org/2000/svg">
<path id="ZW" d="M19.975 27.1625L18.1625 26.725L16.975 27.225L15.2875 26.5375H13.9125L11.7875 24.725L9.10002 24.1L8.16252 21.5375L8.225 20.1L6.78755 19.6625L2.97499 15.2875L1.975 12.975L1.28752 12.225L0.100001 9.03749L3.97505 9.475L5.1 9.91247L6.28752 9.84999L8.28749 7.22498L11.475 3.97497L12.725 3.59999L13.225 2.22498L15.2875 0.662478L17.975 0.100001L18.1 1.59998L21.0375 1.53749L22.6625 2.34999L23.35 3.34997L25.0375 3.66247L26.7875 4.91247L26.5375 10.0375L25.725 12.7875L25.475 15.7875L25.975 16.975L25.4125 19.35L24.9125 19.725L23.85 22.6L19.975 27.1625Z" fill="var(--fill-0, #E5E7EB)" stroke="var(--stroke-0, #2A3038)" stroke-width="0.2" stroke-linecap="round" stroke-linejoin="round"/>
</svg>
