<svg preserveAspectRatio="none" width="100%" height="100%" overflow="visible" style="display: block;" viewBox="0 0 422.638 132.638" fill="none" xmlns="http://www.w3.org/2000/svg">
<path id="Vector" d="M348.6 128.288L347.725 127.6L346.538 125.538L348.1 125.475L345.663 120.788L342.725 117.413L344.537 116.038L348.85 116.725L348.475 112.85L346.725 108.6L346.913 107.163L346.1 103.6L341.788 104.788L340.162 106.288H335.413L331.663 102.663L326.038 99.85L319.788 98.6L315.913 94.85L313.1 92.475L310.725 90.7875L305.913 86.9125L302.163 85.5375L296.788 84.35L292.913 84.475L289.725 85.1625L288.663 87.1L290.975 87.975L292.538 90.1L291.725 91.35L291.85 95.4125L293.038 97.1625L290.288 99.6L285.663 98.1L282.163 98.475L279.725 97.1625L277.6 96.725L274.85 99.475L271.163 100.1L268.912 101.1L264.663 100.475H261.788L258.725 98.475L254.6 96.6625L251.225 96.1L247.662 96.6L245.162 97.35L239.85 95.725L237.6 92.85L233.413 91.85L230.413 91.35L226.038 89.7875L225.225 93.7875L227.725 96.0375L226.225 98.7875L221.225 97.7875L218.1 97.6625L215.1 95.85L211.85 95.7875L208.538 94.6L204.85 96.4125L200.663 99.725L197.725 100.413L196.663 100.725L193.912 98.35L190.162 98.9125L188.1 97.225L185.6 96.475L183.038 94.225L180.975 93.5375L177.1 94.5375L171.85 92.35L171.163 94.35L159.725 84.6L154.475 81.6625L154.975 80.4125L149.225 84.0375L146.475 84.225L145.787 82.1625L141.35 80.85L138.663 81.7875L135.913 77.85L130.225 77.0375L128.287 78.6L121.475 80.0375L120.413 80.975L109.788 82.2875L108.912 83.6L112.1 86.225L109.6 87.225L110.538 88.225L108.35 90.1L114.225 92.7875L114.1 94.6L109.725 94.4125L109.225 95.6L104.663 93.6L99.85 93.6625L97.1001 95.2875L92.975 93.725L85.475 91.0375L80.725 91.1625L75.6625 95.35L76.0375 98.1625L72.2875 95.9125L70.9125 100.225L72.0375 100.975L70.975 103.975L74.2876 106.6L76.5375 106.475L79.225 109.1L79.35 111.1L81.1 111.788L80.2251 114.1L77.35 114.725L75.1 118.788L78.85 122.6L79.1 125.225L83.6626 129.913L82.1001 131.538L81.725 132.538L80.2251 132.225L77.5375 129.85L76.6 129.725L74.35 128.788L73.0376 127.163L69.85 126.35L68.0376 126.975L67.2875 126.225L62.5375 124.288L57.7251 123.663L54.85 122.975L54.6001 123.475L49.85 120.1L45.975 118.6L42.7875 116.288L45.0375 115.663L47.0375 112.413L44.975 110.85L49.2876 109.225L49.0375 108.35L46.35 108.975L46.1 107.288L47.475 106.163L50.475 105.913L50.6625 104.6L49.5375 102.413L50.35 100.413L50.1 99.225L45.2875 97.975L43.475 98.0375L41.225 96.225L38.9751 96.85L34.7875 95.475L34.725 94.725L33.2875 93.0375L30.8501 92.85L30.35 91.6625L30.9125 90.85L28.5375 88.6625L25.475 89.0375L24.5375 88.85L23.9125 89.725L22.7875 89.6L21.5375 87.1L20.6 85.85L21.1 85.475L23.5375 85.6L24.5375 84.7875L23.475 83.7875L21.35 83.1V82.4125L20.0375 81.725L17.6625 79.225L18.1 78.225L17.4126 76.4125L14.4125 75.5375L12.9125 75.975L12.35 75.0375L9.03754 74.1L7.72505 71.85L7.10005 70.0375L5.53755 69.225L6.53754 68.0375L5.03752 64.5375L6.66251 62.4125L6.09999 61.7875L8.91249 59.725L5.53755 57.975L10.5376 53.35L12.6625 51.225L13.225 49.4125L8.59999 46.975L9.16251 44.6L6.09999 41.975L7.16254 38.975L3.10004 35.0375L4.91255 32.4125L0.350022 30.1L0.100007 27.725L2.10005 27.4125L6.09999 26.1L8.41254 24.9125L13.225 26.9125L20.5376 27.725L31.6 31.6L34.1625 33.225L35.1 35.5375L32.7875 37.35L28.725 38.2875L16.1 35.6625L14.2876 36.1L19.35 38.6625L19.975 40.2875L21.1626 43.9125L24.975 44.975L27.35 45.9125L27.225 44.1625L25.1 42.6625L26.4125 41.2875L33.6626 43.5375L35.6625 42.6625L32.975 40.0375L38.0376 36.6625L40.6 36.85L43.475 38.0375L44.1625 35.6625L41.225 33.6L41.725 31.5375L39.0375 29.4125L46.725 30.5375L48.9751 32.4125L45.7875 32.85L46.5375 34.7875L49.1 35.975L52.85 35.225L52.6 33.0375L57.4126 31.35L65.1625 28.475L67.1625 28.6L65.6 30.6625L68.9751 31.0375L70.2875 29.85L75.1 29.7875L78.225 28.35L82.225 30.4125L83.9751 28.1625L80.2251 26.225L80.975 25.1L89.1 26.1L93.225 27.1625L104.85 31.0375L105.538 29.2875L101.85 27.475L101.35 26.7875L98.0376 26.4125L97.9125 24.85L94.975 22.225L94.2876 21.1625L96.975 18.225L96.6 15.225L97.975 14.6L105.1 15.475L106.913 17.2875L106.35 19.9125L108.663 20.975L111.038 23.2875L113.413 27.9125L117.6 29.975L117.913 32.2875L115.725 37.1625L119.038 37.6625L119.35 36.4125L121.725 35.5375L121.412 33.85L122.6 32.1625L119.85 30.225L119.6 27.975L116.6 27.725L114.788 25.85L114.537 22.475L109.413 19.7875L112.35 17.6L110.038 15.2875L111.225 15.225L113.85 16.975L115.162 20.1625L118.287 20.7875L115.413 18.4125L118.6 17.1L123.663 16.9125L129.663 18.7875L125.35 16.1L122.288 12.6625L125.975 12.0375L131.913 12.1625L136.788 11.725L133.287 10.1L134.1 8.0375L136.725 7.9125L139.788 6.4125L145.6 5.975L145.475 5.1L151.288 4.85L153.975 5.5375L157.35 3.9125L161.725 3.975L160.787 2.6L161.35 1.35L165.225 0.1L170.413 1.1L168.225 1.85L174.1 2.2875L176.663 3.7875L177.85 3.0375L184.663 3.1L191.913 4.6L195.35 5.725L196.913 7.35L195.413 8.2875L191.288 10.0375L190.6 10.975L194.1 11.4125L198.6 12.225L200.1 11.6L203.725 13.6625L203.85 12.85L207.1 12.35L215.6 12.85L217.975 14.35L228.85 14.85L225.85 12.4125L231.788 12.975L235.6 12.9125L241.788 14.6L245.538 16.6625L245.787 18.0375L252.1 20.6625L257.725 21.975L255.85 18.5375L261.725 19.975L264.85 19.1L270.975 20.1L271.6 19.225L276.35 19.6625L270.475 16.6L271.788 15.225L297.037 17.35L301.975 19.2875L312.163 21.7875L321.412 21.1625L327.225 21.725L331.35 23.1L334.537 25.5375L339.1 26.475L341.538 25.7875L345.913 25.725L351.725 26.35L356.038 25.975L364.975 28.975L366.538 27.9125L361.225 25.7875L360.1 24.2875L369.663 25.225L374.663 25.0375L384.537 26.6L390.475 28.1L411.225 41.9125L409.975 43.475L406.1 43.225L411.225 45.1L416.913 48.0375L419.537 48.975L421.913 50.475L422.538 51.4125L416.288 50.6625L412.163 53.35L410.288 53.7875L409.288 56.35L408.038 58.6L409.1 60.2875L401.913 57.725L398.1 60.6L395.162 59.225L394.288 60.85L389.913 60.2875L391.85 62.725L392.538 66.35L394.35 67.85L398.6 68.6625L404.288 74.1L401.725 74.2875L403.85 77.4125L406.788 79.0375L403.663 80.975L407.037 85.35L403.475 86.2875L406.288 90.1625L405.225 93.7875L401.663 91.1L395.1 85.5375L384.975 77.0375L380.913 71.85L380.975 69.6L379.225 67.85L382.788 67.0375L382.662 62.35L383.1 58.6L384.663 55.6625L380.538 50.5375L377.6 50.85L379.6 53.85L377.35 57.85L369.663 53.35L363.975 54.6V60.725L368.788 62.975L363.475 63.975L359.475 64.35L356.788 61.6625L351.788 61.1L350.225 62.9125L340.787 62.2875L332.538 63.35L330.35 70.6625L327.225 79.5375L332.35 80.0375L335.913 82.4125L339.537 83.225L339.788 81.35L343.287 81.6L351.288 85.7875L354.225 89.0375L355.1 92.9125L358.538 97.5375L361.85 103.725L361.225 109.413L362.037 112.1L360.787 116.725L359.475 121.288L358.912 123.6L356.038 125.913L354.1 125.975L350.85 124.038L348.287 126.975L348.6 128.288Z" fill="var(--fill-0, #E5E7EB)" stroke="var(--stroke-0, #2A3038)" stroke-width="0.2" stroke-linecap="round" stroke-linejoin="round"/>
</svg>
