<svg preserveAspectRatio="none" width="100%" height="100%" overflow="visible" style="display: block;" viewBox="0 0 181.325 132.013" fill="none" xmlns="http://www.w3.org/2000/svg">
<path id="Vector" d="M158.412 15.6L164.037 18.4125L167.787 22.0375H172.537L174.163 20.5375L178.475 19.35L179.287 22.9125L179.1 24.35L180.85 28.6L181.225 32.475L176.912 31.7875L175.1 33.1625L178.037 36.5375L180.475 41.225L178.912 41.2875L180.1 43.35L176.663 40.975V43.225L172.662 44.9125L174.412 47.0375L171.537 46.85L169.287 45.6L168.6 48.475L166.162 50.6L164.85 53.1625L160.912 54.2875L159.412 56.1625L156.412 57.2875L157.225 55.4125L155.787 53.85L157.037 51.1625L154.225 49.1L152.1 50.475L149.85 53.2875L149.037 55.85L145.912 56.0375L145.1 57.9125L148.1 60.6L151.1 61.2875L151.975 63.0375L155.162 64.225L157.537 61.35L161.225 62.9125L163.412 63.0375L164.85 65.1L160.662 66.225L160.037 68.4125L157.662 70.4125L157.1 73.225L161.537 75.4125L164.412 79.35L167.85 83.0375L171.287 86.1L172.288 89.1L170.537 90.225L172.037 92.35L174.475 93.6L174.975 96.85L175.037 100.038L173.287 100.413L171.975 104.725L170.537 110.038L168.412 114.788L164.412 118.475L160.287 121.913L156.475 122.35L154.662 124.1L153.225 122.85L151.663 124.788L147.162 126.85L143.538 127.412L143.1 131.663L141.162 131.913L139.788 128.975L140.35 127.475L135.475 126.162L133.975 126.85L130.287 125.787L128.35 124.163L128.538 121.85L125.225 121.1L123.287 119.6L120.725 121.725L117.412 122.225L114.662 122.163L112.975 123.163L111.287 123.725L112.537 128.35L110.662 128.225L110.162 127.288L109.85 125.6L107.475 126.787L105.85 126.038L103.037 124.537L103.538 121.225L101.225 120.413L99.7249 116.725L96.225 117.412L95.7875 112.662L98.4125 109.287L97.8499 105.975L97.0375 102.913L95.3499 101.975L93.6625 99.6L91.725 99.9125L87.9125 99.2875L88.6625 97.6L86.4125 95.1L84.4124 96.7875L81.35 95.85L77.975 98.35L75.5375 101.35L72.9125 101.85L71.1625 100.787L69.35 100.663L66.6625 99.7875L65.0374 100.787L63.4125 103.788L62.475 100.6L60.5375 101.475L56.475 101.038L52.4125 100.162L49.2875 98.35L46.475 97.6L44.9125 95.6625L42.8499 95.1L38.85 92.475L35.85 91.225L34.6625 92.1625L29.2875 89.35L25.4125 86.85L23.4125 82.4125L25.9749 82.975L25.6 80.9125L23.725 78.85L23.225 75.6L18.4125 70.85L12.475 69.2875L10.6624 66.1625L7.72497 64.2875L6.78747 63.1625L5.66244 60.9125L5.34994 59.35L3.03747 58.4125L2.09997 58.85L0.162485 55.1L0.84997 54.225L0.1 53.2875L2.66249 51.4125L4.66245 50.6L8.28749 51.1625L8.66247 48.6L12.6625 48.1625L13.2875 46.5375L17.6 44.4125L17.725 43.5375L16.6625 41.225L18.4749 40.225L12.975 33.35L18.6625 31.7875L19.9125 30.9125L19.2875 23.85L26.0375 25.1625L27.0375 23.35L25.475 19.475L27.8499 19.1L29.0375 16.475L30.1 16.1625L32.1625 18.9125L35.725 20.975L40.85 22.4125L44.475 25.6L45.3499 30.1625L47.2249 31.9125L51.2874 32.6L55.7875 33.1L60.7875 35.6L62.9125 36.0375L66.0375 39.6625L68.975 42.0375L72.475 41.9125L79.5375 42.85L83.5375 42.2875L87.0375 42.85L92.9125 45.2875H96.7875L98.85 46.475L101.6 44.35L106.1 42.975L110.85 42.85L113.912 41.475L115.162 39.35L116.663 37.975L115.475 36.6625L113.662 35.1625L113.975 32.6L115.975 32.975L119.662 33.7875L121.663 31.6625L125.662 30.1625L126.475 27.5375L128.037 26.4125L132.288 25.9125L135.037 26.35L134.537 24.975L130.037 22.225L126.787 20.975L125.225 22.4125L121.787 21.7875L120.35 22.2875L118.6 20.725L118.412 16.7875L118.037 13.85L122.662 15.35L125.413 12.9125L124.225 11.1625L124.1 7.1L124.912 5.85L123.35 3.725L121.038 2.85001L122.1 0.912502L125.287 0.224998L129.163 0.1L134.537 1.28751L138.287 2.6625L143.1 6.5375L145.475 8.225L148.287 10.6L152.162 14.35L158.412 15.6Z" fill="var(--fill-0, #E5E7EB)" stroke="var(--stroke-0, #2A3038)" stroke-width="0.2" stroke-linecap="round" stroke-linejoin="round"/>
</svg>
