<svg preserveAspectRatio="none" width="100%" height="100%" overflow="visible" style="display: block;" viewBox="0 0 4.32456 2.94998" fill="none" xmlns="http://www.w3.org/2000/svg">
<path id="Vector" d="M1.34987 0.850008H1.53738L1.72482 0.787485L1.97481 0.850008L2.03729 0.787485H2.34975H2.84973L2.97469 0.974977L3.1622 1.0375L3.28715 1.22499H3.41219L3.53714 1.28748L3.78713 1.53749V1.91248H3.91209L4.16208 2.03748L4.22456 2.22498V2.6L4.16208 2.66248L3.72465 2.78749L3.59962 2.84998L3.34963 2.78749L3.09972 2.66248H2.84973L2.78725 2.53748L2.47479 2.34998H2.09976L1.7873 2.41251H1.47483L1.16236 2.34998L0.974927 2.22498L0.787416 2.2875L0.599981 2.03748L0.41247 1.91248L0.224959 1.41248L0.100003 1.16251L0.224959 1.0375L0.162481 0.912492V0.474985L0.224959 0.287492L0.599981 0.1L0.849894 0.225008L1.09988 0.537508L1.16236 0.725L1.34987 0.850008Z" fill="var(--fill-0, #E5E7EB)" stroke="var(--stroke-0, #2A3038)" stroke-width="0.2" stroke-linecap="round" stroke-linejoin="round"/>
</svg>
