<svg preserveAspectRatio="none" width="100%" height="100%" overflow="visible" style="display: block;" viewBox="0 0 39.075 36.7" fill="none" xmlns="http://www.w3.org/2000/svg">
<path id="Vector" d="M22.1625 2.475L21.9125 4.4125L22.7875 6.1L20.225 5.475L17.7875 6.9125L18.0375 8.85001L17.725 9.975L18.9125 11.975L22.0375 13.975L23.85 17.2875L27.6625 20.475L30.1625 20.4125L31.0375 21.2875L30.1625 22.1L33.1625 23.5375L35.6625 24.725L38.6 26.85L38.975 27.5375L38.475 28.975L36.5375 27.1L33.6625 26.475L32.475 29.0375L34.9125 30.5375L34.6625 32.6L33.35 32.85L31.7875 36.2875L30.4125 36.6L30.35 35.35L30.9125 33.225L31.6 32.35L30.1625 30.0375L29.0375 28.0375L27.6625 27.5375L26.5375 25.85L24.4125 25.1L22.9125 23.475L20.5375 23.225L17.85 21.475L14.7875 18.85L12.475 16.6L11.2875 12.6625L9.66253 12.225L7.03749 10.9125L5.60003 11.4125L3.78752 13.2875L2.47503 13.5375L2.78753 11.85L1.0375 11.35L0.100002 8.2875L1.16251 7.1L0.225009 5.6L0.287532 4.47501L1.6625 5.35L3.225 5.1625L4.91255 3.7875L5.47499 4.4125L6.975 4.2875L7.6 2.725L9.97503 3.22501L11.2875 2.5375L11.475 0.975002L13.4125 1.5375L13.725 0.7875L16.7875 0.100006L17.6 1.4125L22.1625 2.475Z" fill="var(--fill-0, #E5E7EB)" stroke="var(--stroke-0, #2A3038)" stroke-width="0.2" stroke-linecap="round" stroke-linejoin="round"/>
</svg>
