<svg preserveAspectRatio="none" width="100%" height="100%" overflow="visible" style="display: block;" viewBox="0 0 33.6375 37.0125" fill="none" xmlns="http://www.w3.org/2000/svg">
<path id="BW" d="M19.725 0.4125L20.9125 3.59998L21.6 4.34999L22.6 6.6625L26.4126 11.0375L27.85 11.475L27.7875 12.9125L28.725 15.475L31.4126 16.1L33.5375 17.9125L28.475 20.85L25.225 23.85L23.975 26.5375L22.85 28.0375L20.975 28.35L20.225 30.2875L19.8501 31.5375L17.6 32.4125L14.7875 32.225L13.225 31.1L11.7875 30.6625L10.0375 31.5375L9.10002 33.475L7.41255 34.6625L5.66252 36.475L3.16252 36.9125L2.47503 35.475L2.85002 33.0375L0.975015 29.225L0.1 28.6L0.475061 16.9125L3.91256 16.7875L4.41252 2.47499L7.03756 2.34998L12.475 0.912492L13.725 2.6L16.0375 1.0375H17.1L19.1 0.1L19.725 0.4125Z" fill="var(--fill-0, #E5E7EB)" stroke="var(--stroke-0, #2A3038)" stroke-width="0.2" stroke-linecap="round" stroke-linejoin="round"/>
</svg>
