<svg preserveAspectRatio="none" width="100%" height="100%" overflow="visible" style="display: block;" viewBox="0 0 41.6375 39.2" fill="none" xmlns="http://www.w3.org/2000/svg">
<path id="ZM" d="M33.2875 1.41248L33.475 1.53749L34.85 2.22498L37.1 2.9125L39.1 4.09998L40.725 5.91249L41.5375 9.28751L40.9125 10.35L40.1 13.6L40.6625 16.975L39.5375 18.35L38.2875 22.1L40.1 23.1L29.35 26.4125L29.6 29.2875L26.9125 29.85L24.85 31.4125L24.35 32.7875L23.1 33.1625L19.9125 36.4125L17.9125 39.0375L16.725 39.1L15.6 38.6625L11.725 38.225L11.1 37.9125V37.6L9.72501 36.6625L7.47503 36.475L4.59997 37.35L2.34998 34.85L0.1 31.6L0.600031 18.7875L7.9125 18.85L7.66248 17.475L8.225 15.975L7.66248 14.1L8.10003 12.1625L7.72497 10.9125L8.91248 10.975L9.10001 12.225L10.7875 12.1625L12.975 12.5375L14.1625 14.35L16.9125 14.9125L19.1 13.6625L19.85 15.725L22.5375 16.2875L23.7875 18.0375L25.1625 20.225H27.85L27.725 15.9125L26.725 16.6625L24.2875 15.1L23.35 14.35L23.9125 10.35L24.6 5.59999L23.85 3.85L24.9125 1.28748L25.85 0.787485L30.6625 0.1L31.225 0.287492L31.0375 1.16251L32.225 1.47501L32.975 2.2875L33.6 2.10001L33.2875 1.41248Z" fill="var(--fill-0, #E5E7EB)" stroke="var(--stroke-0, #2A3038)" stroke-width="0.2" stroke-linecap="round" stroke-linejoin="round"/>
</svg>
