<svg preserveAspectRatio="none" width="100%" height="100%" overflow="visible" style="display: block;" viewBox="0 0 55.7 31.325" fill="none" xmlns="http://www.w3.org/2000/svg">
<path id="UA" d="M38.225 4.475L39.6625 6.1625L39.725 6.9125L43.9126 8.28749L46.1626 7.66249L48.4125 9.475L50.2251 9.4125L55.0375 10.6625L55.2875 11.85L54.475 13.85L55.6 16.0375L55.4125 17.35L52.4126 17.6L51.0375 18.725L51.2875 20.4125L48.85 20.725L46.975 22.0375L44.1 22.225L41.6 23.725L42.225 26.1625L43.9751 27.1L47.1625 26.85L46.7876 28.2875L43.4125 28.975L39.475 31.225L37.5375 30.4125L37.9751 28.6L34.2876 27.4125L34.725 26.6625L37.6 25.35L36.5375 24.475L31.4751 23.475L30.975 21.975L28.1625 22.475L27.3501 24.6625L25.2875 27.5375L23.7875 26.85L22.3501 27.5375L20.8501 26.7875L21.6 26.35L21.975 25.0375L22.6626 23.725L22.2875 23.0375L22.9125 22.725L23.2876 23.2875L25.1626 23.4125L25.975 23.1L25.35 22.725L25.4751 22.1L24.2251 21.1L23.5375 19.475L22.2875 18.85L22.3501 17.5375L20.725 16.475L19.475 16.2875L16.975 15.1L14.975 15.475L14.2876 16.0375H12.9751L12.3501 16.975L10.1 17.35L9.10002 17.975L7.53752 16.975H5.53756L3.53751 16.5375L2.28751 17.4125L1.97501 16.35L0.10001 15.2875L0.537556 13.725L1.28753 12.6625L1.97501 12.9125L0.975025 11.1625L3.35006 7.9125L4.78751 7.47499L4.97504 6.41249L2.97507 3.0375L4.41252 2.85L5.91254 1.84999L8.28757 1.72499L11.35 2.03749L14.9126 2.97499L17.3501 3.0375L18.5375 3.59999L19.6001 2.9125L20.5376 3.85L23.225 3.6625L24.5376 4.03749L24.35 2.1L25.1626 1.22499L27.7251 1.0375L28.85 1.1625L29.475 0.287493L30.4125 0.474995L33.475 0.100001L35.8501 2.2875L35.2875 3.09999L35.7876 4.2875L38.225 4.475Z" fill="var(--fill-0, #E5E7EB)" stroke="var(--stroke-0, #2A3038)" stroke-width="0.2" stroke-linecap="round" stroke-linejoin="round"/>
</svg>
