<svg preserveAspectRatio="none" width="100%" height="100%" overflow="visible" style="display: block;" viewBox="0 0 105.137 41.1375" fill="none" xmlns="http://www.w3.org/2000/svg">
<path id="MN" d="M47.5374 7.6625L50.0374 6.91251L53.6 6.4125L56.975 6.975L61.1 8.78751L64.1625 10.7875H67.0375L71.2874 11.4125L73.5375 10.4125L77.2249 9.7875L79.975 7.0375L82.1 7.475L84.5375 8.78751L88.0375 8.4125L88.4125 11.35L88.6 15.2875L90.3499 16.85L91.7875 16.35L95.225 16.975L96.7875 15.5375L100.037 16.7875L104.537 19.5375L105.037 20.9125L102.288 20.475L98.0375 20.975L96.475 22.1L95.6624 24.725L91.6625 26.225L89.6625 28.35L85.9749 27.5375L83.975 27.1625L83.6625 29.725L85.475 31.225L86.6625 32.5375L85.1625 33.9125L83.9125 36.0375L80.85 37.4125L76.1 37.5375L71.5999 38.9125L68.85 41.0375L66.7875 39.85H62.9125L57.0375 37.4125L53.5375 36.85L49.5375 37.4125L42.475 36.475L38.975 36.6L36.0375 34.225L32.9125 30.6L30.7875 30.1625L25.7875 27.6625L21.2874 27.1625L17.2249 26.475L15.3499 24.725L14.475 20.1625L10.85 16.975L5.725 15.5375L2.16246 13.475L0.100001 10.725L3.03747 10.0375L7.22494 6.725L10.9125 4.91251L14.225 6.1L17.475 6.16251L20.475 7.975L23.6 8.1L28.6 9.10001L30.1 6.35L27.6 4.10001L28.4125 0.1L32.7875 1.6625L35.7875 2.1625L39.975 3.16251L42.2249 6.0375L47.5374 7.6625Z" fill="var(--fill-0, #E5E7EB)" stroke="var(--stroke-0, #2A3038)" stroke-width="0.2" stroke-linecap="round" stroke-linejoin="round"/>
</svg>
