<svg preserveAspectRatio="none" width="100%" height="100%" overflow="visible" style="display: block;" viewBox="0 0 36.8875 13.575" fill="none" xmlns="http://www.w3.org/2000/svg">
<path id="CU" d="M18.9125 1.85001L20.1 3.2875L23.35 2.85L24.475 3.7875L27.1 6.2875L29.1 8.10001L30.225 8.03751L32.225 8.85L31.85 9.97501L34.35 10.1625L36.7875 11.7875L36.2875 12.725L33.9125 13.225L31.5375 13.4125L29.225 13.1L24.1625 13.475L26.7875 11.2875L25.475 10.225L23.225 9.97501L22.1625 8.7875L21.6625 6.53751L19.6625 6.6625L16.5375 5.60001L15.6 4.725L11.1625 4.1L10.0375 3.35001L11.475 2.35L8.09999 2.16251L5.34998 4.225L3.91249 4.28751L3.28749 5.28751L1.53749 5.725L0.100002 5.28751L2.10001 4.1L3.03751 2.6L4.72498 1.725L6.59998 0.974996L9.28751 0.600012L10.1625 0.1L13.1 0.4125L15.85 0.475004L18.9125 1.85001Z" fill="var(--fill-0, #E5E7EB)" stroke="var(--stroke-0, #2A3038)" stroke-width="0.2" stroke-linecap="round" stroke-linejoin="round"/>
</svg>
