<svg preserveAspectRatio="none" width="100%" height="100%" overflow="visible" style="display: block;" viewBox="0 0 11.825 12.2" fill="none" xmlns="http://www.w3.org/2000/svg">
<path id="CR" d="M8.16248 1.22501L8.91249 3.41251L10.1625 5.03752L11.725 6.725L10.35 7.10001L10.2875 8.72501L10.975 9.28751L10.4125 9.7875L10.5375 10.475L10.1625 11.2875L9.97499 12.1L8.09999 11.225L7.41251 10.35L7.84998 9.66251L7.78749 8.78752L6.84999 7.85002L5.47499 7.0375L4.34999 6.53751L4.1625 5.35002L3.28749 4.66251L3.41249 5.7875L2.66249 6.78751L1.9125 5.66252L0.849989 5.22501L0.412501 4.475L0.474985 3.225L1.0375 1.975L0.100001 1.41251L0.974997 0.600013L1.53749 0.100002L3.7875 1.16251L4.59999 0.662517L5.725 0.975017L6.22499 1.78751L7.2875 2.10001L8.16248 1.22501Z" fill="var(--fill-0, #E5E7EB)" stroke="var(--stroke-0, #2A3038)" stroke-width="0.2" stroke-linecap="round" stroke-linejoin="round"/>
</svg>
