<svg preserveAspectRatio="none" width="100%" height="100%" overflow="visible" style="display: block;" viewBox="0 0 23.3875 10.45" fill="none" xmlns="http://www.w3.org/2000/svg">
<path id="AT" d="M23.0375 1.85L22.85 2.35L23.2875 3.6625L23.1625 5.2875H21.4125L22.1 6.1625L21.2875 8.6625L20.725 9.35L17.975 9.4125L16.475 10.35L13.85 10.0375L9.28749 8.975L8.47503 7.6625L5.41252 8.35L5.10002 9.1L3.16253 8.5375L1.53747 8.4125L0.100019 7.6625L0.537489 6.725L0.412519 6.0375L1.28753 5.85L2.975 6.9125L3.34999 5.85L6.1 6.0375L8.2875 5.35L9.78752 5.475L10.85 6.2875L11.1 5.6L10.475 3.0375L11.5375 2.5375L12.5375 0.725L14.9125 2.0375L16.5375 0.4125L17.6 0.1L20.1 1.2875L21.5375 1.1L23.0375 1.85Z" fill="var(--fill-0, #E5E7EB)" stroke="var(--stroke-0, #2A3038)" stroke-width="0.2" stroke-linecap="round" stroke-linejoin="round"/>
</svg>
