<svg preserveAspectRatio="none" width="100%" height="100%" overflow="visible" style="display: block;" viewBox="0 0 40.2 31.2625" fill="none" xmlns="http://www.w3.org/2000/svg">
<path id="ES" d="M24.1625 1.41249L25.4125 2.9125L31.35 4.725L32.5375 3.85L36.1625 5.6625L39.85 5.1625L40.1 7.475L37.0375 10.1L32.9125 10.975L32.6 12.2875L30.6 14.475L29.35 17.725L30.6 20.0375L28.725 21.7875L27.975 24.4125L25.475 25.225L23.1625 28.2875L18.9125 28.35L15.7875 28.2875L13.6625 29.6625L12.35 31.1625L10.725 30.85L9.53752 29.475L8.66251 27.225L5.60003 26.6L5.35002 25.225L6.60002 23.725L7.10001 22.6625L5.97502 21.475L6.975 18.85L5.725 16.475L7.16253 16.1625L7.35002 14.225L7.85002 13.6625L8.03751 10.5375L9.53752 9.475L8.72503 7.475L6.78751 7.35L6.22503 7.85H4.35003L3.60002 5.9125L2.22502 6.475L1.0375 7.475L1.35 4.6625L0.100001 2.97499L4.72502 0.1L8.60002 0.787495H12.9125L16.2875 1.475L18.975 1.225L24.1625 1.41249Z" fill="var(--fill-0, #E5E7EB)" stroke="var(--stroke-0, #2A3038)" stroke-width="0.2" stroke-linecap="round" stroke-linejoin="round"/>
</svg>
