<svg preserveAspectRatio="none" width="100%" height="100%" overflow="visible" style="display: block;" viewBox="0 0 20.825 10.2" fill="none" xmlns="http://www.w3.org/2000/svg">
<path id="CZ" d="M8.34997 0.162498L9.91247 1.4125L12.225 1.725L12.1 2.7875L13.85 3.6L14.225 2.6L16.35 3.0375L16.7875 4.2875L19.1 4.475L20.725 6.4125H19.7875L19.35 7.1L18.6625 7.2875L18.5375 8.1625L17.975 8.35L17.9125 8.725L16.9125 9.1L15.5375 9.0375L15.1625 9.9125L13.6625 9.1625L12.225 9.35L9.72502 8.1625L8.66247 8.475L7.03748 10.1L4.66253 8.7875L2.78753 7.1625L1.16247 6.225L0.725 4.5375L0.1 3.4125L2.22502 2.6L3.28748 1.6L5.47498 0.850002L6.16247 0.100004L6.975 0.537502L8.34997 0.162498Z" fill="var(--fill-0, #E5E7EB)" stroke="var(--stroke-0, #2A3038)" stroke-width="0.2" stroke-linecap="round" stroke-linejoin="round"/>
</svg>
