<svg preserveAspectRatio="none" width="100%" height="100%" overflow="visible" style="display: block;" viewBox="0 0 62.8875 40.825" fill="none" xmlns="http://www.w3.org/2000/svg">
<path id="Vector" d="M14.1 2.16251L14.2875 4.16251L18.7875 1.6L26.1 0.287505L27.5375 3.6L25.5375 5.72501L31.1625 4.78751L34.475 3.475L38.725 5.10001L41.0375 6.66251L40.35 8.10001L45.475 7.35L46.6625 9.47501L51.9125 10.7875L53.2875 12.1L53.85 15.2875L48.1625 16.85L52.975 19.1L56.6625 19.85L58.725 22.975L62.7875 23.225L60.725 25.6625L53.9125 29.725L51.4125 28.225L49.0375 24.85L45.35 25.2875L43.9125 27.35L45.6 29.35L48.4125 30.975L49.0375 31.9125L48.975 35.475L46.725 38.0375L43.7875 37.0375L38.4125 34.225L40.6625 37.2875L42.4125 39.475L42.225 40.725L35.4125 39.2875L30.6625 37.1625L28.2875 35.475L29.7875 34.4125L26.7875 32.6L23.85 30.9125L23.2875 31.9125L15.1 32.475L13.6 31.2875L16.975 28.6625L22.0375 28.6L27.85 28.1625L27.725 26.9125L29.6625 25.1625L35.1625 21.7875L35.4125 20.225L35.1 19.1L32.1625 17.4125L27.725 16.2875L29.9125 15.4125L28.6625 13.2875L26.5375 13.1L25.35 11.975L23.2875 12.975L18.35 13.4125L9.59997 12.6625L4.97499 11.6625L1.28748 11.1625L0.100002 9.97501L4.03749 8.475H0.474987L2.53748 5.1625L6.975 2.28751L10.725 0.975004L17.725 0.100006L14.1 2.16251Z" fill="var(--fill-0, #E5E7EB)" stroke="var(--stroke-0, #2A3038)" stroke-width="0.2" stroke-linecap="round" stroke-linejoin="round"/>
</svg>
