<svg width="212" height="206" viewBox="-10 -10 232 226" fill="none" xmlns="http://www.w3.org/2000/svg" overflow="visible">
<path d="M53 102.5C80.8904 102.5 103.5 125.11 103.5 153C103.5 180.89 80.8904 203.5 53 203.5C25.1096 203.5 2.5 180.89 2.5 153C2.5 125.11 25.1096 102.5 53 102.5ZM159 84.5C186.89 84.5 209.5 107.11 209.5 135C209.5 162.89 186.89 185.5 159 185.5C131.11 185.5 108.5 162.89 108.5 135C108.5 107.11 131.11 84.5 159 84.5ZM90 2.5C117.89 2.5 140.5 25.1096 140.5 53C140.5 80.8904 117.89 103.5 90 103.5C62.1096 103.5 39.5 80.8904 39.5 53C39.5 25.1096 62.1096 2.5 90 2.5Z" stroke="white" stroke-width="12"/>
</svg>
